G04 Layer: BottomSilkLayer*
G04 EasyEDA v6.3.53, 2020-06-11T19:48:03+08:00*
G04 f0918c685c5a4818851a522c051890eb,45e1048b23574a55a66a4e5d38cdb7dd,10*
G04 Gerber Generator version 0.2*
G04 Scale: 100 percent, Rotated: No, Reflected: No *
G04 Dimensions in inches *
G04 leading zeros omitted , absolute positions ,2 integer and 4 decimal *
%FSLAX24Y24*%
%MOIN*%
G90*
G70D02*


%LPD*%

%LPD*%
G36*
G01X7363Y8199D02*
G01X7359Y8199D01*
G01X7357Y8198D01*
G01X7354Y8197D01*
G01X7349Y8194D01*
G01X7342Y8190D01*
G01X7334Y8186D01*
G01X7324Y8180D01*
G01X7313Y8173D01*
G01X7300Y8166D01*
G01X7285Y8158D01*
G01X7269Y8150D01*
G01X7252Y8140D01*
G01X7234Y8130D01*
G01X7214Y8119D01*
G01X7193Y8107D01*
G01X7171Y8095D01*
G01X7123Y8069D01*
G01X7098Y8055D01*
G01X7044Y8025D01*
G01X7016Y8009D01*
G01X6987Y7993D01*
G01X6957Y7976D01*
G01X6895Y7942D01*
G01X6863Y7924D01*
G01X6797Y7888D01*
G01X6763Y7869D01*
G01X6728Y7850D01*
G01X6694Y7830D01*
G01X6659Y7811D01*
G01X6627Y7794D01*
G01X6596Y7776D01*
G01X6565Y7759D01*
G01X6535Y7742D01*
G01X6504Y7726D01*
G01X6474Y7709D01*
G01X6387Y7661D01*
G01X6359Y7646D01*
G01X6331Y7630D01*
G01X6305Y7616D01*
G01X6278Y7601D01*
G01X6252Y7587D01*
G01X6227Y7573D01*
G01X6202Y7560D01*
G01X6156Y7534D01*
G01X6134Y7522D01*
G01X6112Y7511D01*
G01X6072Y7489D01*
G01X6053Y7479D01*
G01X6036Y7469D01*
G01X6019Y7460D01*
G01X6003Y7452D01*
G01X5989Y7444D01*
G01X5963Y7430D01*
G01X5952Y7425D01*
G01X5942Y7419D01*
G01X5933Y7415D01*
G01X5926Y7411D01*
G01X5919Y7408D01*
G01X5914Y7405D01*
G01X5911Y7404D01*
G01X5850Y7377D01*
G01X5850Y5684D01*
G01X5964Y5627D01*
G01X5974Y5621D01*
G01X5985Y5616D01*
G01X5997Y5609D01*
G01X6010Y5602D01*
G01X6040Y5586D01*
G01X6056Y5577D01*
G01X6092Y5557D01*
G01X6111Y5547D01*
G01X6131Y5536D01*
G01X6152Y5525D01*
G01X6174Y5513D01*
G01X6197Y5500D01*
G01X6220Y5488D01*
G01X6244Y5474D01*
G01X6269Y5461D01*
G01X6294Y5447D01*
G01X6320Y5432D01*
G01X6347Y5418D01*
G01X6374Y5403D01*
G01X6402Y5388D01*
G01X6458Y5356D01*
G01X6516Y5324D01*
G01X6546Y5308D01*
G01X6576Y5291D01*
G01X6606Y5275D01*
G01X6636Y5258D01*
G01X6667Y5241D01*
G01X6697Y5223D01*
G01X7370Y4850D01*
G01X7481Y4911D01*
G01X7487Y4915D01*
G01X7494Y4919D01*
G01X7502Y4923D01*
G01X7511Y4928D01*
G01X7522Y4934D01*
G01X7534Y4941D01*
G01X7547Y4948D01*
G01X7560Y4956D01*
G01X7576Y4964D01*
G01X7591Y4973D01*
G01X7608Y4982D01*
G01X7626Y4992D01*
G01X7645Y5003D01*
G01X7664Y5013D01*
G01X7685Y5025D01*
G01X7706Y5036D01*
G01X7728Y5048D01*
G01X7774Y5074D01*
G01X7798Y5087D01*
G01X7822Y5101D01*
G01X7848Y5115D01*
G01X7873Y5129D01*
G01X7981Y5189D01*
G01X8009Y5205D01*
G01X8038Y5221D01*
G01X8066Y5236D01*
G01X8095Y5253D01*
G01X8124Y5269D01*
G01X8154Y5285D01*
G01X8183Y5301D01*
G01X8213Y5318D01*
G01X8243Y5334D01*
G01X8893Y5696D01*
G01X8893Y7357D01*
G01X8510Y7573D01*
G01X8492Y7583D01*
G01X8473Y7593D01*
G01X8435Y7615D01*
G01X8415Y7626D01*
G01X8394Y7637D01*
G01X8331Y7673D01*
G01X8287Y7697D01*
G01X8242Y7723D01*
G01X8219Y7735D01*
G01X8197Y7748D01*
G01X8174Y7761D01*
G01X8151Y7773D01*
G01X8059Y7825D01*
G01X8037Y7838D01*
G01X8014Y7850D01*
G01X7992Y7863D01*
G01X7969Y7875D01*
G01X7926Y7899D01*
G01X7884Y7923D01*
G01X7863Y7934D01*
G01X7843Y7946D01*
G01X7823Y7957D01*
G01X7804Y7967D01*
G01X7785Y7978D01*
G01X7767Y7988D01*
G01X7750Y7998D01*
G01X7711Y8019D01*
G01X7674Y8040D01*
G01X7602Y8078D01*
G01X7569Y8096D01*
G01X7537Y8113D01*
G01X7507Y8129D01*
G01X7480Y8143D01*
G01X7455Y8156D01*
G01X7432Y8168D01*
G01X7411Y8178D01*
G01X7394Y8186D01*
G01X7381Y8192D01*
G01X7370Y8197D01*
G01X7363Y8199D01*
G37*

%LPC*%
G36*
G01X8240Y7642D02*
G01X8220Y7643D01*
G01X8220Y6045D01*
G01X7668Y5735D01*
G01X7653Y6250D01*
G01X7089Y6250D01*
G01X7089Y5076D01*
G01X7373Y4930D01*
G01X7776Y5153D01*
G01X7797Y5165D01*
G01X7819Y5177D01*
G01X7841Y5190D01*
G01X7864Y5202D01*
G01X7910Y5228D01*
G01X7982Y5267D01*
G01X8006Y5281D01*
G01X8031Y5294D01*
G01X8056Y5308D01*
G01X8080Y5321D01*
G01X8154Y5362D01*
G01X8178Y5376D01*
G01X8203Y5389D01*
G01X8227Y5402D01*
G01X8250Y5415D01*
G01X8274Y5428D01*
G01X8297Y5440D01*
G01X8319Y5453D01*
G01X8363Y5477D01*
G01X8384Y5488D01*
G01X8404Y5500D01*
G01X8424Y5510D01*
G01X8443Y5521D01*
G01X8461Y5531D01*
G01X8479Y5540D01*
G01X8496Y5549D01*
G01X8812Y5721D01*
G01X8806Y6530D01*
G01X8799Y7338D01*
G01X8530Y7488D01*
G01X8493Y7509D01*
G01X8458Y7529D01*
G01X8424Y7547D01*
G01X8391Y7565D01*
G01X8361Y7581D01*
G01X8334Y7596D01*
G01X8309Y7609D01*
G01X8255Y7636D01*
G01X8246Y7640D01*
G01X8240Y7642D01*
G37*
G36*
G01X7364Y8121D02*
G01X7358Y8121D01*
G01X7342Y8113D01*
G01X7331Y8107D01*
G01X7317Y8099D01*
G01X7301Y8090D01*
G01X7282Y8080D01*
G01X7262Y8069D01*
G01X7239Y8056D01*
G01X7214Y8042D01*
G01X7188Y8028D01*
G01X7160Y8012D01*
G01X7130Y7996D01*
G01X7098Y7979D01*
G01X7066Y7961D01*
G01X7032Y7942D01*
G01X6997Y7923D01*
G01X6961Y7903D01*
G01X6924Y7882D01*
G01X6887Y7862D01*
G01X6863Y7849D01*
G01X6839Y7835D01*
G01X6814Y7822D01*
G01X6790Y7808D01*
G01X6740Y7780D01*
G01X6664Y7738D01*
G01X6639Y7725D01*
G01X6514Y7655D01*
G01X6490Y7642D01*
G01X6467Y7629D01*
G01X6443Y7616D01*
G01X6397Y7590D01*
G01X6375Y7578D01*
G01X6354Y7566D01*
G01X6333Y7555D01*
G01X6293Y7533D01*
G01X6275Y7522D01*
G01X6256Y7512D01*
G01X6239Y7503D01*
G01X6223Y7494D01*
G01X6208Y7485D01*
G01X6193Y7477D01*
G01X6180Y7470D01*
G01X5931Y7331D01*
G01X5931Y5721D01*
G01X6189Y5579D01*
G01X6224Y5560D01*
G01X6258Y5542D01*
G01X6291Y5524D01*
G01X6322Y5507D01*
G01X6352Y5491D01*
G01X6378Y5477D01*
G01X6402Y5464D01*
G01X6442Y5444D01*
G01X6456Y5436D01*
G01X6465Y5432D01*
G01X6471Y5429D01*
G01X6496Y5421D01*
G01X6510Y7009D01*
G01X6779Y7158D01*
G01X6816Y7178D01*
G01X6851Y7198D01*
G01X6885Y7216D01*
G01X6918Y7234D01*
G01X6948Y7250D01*
G01X6975Y7264D01*
G01X7000Y7277D01*
G01X7022Y7288D01*
G01X7040Y7296D01*
G01X7054Y7303D01*
G01X7064Y7307D01*
G01X7069Y7308D01*
G01X7089Y7308D01*
G01X7089Y6792D01*
G01X7655Y6792D01*
G01X7655Y7974D01*
G01X7513Y8051D01*
G01X7485Y8066D01*
G01X7457Y8080D01*
G01X7432Y8092D01*
G01X7409Y8103D01*
G01X7390Y8112D01*
G01X7375Y8118D01*
G01X7364Y8121D01*
G37*

%LPD*%
G36*
G01X7056Y4599D02*
G01X6894Y4599D01*
G01X6909Y4541D01*
G01X6912Y4531D01*
G01X6915Y4517D01*
G01X6918Y4499D01*
G01X6923Y4478D01*
G01X6927Y4454D01*
G01X6932Y4428D01*
G01X6938Y4400D01*
G01X6943Y4369D01*
G01X6949Y4338D01*
G01X6955Y4305D01*
G01X6961Y4271D01*
G01X6973Y4204D01*
G01X6979Y4171D01*
G01X6985Y4139D01*
G01X6991Y4108D01*
G01X6997Y4079D01*
G01X7002Y4051D01*
G01X7007Y4026D01*
G01X7011Y4004D01*
G01X7016Y3984D01*
G01X7019Y3968D01*
G01X7022Y3956D01*
G01X7025Y3948D01*
G01X7039Y3903D01*
G01X7244Y3903D01*
G01X7278Y4076D01*
G01X7285Y4113D01*
G01X7293Y4148D01*
G01X7300Y4182D01*
G01X7307Y4214D01*
G01X7314Y4242D01*
G01X7321Y4267D01*
G01X7326Y4286D01*
G01X7330Y4299D01*
G01X7348Y4347D01*
G01X7384Y4157D01*
G01X7391Y4118D01*
G01X7398Y4081D01*
G01X7406Y4046D01*
G01X7413Y4013D01*
G01X7419Y3985D01*
G01X7424Y3962D01*
G01X7429Y3945D01*
G01X7432Y3935D01*
G01X7445Y3903D01*
G01X7644Y3903D01*
G01X7689Y4141D01*
G01X7699Y4191D01*
G01X7703Y4217D01*
G01X7713Y4268D01*
G01X7718Y4293D01*
G01X7722Y4318D01*
G01X7726Y4342D01*
G01X7731Y4365D01*
G01X7735Y4387D01*
G01X7738Y4408D01*
G01X7742Y4428D01*
G01X7745Y4446D01*
G01X7747Y4463D01*
G01X7750Y4477D01*
G01X7752Y4489D01*
G01X7769Y4599D01*
G01X7607Y4599D01*
G01X7577Y4405D01*
G01X7569Y4351D01*
G01X7565Y4323D01*
G01X7562Y4297D01*
G01X7558Y4271D01*
G01X7556Y4246D01*
G01X7553Y4223D01*
G01X7551Y4202D01*
G01X7549Y4182D01*
G01X7547Y4165D01*
G01X7546Y4151D01*
G01X7546Y4140D01*
G01X7545Y4070D01*
G01X7523Y4109D01*
G01X7519Y4116D01*
G01X7515Y4127D01*
G01X7510Y4142D01*
G01X7505Y4159D01*
G01X7499Y4180D01*
G01X7493Y4203D01*
G01X7486Y4228D01*
G01X7480Y4254D01*
G01X7473Y4282D01*
G01X7459Y4342D01*
G01X7452Y4373D01*
G01X7404Y4599D01*
G01X7256Y4599D01*
G01X7160Y4109D01*
G01X7123Y4109D01*
G01X7104Y4296D01*
G01X7100Y4335D01*
G01X7096Y4373D01*
G01X7091Y4410D01*
G01X7087Y4445D01*
G01X7082Y4476D01*
G01X7078Y4504D01*
G01X7074Y4526D01*
G01X7071Y4541D01*
G01X7056Y4599D01*
G37*

%LPD*%
G36*
G01X8059Y4599D02*
G01X7870Y4599D01*
G01X7870Y3903D01*
G01X8059Y3903D01*
G01X8059Y4186D01*
G01X8301Y4186D01*
G01X8301Y3903D01*
G01X8463Y3903D01*
G01X8463Y4599D01*
G01X8304Y4599D01*
G01X8296Y4463D01*
G01X8287Y4328D01*
G01X8059Y4312D01*
G01X8059Y4599D01*
G37*

%LPD*%
G36*
G01X8940Y4599D02*
G01X8756Y4599D01*
G01X8674Y4559D01*
G01X8592Y4518D01*
G01X8637Y4471D01*
G01X8681Y4424D01*
G01X8831Y4478D01*
G01X8876Y4462D01*
G01X8920Y4446D01*
G01X8920Y4375D01*
G01X8806Y4327D01*
G01X8782Y4317D01*
G01X8758Y4306D01*
G01X8734Y4294D01*
G01X8711Y4282D01*
G01X8690Y4271D01*
G01X8672Y4260D01*
G01X8656Y4251D01*
G01X8644Y4242D01*
G01X8597Y4204D01*
G01X8597Y4009D01*
G01X8739Y3903D01*
G01X8972Y3903D01*
G01X9040Y3932D01*
G01X9109Y3962D01*
G01X9109Y3994D01*
G01X9106Y4008D01*
G01X9098Y4024D01*
G01X9087Y4040D01*
G01X9073Y4053D01*
G01X9038Y4081D01*
G01X8844Y4024D01*
G01X8759Y4056D01*
G01X8759Y4124D01*
G01X8907Y4194D01*
G01X9056Y4264D01*
G01X9110Y4400D01*
G01X9094Y4447D01*
G01X9079Y4494D01*
G01X9009Y4547D01*
G01X8940Y4599D01*
G37*

%LPD*%
G36*
G01X9673Y4599D02*
G01X9461Y4599D01*
G01X9325Y4540D01*
G01X9245Y4422D01*
G01X9228Y4323D01*
G01X9211Y4223D01*
G01X9242Y4115D01*
G01X9272Y4008D01*
G01X9342Y3955D01*
G01X9412Y3903D01*
G01X9673Y3903D01*
G01X9761Y3978D01*
G01X9850Y4053D01*
G01X9850Y4448D01*
G01X9761Y4524D01*
G01X9673Y4599D01*
G37*

%LPC*%
G36*
G01X9594Y4470D02*
G01X9494Y4470D01*
G01X9453Y4425D01*
G01X9435Y4403D01*
G01X9418Y4376D01*
G01X9403Y4348D01*
G01X9393Y4321D01*
G01X9374Y4263D01*
G01X9392Y4185D01*
G01X9410Y4108D01*
G01X9490Y4032D01*
G01X9618Y4032D01*
G01X9660Y4089D01*
G01X9701Y4146D01*
G01X9701Y4367D01*
G01X9594Y4470D01*
G37*

%LPD*%
G36*
G01X6730Y4754D02*
G01X4883Y4754D01*
G01X4866Y4669D01*
G01X4850Y4583D01*
G01X4858Y4190D01*
G01X4867Y3797D01*
G01X4948Y3748D01*
G01X6681Y3748D01*
G01X6766Y3779D01*
G01X6766Y4719D01*
G01X6748Y4737D01*
G01X6730Y4754D01*
G37*

%LPC*%
G36*
G01X5446Y4599D02*
G01X5284Y4599D01*
G01X5284Y4365D01*
G01X5232Y4392D01*
G01X5209Y4402D01*
G01X5183Y4411D01*
G01X5158Y4416D01*
G01X5137Y4419D01*
G01X5094Y4419D01*
G01X5027Y4355D01*
G01X4961Y4292D01*
G01X4961Y4086D01*
G01X5014Y3953D01*
G01X5084Y3923D01*
G01X5153Y3892D01*
G01X5311Y3950D01*
G01X5311Y3903D01*
G01X5446Y3903D01*
G01X5446Y4599D01*
G37*
G36*
G01X5688Y4393D02*
G01X5527Y4393D01*
G01X5527Y3903D01*
G01X5657Y3903D01*
G01X5667Y3930D01*
G01X5676Y3958D01*
G01X5748Y3927D01*
G01X5819Y3896D01*
G01X5952Y3928D01*
G01X5982Y4009D01*
G01X6012Y4091D01*
G01X6012Y4393D01*
G01X5823Y4393D01*
G01X5823Y4032D01*
G01X5788Y4032D01*
G01X5772Y4034D01*
G01X5754Y4040D01*
G01X5736Y4050D01*
G01X5721Y4062D01*
G01X5688Y4093D01*
G01X5688Y4393D01*
G37*
G36*
G01X6254Y4599D02*
G01X6093Y4599D01*
G01X6093Y3903D01*
G01X6254Y3903D01*
G01X6254Y4186D01*
G01X6496Y4186D01*
G01X6496Y3903D01*
G01X6685Y3903D01*
G01X6685Y4599D01*
G01X6496Y4599D01*
G01X6496Y4341D01*
G01X6254Y4341D01*
G01X6254Y4599D01*
G37*

%LPD*%
G36*
G01X5188Y4290D02*
G01X5151Y4290D01*
G01X5134Y4225D01*
G01X5117Y4161D01*
G01X5134Y4094D01*
G01X5152Y4028D01*
G01X5211Y4036D01*
G01X5271Y4044D01*
G01X5288Y4215D01*
G01X5256Y4253D01*
G01X5241Y4267D01*
G01X5223Y4278D01*
G01X5204Y4286D01*
G01X5188Y4290D01*
G37*

%LPD*%
G36*
G01X7846Y3567D02*
G01X7819Y3567D01*
G01X7807Y3565D01*
G01X7795Y3559D01*
G01X7784Y3551D01*
G01X7776Y3541D01*
G01X7759Y3515D01*
G01X7786Y3515D01*
G01X7798Y3517D01*
G01X7810Y3523D01*
G01X7821Y3531D01*
G01X7830Y3541D01*
G01X7846Y3567D01*
G37*

%LPD*%
G36*
G01X7827Y3462D02*
G01X7816Y3464D01*
G01X7806Y3462D01*
G01X7797Y3456D01*
G01X7791Y3448D01*
G01X7789Y3438D01*
G01X7791Y3428D01*
G01X7797Y3420D01*
G01X7806Y3414D01*
G01X7816Y3412D01*
G01X7827Y3414D01*
G01X7835Y3420D01*
G01X7841Y3428D01*
G01X7843Y3438D01*
G01X7841Y3448D01*
G01X7835Y3456D01*
G01X7827Y3462D01*
G37*

%LPD*%
G36*
G01X5144Y3535D02*
G01X5084Y3596D01*
G01X5064Y3540D01*
G01X5130Y3464D01*
G01X4988Y3464D01*
G01X4988Y3549D01*
G01X4934Y3503D01*
G01X4913Y3483D01*
G01X4896Y3465D01*
G01X4885Y3450D01*
G01X4880Y3440D01*
G01X4880Y3423D01*
G01X5204Y3411D01*
G01X5204Y3442D01*
G01X5199Y3459D01*
G01X5186Y3482D01*
G01X5167Y3509D01*
G01X5144Y3535D01*
G37*

%LPD*%
G36*
G01X9067Y3560D02*
G01X9053Y3564D01*
G01X9039Y3561D01*
G01X9024Y3550D01*
G01X9008Y3534D01*
G01X8989Y3510D01*
G01X8947Y3452D01*
G01X8947Y3541D01*
G01X8893Y3541D01*
G01X8893Y3309D01*
G01X8947Y3309D01*
G01X8955Y3451D01*
G01X8967Y3380D01*
G01X8978Y3309D01*
G01X9053Y3309D01*
G01X9038Y3348D01*
G01X9022Y3386D01*
G01X9082Y3386D01*
G01X9082Y3252D01*
G01X9014Y3268D01*
G01X8947Y3284D01*
G01X8947Y3232D01*
G01X9130Y3232D01*
G01X9153Y3451D01*
G01X9114Y3509D01*
G01X9097Y3533D01*
G01X9082Y3550D01*
G01X9067Y3560D01*
G37*

%LPC*%
G36*
G01X9067Y3488D02*
G01X9056Y3490D01*
G01X9046Y3488D01*
G01X9034Y3482D01*
G01X9023Y3474D01*
G01X9014Y3464D01*
G01X8998Y3438D01*
G01X9082Y3438D01*
G01X9082Y3464D01*
G01X9080Y3474D01*
G01X9075Y3482D01*
G01X9067Y3488D01*
G37*

%LPD*%
G36*
G01X9660Y3561D02*
G01X9639Y3606D01*
G01X9628Y3561D01*
G01X9617Y3515D01*
G01X9456Y3515D01*
G01X9489Y3464D01*
G01X9697Y3464D01*
G01X9688Y3282D01*
G01X9610Y3296D01*
G01X9579Y3421D01*
G01X9546Y3432D01*
G01X9523Y3436D01*
G01X9515Y3428D01*
G01X9520Y3400D01*
G01X9539Y3350D01*
G01X9565Y3283D01*
G01X9459Y3283D01*
G01X9459Y3232D01*
G01X9836Y3232D01*
G01X9836Y3283D01*
G01X9732Y3283D01*
G01X9742Y3464D01*
G01X9809Y3464D01*
G01X9809Y3515D01*
G01X9680Y3515D01*
G01X9660Y3561D01*
G37*

%LPD*%
G36*
G01X5177Y3386D02*
G01X4907Y3386D01*
G01X4907Y3219D01*
G01X5177Y3219D01*
G01X5177Y3386D01*
G37*

%LPC*%
G36*
G01X5123Y3335D02*
G01X4961Y3335D01*
G01X4961Y3283D01*
G01X5123Y3283D01*
G01X5123Y3335D01*
G37*

%LPD*%
G36*
G01X7003Y3564D02*
G01X6819Y3566D01*
G01X6819Y3515D01*
G01X6941Y3509D01*
G01X6894Y3498D01*
G01X6847Y3486D01*
G01X6847Y3335D01*
G01X6927Y3335D01*
G01X6927Y3278D01*
G01X6874Y3265D01*
G01X6820Y3251D01*
G01X6832Y3233D01*
G01X6845Y3214D01*
G01X6936Y3219D01*
G01X6974Y3223D01*
G01X7010Y3228D01*
G01X7040Y3236D01*
G01X7060Y3243D01*
G01X7092Y3262D01*
G01X7131Y3248D01*
G01X7170Y3233D01*
G01X7174Y3290D01*
G01X7175Y3304D01*
G01X7176Y3321D01*
G01X7177Y3341D01*
G01X7179Y3385D01*
G01X7180Y3409D01*
G01X7182Y3455D01*
G01X7186Y3563D01*
G01X7003Y3564D01*
G37*

%LPC*%
G36*
G01X7116Y3438D02*
G01X7116Y3515D01*
G01X6941Y3509D01*
G01X6990Y3497D01*
G01X7040Y3485D01*
G01X7031Y3371D01*
G01X7021Y3257D01*
G01X7062Y3257D01*
G01X7062Y3438D01*
G01X7116Y3438D01*
G37*
G36*
G01X7143Y3386D02*
G01X7089Y3386D01*
G01X7089Y3309D01*
G01X7143Y3309D01*
G01X7143Y3386D01*
G37*

%LPD*%
G36*
G01X5877Y3541D02*
G01X5550Y3541D01*
G01X5569Y3483D01*
G01X5584Y3440D01*
G01X5597Y3417D01*
G01X5610Y3411D01*
G01X5625Y3420D01*
G01X5642Y3437D01*
G01X5578Y3511D01*
G01X5688Y3484D01*
G01X5688Y3386D01*
G01X5527Y3386D01*
G01X5527Y3335D01*
G01X5688Y3335D01*
G01X5688Y3206D01*
G01X5742Y3206D01*
G01X5742Y3335D01*
G01X5877Y3335D01*
G01X5877Y3386D01*
G01X5742Y3386D01*
G01X5742Y3490D01*
G01X5794Y3490D01*
G01X5779Y3451D01*
G01X5763Y3412D01*
G01X5823Y3412D01*
G01X5823Y3490D01*
G01X5850Y3490D01*
G01X5860Y3492D01*
G01X5869Y3497D01*
G01X5875Y3505D01*
G01X5877Y3515D01*
G01X5877Y3541D01*
G37*

%LPD*%
G36*
G01X6313Y3565D02*
G01X6300Y3566D01*
G01X6290Y3563D01*
G01X6283Y3555D01*
G01X6281Y3541D01*
G01X6281Y3515D01*
G01X6200Y3515D01*
G01X6200Y3492D01*
G01X6203Y3482D01*
G01X6212Y3472D01*
G01X6225Y3462D01*
G01X6240Y3455D01*
G01X6256Y3447D01*
G01X6269Y3436D01*
G01X6278Y3425D01*
G01X6281Y3413D01*
G01X6281Y3386D01*
G01X6173Y3386D01*
G01X6173Y3335D01*
G01X6281Y3335D01*
G01X6281Y3203D01*
G01X6335Y3235D01*
G01X6335Y3335D01*
G01X6443Y3335D01*
G01X6443Y3386D01*
G01X6335Y3386D01*
G01X6335Y3470D01*
G01X6411Y3410D01*
G01X6428Y3436D01*
G01X6444Y3462D01*
G01X6390Y3515D01*
G01X6368Y3534D01*
G01X6348Y3548D01*
G01X6329Y3559D01*
G01X6313Y3565D01*
G37*

%LPD*%
G36*
G01X6439Y3567D02*
G01X6414Y3567D01*
G01X6442Y3517D01*
G01X6469Y3467D01*
G01X6469Y3203D01*
G01X6493Y3217D01*
G01X6518Y3231D01*
G01X6541Y3451D01*
G01X6502Y3509D01*
G01X6485Y3532D01*
G01X6467Y3550D01*
G01X6451Y3563D01*
G01X6439Y3567D01*
G37*

%LPD*%
G36*
G01X8456Y3513D02*
G01X8503Y3540D01*
G01X8328Y3538D01*
G01X8153Y3537D01*
G01X8186Y3524D01*
G01X8220Y3511D01*
G01X8220Y3412D01*
G01X8139Y3412D01*
G01X8139Y3361D01*
G01X8220Y3361D01*
G01X8220Y3206D01*
G01X8274Y3206D01*
G01X8274Y3361D01*
G01X8382Y3361D01*
G01X8382Y3291D01*
G01X8484Y3203D01*
G01X8516Y3252D01*
G01X8476Y3284D01*
G01X8460Y3298D01*
G01X8447Y3313D01*
G01X8439Y3327D01*
G01X8435Y3338D01*
G01X8435Y3361D01*
G01X8516Y3361D01*
G01X8516Y3412D01*
G01X8409Y3412D01*
G01X8409Y3487D01*
G01X8456Y3513D01*
G37*

%LPC*%
G36*
G01X8355Y3515D02*
G01X8274Y3515D01*
G01X8274Y3412D01*
G01X8355Y3412D01*
G01X8355Y3515D01*
G37*

%LPD*%
G36*
G01X7735Y3541D02*
G01X7607Y3541D01*
G01X7480Y3540D01*
G01X7560Y3486D01*
G01X7527Y3473D01*
G01X7493Y3459D01*
G01X7493Y3335D01*
G01X7540Y3333D01*
G01X7587Y3332D01*
G01X7463Y3284D01*
G01X7480Y3257D01*
G01X7498Y3229D01*
G01X7574Y3290D01*
G01X7574Y3200D01*
G01X7621Y3219D01*
G01X7642Y3226D01*
G01X7664Y3235D01*
G01X7685Y3243D01*
G01X7702Y3250D01*
G01X7735Y3263D01*
G01X7735Y3211D01*
G01X7789Y3224D01*
G01X7823Y3236D01*
G01X7839Y3253D01*
G01X7840Y3279D01*
G01X7827Y3318D01*
G01X7812Y3357D01*
G01X7773Y3343D01*
G01X7735Y3329D01*
G01X7735Y3541D01*
G37*

%LPC*%
G36*
G01X7708Y3288D02*
G01X7707Y3399D01*
G01X7688Y3371D01*
G01X7677Y3359D01*
G01X7662Y3347D01*
G01X7645Y3337D01*
G01X7628Y3330D01*
G01X7589Y3318D01*
G01X7648Y3303D01*
G01X7708Y3288D01*
G37*
G36*
G01X7589Y3384D02*
G01X7538Y3386D01*
G01X7554Y3371D01*
G01X7570Y3355D01*
G01X7606Y3369D01*
G01X7641Y3382D01*
G01X7589Y3384D01*
G37*
G36*
G01X7665Y3513D02*
G01X7655Y3515D01*
G01X7644Y3513D01*
G01X7635Y3508D01*
G01X7630Y3500D01*
G01X7627Y3490D01*
G01X7630Y3480D01*
G01X7635Y3471D01*
G01X7644Y3466D01*
G01X7655Y3464D01*
G01X7665Y3466D01*
G01X7673Y3471D01*
G01X7679Y3480D01*
G01X7681Y3490D01*
G01X7679Y3500D01*
G01X7673Y3508D01*
G01X7665Y3513D01*
G37*

%LPD*%
G36*
G01X8867Y3567D02*
G01X8813Y3567D01*
G01X8813Y3230D01*
G01X8854Y3215D01*
G01X8896Y3200D01*
G01X8934Y3239D01*
G01X8900Y3250D01*
G01X8867Y3262D01*
G01X8867Y3567D01*
G37*

%LPD*%
M00*
M02*
