;Layer: Drill PTH
;EasyEDA v6.3.53, 2020-06-11T19:48:03+08:00
;f0918c685c5a4818851a522c051890eb,45e1048b23574a55a66a4e5d38cdb7dd,10
;Gerber Generator version 0.2
M48
INCH,LZ,00.0000
;Holesize 1 = 0.012 INCH
T01C0.012
;Holesize 2 = 0.028 INCH
T02C0.028
;Holesize 3 = 0.043 INCH
T03C0.043
;Holesize 4 = 0.047 INCH
T04C0.047
%
G05
G90
T01
X+005500Y+008100
X+003000Y+006400
X+001056Y+001200
X+006000Y+002630
X+012350Y+007600
X+008406Y+008100
X+008200Y+005493
X+009700Y+002430
X+005094Y+002630
T02
X+013229Y+004417G85X+012836Y+004417
X+013229Y+001582G85X+012836Y+001582
X+011863Y+004417G85X+011470Y+004417
X+011863Y+001582G85X+011470Y+001582
T03
X+006050Y+000900
X+007050Y+000900
X+008050Y+000900
X+009050Y+000900
T04
X+005200Y+009850
X+006200Y+009850
X+007200Y+009850
X+008200Y+009850
X+009200Y+009850
X+010200Y+009850
M30
