G04 Layer: TopSolderMaskLayer*
G04 EasyEDA v6.3.53, 2020-06-11T19:48:03+08:00*
G04 f0918c685c5a4818851a522c051890eb,45e1048b23574a55a66a4e5d38cdb7dd,10*
G04 Gerber Generator version 0.2*
G04 Scale: 100 percent, Rotated: No, Reflected: No *
G04 Dimensions in inches *
G04 leading zeros omitted , absolute positions ,2 integer and 4 decimal *
%FSLAX24Y24*%
%MOIN*%
G90*
G70D02*

%ADD30C,0.033591*%
%ADD31C,0.047370*%
%ADD34C,0.074929*%
%ADD40C,0.078866*%

%LPD*%
G54D30*
G01X8200Y6600D02*
G01X8613Y6600D01*
G01X8200Y7100D02*
G01X8613Y7100D01*
G01X8200Y7600D02*
G01X8613Y7600D01*
G01X8200Y8100D02*
G01X8613Y8100D01*
G01X5286Y6600D02*
G01X5699Y6600D01*
G01X5286Y7100D02*
G01X5699Y7100D01*
G01X5286Y7600D02*
G01X5699Y7600D01*
G01X5286Y8100D02*
G01X5699Y8100D01*
G54D31*
G01X12836Y4417D02*
G01X13229Y4417D01*
G01X12836Y1582D02*
G01X13229Y1582D01*
G01X11470Y4417D02*
G01X11863Y4417D01*
G01X11470Y1582D02*
G01X11863Y1582D01*
G36*
G01X1317Y8484D02*
G01X1317Y9115D01*
G01X1909Y9115D01*
G01X1909Y8484D01*
G01X1317Y8484D01*
G37*
G36*
G01X490Y8484D02*
G01X490Y9115D01*
G01X1082Y9115D01*
G01X1082Y8484D01*
G01X490Y8484D01*
G37*
G36*
G01X5675Y525D02*
G01X5675Y1275D01*
G01X6425Y1275D01*
G01X6425Y525D01*
G01X5675Y525D01*
G37*
G54D34*
G01X7050Y900D03*
G01X8050Y900D03*
G01X9050Y900D03*
G36*
G01X2757Y6055D02*
G01X2757Y6744D01*
G01X3230Y6744D01*
G01X3230Y6055D01*
G01X2757Y6055D01*
G37*
G36*
G01X1969Y6055D02*
G01X1969Y6744D01*
G01X2442Y6744D01*
G01X2442Y6055D01*
G01X1969Y6055D01*
G37*
G36*
G01X9380Y4419D02*
G01X9380Y4892D01*
G01X10069Y4892D01*
G01X10069Y4419D01*
G01X9380Y4419D01*
G37*
G36*
G01X9380Y5207D02*
G01X9380Y5680D01*
G01X10069Y5680D01*
G01X10069Y5207D01*
G01X9380Y5207D01*
G37*
G36*
G01X11056Y7255D02*
G01X11056Y7944D01*
G01X11531Y7944D01*
G01X11531Y7255D01*
G01X11056Y7255D01*
G37*
G36*
G01X10268Y7255D02*
G01X10268Y7944D01*
G01X10743Y7944D01*
G01X10743Y7255D01*
G01X10268Y7255D01*
G37*
G36*
G01X9364Y2134D02*
G01X9364Y2726D01*
G01X10035Y2726D01*
G01X10035Y2134D01*
G01X9364Y2134D01*
G37*
G36*
G01X9364Y3473D02*
G01X9364Y4065D01*
G01X10035Y4065D01*
G01X10035Y3473D01*
G01X9364Y3473D01*
G37*
G36*
G01X13422Y7265D02*
G01X13422Y7934D01*
G01X14014Y7934D01*
G01X14014Y7265D01*
G01X13422Y7265D01*
G37*
G36*
G01X12085Y7265D02*
G01X12085Y7934D01*
G01X12677Y7934D01*
G01X12677Y7265D01*
G01X12085Y7265D01*
G37*
G36*
G01X2669Y2355D02*
G01X2669Y3044D01*
G01X3142Y3044D01*
G01X3142Y2355D01*
G01X2669Y2355D01*
G37*
G36*
G01X3457Y2355D02*
G01X3457Y3044D01*
G01X3930Y3044D01*
G01X3930Y2355D01*
G01X3457Y2355D01*
G37*
G36*
G01X819Y3805D02*
G01X819Y4494D01*
G01X1292Y4494D01*
G01X1292Y3805D01*
G01X819Y3805D01*
G37*
G36*
G01X1607Y3805D02*
G01X1607Y4494D01*
G01X2080Y4494D01*
G01X2080Y3805D01*
G01X1607Y3805D01*
G37*
G36*
G01X2669Y855D02*
G01X2669Y1544D01*
G01X3142Y1544D01*
G01X3142Y855D01*
G01X2669Y855D01*
G37*
G36*
G01X3457Y855D02*
G01X3457Y1544D01*
G01X3930Y1544D01*
G01X3930Y855D01*
G01X3457Y855D01*
G37*
G36*
G01X2669Y3805D02*
G01X2669Y4494D01*
G01X3142Y4494D01*
G01X3142Y3805D01*
G01X2669Y3805D01*
G37*
G36*
G01X3457Y3805D02*
G01X3457Y4494D01*
G01X3930Y4494D01*
G01X3930Y3805D01*
G01X3457Y3805D01*
G37*
G36*
G01X819Y2405D02*
G01X819Y3094D01*
G01X1292Y3094D01*
G01X1292Y2405D01*
G01X819Y2405D01*
G37*
G36*
G01X1607Y2405D02*
G01X1607Y3094D01*
G01X2080Y3094D01*
G01X2080Y2405D01*
G01X1607Y2405D01*
G37*
G36*
G01X819Y855D02*
G01X819Y1544D01*
G01X1292Y1544D01*
G01X1292Y855D01*
G01X819Y855D01*
G37*
G36*
G01X1607Y855D02*
G01X1607Y1544D01*
G01X2080Y1544D01*
G01X2080Y855D01*
G01X1607Y855D01*
G37*
G36*
G01X4805Y9455D02*
G01X4805Y10244D01*
G01X5594Y10244D01*
G01X5594Y9455D01*
G01X4805Y9455D01*
G37*
G54D40*
G01X6200Y9850D03*
G01X7200Y9850D03*
G01X8200Y9850D03*
G01X9200Y9850D03*
G01X10200Y9850D03*
G36*
G01X11315Y3386D02*
G01X11315Y3636D01*
G01X12103Y3636D01*
G01X12103Y3386D01*
G01X11315Y3386D01*
G37*
G36*
G01X11315Y3130D02*
G01X11315Y3380D01*
G01X12103Y3380D01*
G01X12103Y3130D01*
G01X11315Y3130D01*
G37*
G36*
G01X11315Y2875D02*
G01X11315Y3125D01*
G01X12103Y3125D01*
G01X12103Y2875D01*
G01X11315Y2875D01*
G37*
G36*
G01X11315Y2619D02*
G01X11315Y2869D01*
G01X12103Y2869D01*
G01X12103Y2619D01*
G01X11315Y2619D01*
G37*
G36*
G01X11315Y2363D02*
G01X11315Y2613D01*
G01X12103Y2613D01*
G01X12103Y2363D01*
G01X11315Y2363D01*
G37*
G36*
G01X5271Y4596D02*
G01X5271Y5542D01*
G01X6728Y5542D01*
G01X6728Y4596D01*
G01X5271Y4596D01*
G37*
G36*
G01X6648Y2157D02*
G01X6648Y3103D01*
G01X7161Y3103D01*
G01X7161Y2157D01*
G01X6648Y2157D01*
G37*
G36*
G01X5742Y2157D02*
G01X5742Y3103D01*
G01X6256Y3103D01*
G01X6256Y2157D01*
G01X5742Y2157D01*
G37*
G36*
G01X4838Y2157D02*
G01X4838Y3103D01*
G01X5351Y3103D01*
G01X5351Y2157D01*
G01X4838Y2157D01*
G37*
G36*
G01X7855Y4469D02*
G01X7855Y4942D01*
G01X8544Y4942D01*
G01X8544Y4469D01*
G01X7855Y4469D01*
G37*
G36*
G01X7855Y5257D02*
G01X7855Y5730D01*
G01X8544Y5730D01*
G01X8544Y5257D01*
G01X7855Y5257D01*
G37*
G36*
G01X2369Y8455D02*
G01X2369Y9144D01*
G01X2842Y9144D01*
G01X2842Y8455D01*
G01X2369Y8455D01*
G37*
G36*
G01X3157Y8455D02*
G01X3157Y9144D01*
G01X3630Y9144D01*
G01X3630Y8455D01*
G01X3157Y8455D01*
G37*
M00*
M02*
