G04 Layer: TopSilkLayer*
G04 EasyEDA v6.3.53, 2020-06-11T19:48:03+08:00*
G04 f0918c685c5a4818851a522c051890eb,45e1048b23574a55a66a4e5d38cdb7dd,10*
G04 Gerber Generator version 0.2*
G04 Scale: 100 percent, Rotated: No, Reflected: No *
G04 Dimensions in inches *
G04 leading zeros omitted , absolute positions ,2 integer and 4 decimal *
%FSLAX24Y24*%
%MOIN*%
G90*
G70D02*

%ADD10C,0.010000*%
%ADD29C,0.006000*%

%LPD*%
G54D10*
G01X1374Y8399D02*
G01X1984Y8399D01*
G01X1984Y9199D01*
G01X1374Y9199D01*
G01X1064Y8389D02*
G01X484Y8389D01*
G01X324Y8549D01*
G01X324Y9049D01*
G01X474Y9199D01*
G01X1074Y9199D01*
G01X1278Y8996D02*
G01X1278Y8603D01*
G01X1239Y8800D02*
G01X1133Y8800D01*
G01X9632Y1400D02*
G01X9632Y400D01*
G01X5467Y1400D02*
G01X9632Y1400D01*
G01X6559Y1400D02*
G01X6559Y400D01*
G01X5467Y400D02*
G01X9632Y400D01*
G01X5467Y1400D02*
G01X5467Y400D01*
G01X2403Y6801D02*
G01X1911Y6801D01*
G01X2403Y5998D02*
G01X1911Y5998D01*
G01X2796Y6801D02*
G01X3288Y6801D01*
G01X2796Y5998D02*
G01X3288Y5998D01*
G01X1911Y6801D02*
G01X1911Y5998D01*
G01X3288Y6801D02*
G01X3288Y5998D01*
G01X10126Y5246D02*
G01X10126Y5738D01*
G01X9323Y5246D02*
G01X9323Y5738D01*
G01X10126Y4853D02*
G01X10126Y4361D01*
G01X9323Y4853D02*
G01X9323Y4361D01*
G01X10126Y5738D02*
G01X9323Y5738D01*
G01X10126Y4361D02*
G01X9323Y4361D01*
G01X10703Y8001D02*
G01X10211Y8001D01*
G01X10703Y7198D02*
G01X10211Y7198D01*
G01X11096Y8001D02*
G01X11588Y8001D01*
G01X11096Y7198D02*
G01X11588Y7198D01*
G01X10211Y8001D02*
G01X10211Y7198D01*
G01X11588Y8001D02*
G01X11588Y7198D01*
G01X6162Y8389D02*
G01X5906Y8389D01*
G01X6721Y8389D02*
G01X6162Y8389D01*
G01X7737Y8389D02*
G01X7186Y8389D01*
G01X7989Y8389D02*
G01X7989Y6314D01*
G01X5906Y6314D01*
G01X5906Y8389D01*
G01X7737Y8389D02*
G01X7989Y8389D01*
G01X9700Y3169D02*
G01X9860Y2940D01*
G01X9860Y2940D02*
G01X9539Y2940D01*
G01X9539Y2940D02*
G01X9700Y3169D01*
G01X10093Y3690D02*
G01X10093Y2509D01*
G01X9306Y2509D02*
G01X9306Y3690D01*
G01X9900Y3259D02*
G01X9500Y3259D01*
G01X12980Y7600D02*
G01X13210Y7759D01*
G01X13210Y7759D02*
G01X13210Y7440D01*
G01X13210Y7440D02*
G01X12980Y7600D01*
G01X12459Y7993D02*
G01X13640Y7993D01*
G01X13640Y7206D02*
G01X12459Y7206D01*
G01X12889Y7800D02*
G01X12889Y7400D01*
G01X3988Y3014D02*
G01X3988Y2385D01*
G01X2611Y3014D02*
G01X2611Y2385D01*
G01X3496Y2290D02*
G01X3910Y2290D01*
G01X3496Y3109D02*
G01X3910Y3109D01*
G01X3103Y2290D02*
G01X2689Y2290D01*
G01X3103Y3109D02*
G01X2689Y3109D01*
G01X2611Y3022D02*
G01X2611Y3014D01*
G01X2611Y3030D02*
G01X2611Y3014D01*
G01X2611Y2369D02*
G01X2611Y2385D01*
G01X3988Y3030D02*
G01X3988Y3014D01*
G01X3988Y2369D02*
G01X3988Y2385D01*
G01X2138Y4464D02*
G01X2138Y3835D01*
G01X761Y4464D02*
G01X761Y3835D01*
G01X1646Y3740D02*
G01X2060Y3740D01*
G01X1646Y4559D02*
G01X2060Y4559D01*
G01X1253Y3740D02*
G01X839Y3740D01*
G01X1253Y4559D02*
G01X839Y4559D01*
G01X761Y4472D02*
G01X761Y4464D01*
G01X761Y4480D02*
G01X761Y4464D01*
G01X761Y3819D02*
G01X761Y3835D01*
G01X2138Y4480D02*
G01X2138Y4464D01*
G01X2138Y3819D02*
G01X2138Y3835D01*
G01X3988Y1514D02*
G01X3988Y885D01*
G01X2611Y1514D02*
G01X2611Y885D01*
G01X3496Y790D02*
G01X3910Y790D01*
G01X3496Y1609D02*
G01X3910Y1609D01*
G01X3103Y790D02*
G01X2689Y790D01*
G01X3103Y1609D02*
G01X2689Y1609D01*
G01X2611Y1522D02*
G01X2611Y1514D01*
G01X2611Y1530D02*
G01X2611Y1514D01*
G01X2611Y869D02*
G01X2611Y885D01*
G01X3988Y1530D02*
G01X3988Y1514D01*
G01X3988Y869D02*
G01X3988Y885D01*
G01X3988Y4464D02*
G01X3988Y3835D01*
G01X2611Y4464D02*
G01X2611Y3835D01*
G01X3496Y3740D02*
G01X3910Y3740D01*
G01X3496Y4559D02*
G01X3910Y4559D01*
G01X3103Y3740D02*
G01X2689Y3740D01*
G01X3103Y4559D02*
G01X2689Y4559D01*
G01X2611Y4472D02*
G01X2611Y4464D01*
G01X2611Y4480D02*
G01X2611Y4464D01*
G01X2611Y3819D02*
G01X2611Y3835D01*
G01X3988Y4480D02*
G01X3988Y4464D01*
G01X3988Y3819D02*
G01X3988Y3835D01*
G01X2138Y3064D02*
G01X2138Y2435D01*
G01X761Y3064D02*
G01X761Y2435D01*
G01X1646Y2340D02*
G01X2060Y2340D01*
G01X1646Y3159D02*
G01X2060Y3159D01*
G01X1253Y2340D02*
G01X839Y2340D01*
G01X1253Y3159D02*
G01X839Y3159D01*
G01X761Y3072D02*
G01X761Y3064D01*
G01X761Y3080D02*
G01X761Y3064D01*
G01X761Y2419D02*
G01X761Y2435D01*
G01X2138Y3080D02*
G01X2138Y3064D01*
G01X2138Y2419D02*
G01X2138Y2435D01*
G01X2138Y1514D02*
G01X2138Y885D01*
G01X761Y1514D02*
G01X761Y885D01*
G01X1646Y790D02*
G01X2060Y790D01*
G01X1646Y1609D02*
G01X2060Y1609D01*
G01X1253Y790D02*
G01X839Y790D01*
G01X1253Y1609D02*
G01X839Y1609D01*
G01X761Y1522D02*
G01X761Y1514D01*
G01X761Y1530D02*
G01X761Y1514D01*
G01X761Y869D02*
G01X761Y885D01*
G01X2138Y1530D02*
G01X2138Y1514D01*
G01X2138Y869D02*
G01X2138Y885D01*
G01X4700Y10450D02*
G01X10700Y10450D01*
G01X4700Y10450D02*
G01X4700Y9250D01*
G01X10700Y9250D01*
G01X10700Y10450D01*
G01X5700Y10450D02*
G01X5700Y9250D01*
G01X11257Y4574D02*
G01X13879Y4574D01*
G01X13879Y4574D02*
G01X13879Y1425D01*
G01X11257Y1421D02*
G01X13879Y1421D01*
G01X11257Y4574D02*
G01X11257Y4082D01*
G01X11257Y1913D02*
G01X11257Y1421D01*
G01X11257Y1917D02*
G01X11907Y1917D01*
G01X11257Y4082D02*
G01X11907Y4082D01*
G01X11907Y3653D02*
G01X11907Y4082D01*
G01X11907Y1917D02*
G01X11907Y2346D01*
G01X13869Y1436D02*
G01X13991Y1315D01*
G01X14133Y1456D01*
G01X13881Y1708D01*
G01X13875Y4539D02*
G01X13997Y4661D01*
G01X14139Y4519D01*
G01X13887Y4267D01*
G01X13881Y1956D02*
G01X14113Y1956D01*
G01X14113Y4043D01*
G01X13881Y4043D01*
G01X4602Y4558D02*
G01X4602Y3141D01*
G01X7397Y4558D02*
G01X7397Y3141D01*
G01X7397Y4558D02*
G01X6734Y4558D01*
G01X5265Y4558D02*
G01X4602Y4558D01*
G01X7397Y3141D02*
G01X7167Y3141D01*
G01X6643Y3141D02*
G01X6261Y3141D01*
G01X5738Y3141D02*
G01X5356Y3141D01*
G01X4832Y3141D02*
G01X4602Y3141D01*
G01X8601Y5296D02*
G01X8601Y5788D01*
G01X7798Y5296D02*
G01X7798Y5788D01*
G01X8601Y4903D02*
G01X8601Y4411D01*
G01X7798Y4903D02*
G01X7798Y4411D01*
G01X8601Y5788D02*
G01X7798Y5788D01*
G01X8601Y4411D02*
G01X7798Y4411D01*
G01X3196Y8398D02*
G01X3688Y8398D01*
G01X3196Y9201D02*
G01X3688Y9201D01*
G01X2803Y8398D02*
G01X2311Y8398D01*
G01X2803Y9201D02*
G01X2311Y9201D01*
G01X3688Y8398D02*
G01X3688Y9201D01*
G01X2311Y8398D02*
G01X2311Y9201D01*

%LPD*%
G36*
G01X10518Y10819D02*
G01X10339Y10819D01*
G01X10335Y10761D01*
G01X10352Y10761D01*
G01X10361Y10805D01*
G01X10413Y10805D01*
G01X10413Y10761D01*
G01X10414Y10739D01*
G01X10414Y10679D01*
G01X10413Y10657D01*
G01X10413Y10615D01*
G01X10378Y10611D01*
G01X10378Y10600D01*
G01X10477Y10600D01*
G01X10477Y10611D01*
G01X10443Y10615D01*
G01X10443Y10805D01*
G01X10496Y10805D01*
G01X10505Y10761D01*
G01X10521Y10761D01*
G01X10518Y10819D01*
G37*

%LPD*%
G36*
G01X10056Y10819D02*
G01X9964Y10819D01*
G01X9964Y10809D01*
G01X9994Y10805D01*
G01X9995Y10783D01*
G01X9995Y10761D01*
G01X9996Y10739D01*
G01X9996Y10679D01*
G01X9995Y10657D01*
G01X9995Y10636D01*
G01X9994Y10615D01*
G01X9964Y10611D01*
G01X9964Y10600D01*
G01X10056Y10600D01*
G01X10056Y10611D01*
G01X10026Y10615D01*
G01X10026Y10703D01*
G01X10043Y10703D01*
G01X10060Y10701D01*
G01X10073Y10696D01*
G01X10081Y10686D01*
G01X10088Y10669D01*
G01X10102Y10617D01*
G01X10105Y10607D01*
G01X10111Y10601D01*
G01X10121Y10598D01*
G01X10135Y10596D01*
G01X10142Y10597D01*
G01X10148Y10597D01*
G01X10154Y10598D01*
G01X10160Y10600D01*
G01X10160Y10611D01*
G01X10134Y10613D01*
G01X10118Y10665D01*
G01X10112Y10681D01*
G01X10103Y10693D01*
G01X10093Y10701D01*
G01X10080Y10707D01*
G01X10104Y10714D01*
G01X10121Y10726D01*
G01X10132Y10743D01*
G01X10135Y10761D01*
G01X10130Y10786D01*
G01X10115Y10804D01*
G01X10090Y10816D01*
G01X10056Y10819D01*
G37*

%LPC*%
G36*
G01X10055Y10807D02*
G01X10026Y10807D01*
G01X10026Y10715D01*
G01X10052Y10715D01*
G01X10075Y10718D01*
G01X10092Y10728D01*
G01X10101Y10743D01*
G01X10105Y10763D01*
G01X10102Y10781D01*
G01X10093Y10795D01*
G01X10077Y10803D01*
G01X10055Y10807D01*
G37*

%LPD*%
G36*
G01X10271Y10823D02*
G01X10255Y10825D01*
G01X10226Y10821D01*
G01X10203Y10809D01*
G01X10187Y10790D01*
G01X10181Y10765D01*
G01X10186Y10742D01*
G01X10197Y10724D01*
G01X10215Y10710D01*
G01X10239Y10698D01*
G01X10251Y10694D01*
G01X10270Y10685D01*
G01X10283Y10675D01*
G01X10290Y10664D01*
G01X10293Y10651D01*
G01X10289Y10633D01*
G01X10278Y10620D01*
G01X10261Y10612D01*
G01X10239Y10609D01*
G01X10221Y10611D01*
G01X10213Y10614D01*
G01X10206Y10617D01*
G01X10197Y10659D01*
G01X10180Y10659D01*
G01X10177Y10613D01*
G01X10190Y10605D01*
G01X10206Y10600D01*
G01X10223Y10596D01*
G01X10242Y10594D01*
G01X10273Y10599D01*
G01X10298Y10611D01*
G01X10314Y10631D01*
G01X10319Y10657D01*
G01X10316Y10678D01*
G01X10306Y10696D01*
G01X10287Y10710D01*
G01X10260Y10723D01*
G01X10246Y10728D01*
G01X10230Y10736D01*
G01X10218Y10746D01*
G01X10211Y10757D01*
G01X10209Y10771D01*
G01X10212Y10788D01*
G01X10222Y10800D01*
G01X10236Y10808D01*
G01X10255Y10811D01*
G01X10262Y10810D01*
G01X10268Y10809D01*
G01X10275Y10807D01*
G01X10281Y10803D01*
G01X10289Y10765D01*
G01X10306Y10765D01*
G01X10309Y10807D01*
G01X10297Y10814D01*
G01X10285Y10820D01*
G01X10271Y10823D01*
G37*

%LPD*%

%LPD*%
G36*
G01X9421Y10823D02*
G01X9402Y10823D01*
G01X9305Y10684D01*
G01X9305Y10667D01*
G01X9393Y10667D01*
G01X9393Y10600D01*
G01X9421Y10600D01*
G01X9421Y10667D01*
G01X9455Y10667D01*
G01X9455Y10688D01*
G01X9421Y10688D01*
G01X9421Y10823D01*
G37*

%LPC*%
G36*
G01X9393Y10688D02*
G01X9393Y10792D01*
G01X9322Y10688D01*
G01X9393Y10688D01*
G37*

%LPD*%
G36*
G01X9198Y10819D02*
G01X9105Y10819D01*
G01X9105Y10809D01*
G01X9135Y10805D01*
G01X9135Y10615D01*
G01X9105Y10611D01*
G01X9105Y10600D01*
G01X9194Y10600D01*
G01X9235Y10605D01*
G01X9262Y10618D01*
G01X9277Y10638D01*
G01X9281Y10659D01*
G01X9278Y10679D01*
G01X9267Y10695D01*
G01X9247Y10707D01*
G01X9218Y10715D01*
G01X9242Y10722D01*
G01X9258Y10734D01*
G01X9268Y10749D01*
G01X9271Y10765D01*
G01X9266Y10788D01*
G01X9252Y10805D01*
G01X9230Y10815D01*
G01X9198Y10819D01*
G37*

%LPC*%
G36*
G01X9185Y10707D02*
G01X9165Y10707D01*
G01X9165Y10682D01*
G01X9166Y10658D01*
G01X9166Y10635D01*
G01X9167Y10613D01*
G01X9189Y10613D01*
G01X9215Y10616D01*
G01X9235Y10625D01*
G01X9247Y10640D01*
G01X9251Y10659D01*
G01X9247Y10680D01*
G01X9235Y10695D01*
G01X9214Y10703D01*
G01X9185Y10707D01*
G37*
G36*
G01X9189Y10807D02*
G01X9167Y10807D01*
G01X9166Y10785D01*
G01X9166Y10764D01*
G01X9165Y10742D01*
G01X9165Y10721D01*
G01X9184Y10721D01*
G01X9209Y10723D01*
G01X9227Y10731D01*
G01X9237Y10745D01*
G01X9240Y10765D01*
G01X9238Y10784D01*
G01X9228Y10797D01*
G01X9212Y10804D01*
G01X9189Y10807D01*
G37*

%LPD*%
G36*
G01X9002Y10819D02*
G01X8914Y10819D01*
G01X8914Y10809D01*
G01X8944Y10805D01*
G01X8945Y10783D01*
G01X8945Y10761D01*
G01X8946Y10739D01*
G01X8946Y10679D01*
G01X8945Y10657D01*
G01X8945Y10636D01*
G01X8944Y10615D01*
G01X8914Y10611D01*
G01X8914Y10600D01*
G01X9007Y10600D01*
G01X9007Y10611D01*
G01X8977Y10615D01*
G01X8976Y10633D01*
G01X8976Y10688D01*
G01X8993Y10688D01*
G01X9035Y10693D01*
G01X9064Y10707D01*
G01X9080Y10728D01*
G01X9085Y10755D01*
G01X9080Y10781D01*
G01X9064Y10802D01*
G01X9039Y10815D01*
G01X9002Y10819D01*
G37*

%LPC*%
G36*
G01X8997Y10807D02*
G01X8977Y10807D01*
G01X8976Y10784D01*
G01X8976Y10701D01*
G01X8997Y10701D01*
G01X9023Y10705D01*
G01X9041Y10715D01*
G01X9051Y10732D01*
G01X9055Y10755D01*
G01X9051Y10776D01*
G01X9041Y10793D01*
G01X9023Y10803D01*
G01X8997Y10807D01*
G37*

%LPD*%

%LPD*%
G36*
G01X8198Y10819D02*
G01X8105Y10819D01*
G01X8105Y10809D01*
G01X8135Y10805D01*
G01X8135Y10615D01*
G01X8105Y10611D01*
G01X8105Y10600D01*
G01X8194Y10600D01*
G01X8235Y10605D01*
G01X8262Y10618D01*
G01X8277Y10638D01*
G01X8281Y10659D01*
G01X8278Y10679D01*
G01X8267Y10695D01*
G01X8247Y10707D01*
G01X8218Y10715D01*
G01X8242Y10722D01*
G01X8258Y10734D01*
G01X8268Y10749D01*
G01X8271Y10765D01*
G01X8266Y10788D01*
G01X8252Y10805D01*
G01X8230Y10815D01*
G01X8198Y10819D01*
G37*

%LPC*%
G36*
G01X8185Y10707D02*
G01X8165Y10707D01*
G01X8165Y10682D01*
G01X8166Y10658D01*
G01X8166Y10635D01*
G01X8167Y10613D01*
G01X8189Y10613D01*
G01X8215Y10616D01*
G01X8235Y10625D01*
G01X8247Y10640D01*
G01X8251Y10659D01*
G01X8247Y10680D01*
G01X8235Y10695D01*
G01X8214Y10703D01*
G01X8185Y10707D01*
G37*
G36*
G01X8189Y10807D02*
G01X8167Y10807D01*
G01X8166Y10785D01*
G01X8166Y10764D01*
G01X8165Y10742D01*
G01X8165Y10721D01*
G01X8184Y10721D01*
G01X8209Y10723D01*
G01X8227Y10731D01*
G01X8237Y10745D01*
G01X8240Y10765D01*
G01X8238Y10784D01*
G01X8228Y10797D01*
G01X8212Y10804D01*
G01X8189Y10807D01*
G37*

%LPD*%
G36*
G01X8002Y10819D02*
G01X7914Y10819D01*
G01X7914Y10809D01*
G01X7944Y10805D01*
G01X7945Y10783D01*
G01X7945Y10761D01*
G01X7946Y10739D01*
G01X7946Y10679D01*
G01X7945Y10657D01*
G01X7945Y10636D01*
G01X7944Y10615D01*
G01X7914Y10611D01*
G01X7914Y10600D01*
G01X8007Y10600D01*
G01X8007Y10611D01*
G01X7977Y10615D01*
G01X7976Y10633D01*
G01X7976Y10688D01*
G01X7993Y10688D01*
G01X8035Y10693D01*
G01X8064Y10707D01*
G01X8080Y10728D01*
G01X8085Y10755D01*
G01X8080Y10781D01*
G01X8064Y10802D01*
G01X8039Y10815D01*
G01X8002Y10819D01*
G37*

%LPC*%
G36*
G01X7997Y10807D02*
G01X7977Y10807D01*
G01X7976Y10784D01*
G01X7976Y10701D01*
G01X7997Y10701D01*
G01X8023Y10705D01*
G01X8041Y10715D01*
G01X8051Y10732D01*
G01X8055Y10755D01*
G01X8051Y10776D01*
G01X8041Y10793D01*
G01X8023Y10803D01*
G01X7997Y10807D01*
G37*

%LPD*%
G36*
G01X8403Y10820D02*
G01X8377Y10823D01*
G01X8356Y10821D01*
G01X8338Y10813D01*
G01X8323Y10800D01*
G01X8315Y10782D01*
G01X8318Y10776D01*
G01X8322Y10773D01*
G01X8327Y10771D01*
G01X8331Y10771D01*
G01X8338Y10772D01*
G01X8343Y10775D01*
G01X8347Y10782D01*
G01X8350Y10790D01*
G01X8356Y10809D01*
G01X8360Y10810D01*
G01X8364Y10810D01*
G01X8368Y10811D01*
G01X8372Y10811D01*
G01X8388Y10808D01*
G01X8401Y10800D01*
G01X8409Y10787D01*
G01X8411Y10769D01*
G01X8408Y10749D01*
G01X8399Y10735D01*
G01X8384Y10726D01*
G01X8364Y10723D01*
G01X8352Y10723D01*
G01X8352Y10709D01*
G01X8367Y10709D01*
G01X8389Y10705D01*
G01X8405Y10695D01*
G01X8414Y10679D01*
G01X8418Y10659D01*
G01X8414Y10638D01*
G01X8405Y10622D01*
G01X8389Y10611D01*
G01X8368Y10607D01*
G01X8364Y10608D01*
G01X8359Y10608D01*
G01X8354Y10609D01*
G01X8350Y10611D01*
G01X8343Y10630D01*
G01X8340Y10639D01*
G01X8337Y10646D01*
G01X8332Y10650D01*
G01X8326Y10651D01*
G01X8321Y10651D01*
G01X8316Y10649D01*
G01X8313Y10646D01*
G01X8310Y10640D01*
G01X8317Y10620D01*
G01X8331Y10606D01*
G01X8350Y10598D01*
G01X8372Y10596D01*
G01X8403Y10600D01*
G01X8426Y10613D01*
G01X8441Y10633D01*
G01X8447Y10657D01*
G01X8443Y10678D01*
G01X8434Y10695D01*
G01X8417Y10708D01*
G01X8393Y10715D01*
G01X8413Y10724D01*
G01X8428Y10737D01*
G01X8436Y10752D01*
G01X8439Y10771D01*
G01X8435Y10792D01*
G01X8423Y10809D01*
G01X8403Y10820D01*
G37*

%LPD*%

%LPD*%
G36*
G01X7432Y10819D02*
G01X7340Y10819D01*
G01X7340Y10809D01*
G01X7372Y10805D01*
G01X7372Y10615D01*
G01X7340Y10611D01*
G01X7340Y10600D01*
G01X7432Y10600D01*
G01X7432Y10611D01*
G01X7402Y10615D01*
G01X7402Y10676D01*
G01X7434Y10715D01*
G01X7489Y10615D01*
G01X7460Y10611D01*
G01X7460Y10600D01*
G01X7544Y10600D01*
G01X7544Y10611D01*
G01X7519Y10613D01*
G01X7452Y10736D01*
G01X7507Y10805D01*
G01X7539Y10809D01*
G01X7539Y10819D01*
G01X7464Y10819D01*
G01X7464Y10809D01*
G01X7489Y10803D01*
G01X7402Y10694D01*
G01X7402Y10805D01*
G01X7432Y10809D01*
G01X7432Y10819D01*
G37*

%LPD*%
G36*
G01X7260Y10824D02*
G01X7246Y10825D01*
G01X7222Y10822D01*
G01X7201Y10816D01*
G01X7182Y10806D01*
G01X7166Y10792D01*
G01X7153Y10775D01*
G01X7143Y10756D01*
G01X7137Y10734D01*
G01X7135Y10709D01*
G01X7136Y10685D01*
G01X7143Y10663D01*
G01X7152Y10643D01*
G01X7165Y10626D01*
G01X7181Y10613D01*
G01X7200Y10603D01*
G01X7222Y10597D01*
G01X7246Y10594D01*
G01X7280Y10598D01*
G01X7296Y10603D01*
G01X7311Y10611D01*
G01X7313Y10659D01*
G01X7294Y10659D01*
G01X7286Y10617D01*
G01X7277Y10614D01*
G01X7267Y10611D01*
G01X7258Y10610D01*
G01X7248Y10609D01*
G01X7231Y10611D01*
G01X7216Y10616D01*
G01X7202Y10624D01*
G01X7191Y10635D01*
G01X7181Y10649D01*
G01X7174Y10666D01*
G01X7170Y10686D01*
G01X7168Y10709D01*
G01X7170Y10733D01*
G01X7175Y10753D01*
G01X7182Y10771D01*
G01X7192Y10785D01*
G01X7204Y10796D01*
G01X7218Y10804D01*
G01X7233Y10809D01*
G01X7250Y10811D01*
G01X7258Y10810D01*
G01X7266Y10808D01*
G01X7275Y10806D01*
G01X7284Y10803D01*
G01X7292Y10761D01*
G01X7310Y10761D01*
G01X7309Y10809D01*
G01X7293Y10816D01*
G01X7276Y10821D01*
G01X7260Y10824D01*
G37*

%LPD*%
G36*
G01X7056Y10823D02*
G01X7040Y10825D01*
G01X7012Y10821D01*
G01X6989Y10809D01*
G01X6973Y10790D01*
G01X6968Y10765D01*
G01X6972Y10742D01*
G01X6983Y10724D01*
G01X7001Y10710D01*
G01X7025Y10698D01*
G01X7036Y10694D01*
G01X7055Y10685D01*
G01X7068Y10675D01*
G01X7075Y10664D01*
G01X7077Y10651D01*
G01X7074Y10633D01*
G01X7064Y10620D01*
G01X7047Y10612D01*
G01X7026Y10609D01*
G01X7016Y10610D01*
G01X7007Y10611D01*
G01X6999Y10614D01*
G01X6990Y10617D01*
G01X6982Y10659D01*
G01X6965Y10659D01*
G01X6964Y10613D01*
G01X6976Y10605D01*
G01X6992Y10600D01*
G01X7009Y10596D01*
G01X7027Y10594D01*
G01X7059Y10599D01*
G01X7083Y10611D01*
G01X7099Y10631D01*
G01X7105Y10657D01*
G01X7101Y10678D01*
G01X7091Y10696D01*
G01X7072Y10710D01*
G01X7044Y10723D01*
G01X7031Y10728D01*
G01X7016Y10736D01*
G01X7004Y10746D01*
G01X6997Y10757D01*
G01X6994Y10771D01*
G01X6998Y10788D01*
G01X7008Y10800D01*
G01X7022Y10808D01*
G01X7040Y10811D01*
G01X7048Y10810D01*
G01X7054Y10809D01*
G01X7061Y10807D01*
G01X7068Y10803D01*
G01X7076Y10765D01*
G01X7093Y10765D01*
G01X7094Y10807D01*
G01X7083Y10814D01*
G01X7071Y10820D01*
G01X7056Y10823D01*
G37*

%LPD*%

%LPD*%
G36*
G01X6252Y10819D02*
G01X6160Y10819D01*
G01X6160Y10809D01*
G01X6190Y10805D01*
G01X6191Y10783D01*
G01X6191Y10761D01*
G01X6192Y10739D01*
G01X6192Y10679D01*
G01X6191Y10657D01*
G01X6191Y10636D01*
G01X6190Y10615D01*
G01X6160Y10611D01*
G01X6160Y10600D01*
G01X6252Y10600D01*
G01X6252Y10611D01*
G01X6222Y10615D01*
G01X6222Y10805D01*
G01X6252Y10809D01*
G01X6252Y10819D01*
G37*

%LPD*%
G36*
G01X5922Y10819D02*
G01X5863Y10819D01*
G01X5863Y10809D01*
G01X5893Y10805D01*
G01X5892Y10615D01*
G01X5863Y10611D01*
G01X5863Y10600D01*
G01X5935Y10600D01*
G01X5935Y10611D01*
G01X5907Y10615D01*
G01X5907Y10727D01*
G01X5906Y10743D01*
G01X5906Y10788D01*
G01X5982Y10600D01*
G01X5997Y10600D01*
G01X6071Y10788D01*
G01X6069Y10701D01*
G01X6069Y10615D01*
G01X6040Y10611D01*
G01X6040Y10600D01*
G01X6131Y10600D01*
G01X6131Y10611D01*
G01X6101Y10615D01*
G01X6100Y10636D01*
G01X6100Y10783D01*
G01X6101Y10805D01*
G01X6131Y10809D01*
G01X6131Y10819D01*
G01X6068Y10819D01*
G01X5997Y10636D01*
G01X5922Y10819D01*
G37*

%LPD*%
G36*
G01X6572Y10823D02*
G01X6552Y10825D01*
G01X6534Y10823D01*
G01X6515Y10817D01*
G01X6498Y10807D01*
G01X6483Y10794D01*
G01X6471Y10778D01*
G01X6461Y10758D01*
G01X6455Y10735D01*
G01X6452Y10709D01*
G01X6455Y10683D01*
G01X6461Y10660D01*
G01X6471Y10640D01*
G01X6483Y10624D01*
G01X6498Y10611D01*
G01X6515Y10602D01*
G01X6533Y10596D01*
G01X6552Y10594D01*
G01X6572Y10596D01*
G01X6590Y10602D01*
G01X6607Y10612D01*
G01X6622Y10625D01*
G01X6635Y10642D01*
G01X6644Y10661D01*
G01X6650Y10684D01*
G01X6652Y10709D01*
G01X6650Y10736D01*
G01X6644Y10759D01*
G01X6634Y10778D01*
G01X6622Y10795D01*
G01X6606Y10808D01*
G01X6590Y10817D01*
G01X6572Y10823D01*
G37*

%LPC*%
G36*
G01X6568Y10808D02*
G01X6552Y10811D01*
G01X6536Y10808D01*
G01X6523Y10802D01*
G01X6511Y10792D01*
G01X6502Y10780D01*
G01X6495Y10764D01*
G01X6490Y10747D01*
G01X6488Y10729D01*
G01X6486Y10709D01*
G01X6488Y10690D01*
G01X6490Y10672D01*
G01X6495Y10655D01*
G01X6502Y10640D01*
G01X6511Y10627D01*
G01X6523Y10617D01*
G01X6536Y10611D01*
G01X6552Y10609D01*
G01X6568Y10611D01*
G01X6582Y10617D01*
G01X6593Y10627D01*
G01X6603Y10640D01*
G01X6610Y10655D01*
G01X6615Y10672D01*
G01X6618Y10690D01*
G01X6618Y10729D01*
G01X6615Y10747D01*
G01X6610Y10764D01*
G01X6603Y10780D01*
G01X6593Y10792D01*
G01X6582Y10802D01*
G01X6568Y10808D01*
G37*

%LPD*%
G36*
G01X6374Y10823D02*
G01X6359Y10825D01*
G01X6330Y10821D01*
G01X6307Y10809D01*
G01X6291Y10790D01*
G01X6285Y10765D01*
G01X6289Y10742D01*
G01X6301Y10724D01*
G01X6319Y10710D01*
G01X6343Y10698D01*
G01X6355Y10694D01*
G01X6373Y10685D01*
G01X6386Y10675D01*
G01X6393Y10664D01*
G01X6396Y10651D01*
G01X6392Y10633D01*
G01X6381Y10620D01*
G01X6365Y10612D01*
G01X6343Y10609D01*
G01X6325Y10611D01*
G01X6309Y10617D01*
G01X6301Y10659D01*
G01X6284Y10659D01*
G01X6281Y10613D01*
G01X6294Y10605D01*
G01X6310Y10600D01*
G01X6327Y10596D01*
G01X6346Y10594D01*
G01X6377Y10599D01*
G01X6401Y10611D01*
G01X6417Y10631D01*
G01X6422Y10657D01*
G01X6419Y10678D01*
G01X6409Y10696D01*
G01X6390Y10710D01*
G01X6363Y10723D01*
G01X6350Y10728D01*
G01X6334Y10736D01*
G01X6322Y10746D01*
G01X6315Y10757D01*
G01X6313Y10771D01*
G01X6316Y10788D01*
G01X6325Y10800D01*
G01X6340Y10808D01*
G01X6359Y10811D01*
G01X6366Y10810D01*
G01X6372Y10809D01*
G01X6379Y10807D01*
G01X6385Y10803D01*
G01X6393Y10765D01*
G01X6410Y10765D01*
G01X6413Y10807D01*
G01X6401Y10814D01*
G01X6389Y10820D01*
G01X6374Y10823D01*
G37*

%LPD*%

%LPD*%
G36*
G01X5644Y10819D02*
G01X5551Y10819D01*
G01X5551Y10809D01*
G01X5582Y10805D01*
G01X5582Y10615D01*
G01X5551Y10611D01*
G01X5551Y10600D01*
G01X5644Y10600D01*
G01X5644Y10611D01*
G01X5613Y10615D01*
G01X5613Y10805D01*
G01X5644Y10809D01*
G01X5644Y10819D01*
G37*

%LPD*%
G36*
G01X4923Y10819D02*
G01X4863Y10819D01*
G01X4863Y10809D01*
G01X4892Y10805D01*
G01X4892Y10615D01*
G01X4863Y10611D01*
G01X4863Y10600D01*
G01X4936Y10600D01*
G01X4936Y10611D01*
G01X4907Y10615D01*
G01X4907Y10743D01*
G01X4906Y10765D01*
G01X4905Y10788D01*
G01X4982Y10600D01*
G01X4996Y10600D01*
G01X5071Y10788D01*
G01X5069Y10701D01*
G01X5069Y10615D01*
G01X5040Y10611D01*
G01X5040Y10600D01*
G01X5130Y10600D01*
G01X5130Y10611D01*
G01X5101Y10615D01*
G01X5100Y10636D01*
G01X5100Y10783D01*
G01X5101Y10805D01*
G01X5130Y10809D01*
G01X5130Y10819D01*
G01X5067Y10819D01*
G01X4996Y10636D01*
G01X4923Y10819D01*
G37*

%LPD*%
G36*
G01X5477Y10823D02*
G01X5461Y10825D01*
G01X5432Y10821D01*
G01X5409Y10809D01*
G01X5394Y10790D01*
G01X5388Y10765D01*
G01X5392Y10742D01*
G01X5404Y10724D01*
G01X5421Y10710D01*
G01X5444Y10698D01*
G01X5457Y10694D01*
G01X5476Y10685D01*
G01X5489Y10675D01*
G01X5496Y10664D01*
G01X5498Y10651D01*
G01X5495Y10633D01*
G01X5484Y10620D01*
G01X5467Y10612D01*
G01X5446Y10609D01*
G01X5436Y10610D01*
G01X5427Y10611D01*
G01X5411Y10617D01*
G01X5403Y10659D01*
G01X5386Y10659D01*
G01X5384Y10613D01*
G01X5397Y10605D01*
G01X5413Y10600D01*
G01X5430Y10596D01*
G01X5448Y10594D01*
G01X5480Y10599D01*
G01X5504Y10611D01*
G01X5520Y10631D01*
G01X5526Y10657D01*
G01X5522Y10678D01*
G01X5512Y10696D01*
G01X5494Y10710D01*
G01X5465Y10723D01*
G01X5453Y10728D01*
G01X5436Y10736D01*
G01X5425Y10746D01*
G01X5418Y10757D01*
G01X5415Y10771D01*
G01X5419Y10788D01*
G01X5428Y10800D01*
G01X5442Y10808D01*
G01X5461Y10811D01*
G01X5475Y10809D01*
G01X5482Y10807D01*
G01X5488Y10803D01*
G01X5496Y10765D01*
G01X5513Y10765D01*
G01X5515Y10807D01*
G01X5504Y10814D01*
G01X5491Y10820D01*
G01X5477Y10823D01*
G37*

%LPD*%
G36*
G01X5273Y10823D02*
G01X5255Y10825D01*
G01X5235Y10823D01*
G01X5217Y10817D01*
G01X5200Y10807D01*
G01X5185Y10794D01*
G01X5173Y10778D01*
G01X5163Y10758D01*
G01X5157Y10735D01*
G01X5155Y10709D01*
G01X5157Y10683D01*
G01X5163Y10660D01*
G01X5173Y10640D01*
G01X5185Y10624D01*
G01X5200Y10611D01*
G01X5217Y10602D01*
G01X5235Y10596D01*
G01X5255Y10594D01*
G01X5274Y10596D01*
G01X5292Y10602D01*
G01X5309Y10612D01*
G01X5324Y10625D01*
G01X5336Y10642D01*
G01X5346Y10661D01*
G01X5352Y10684D01*
G01X5355Y10709D01*
G01X5352Y10736D01*
G01X5346Y10759D01*
G01X5336Y10778D01*
G01X5324Y10795D01*
G01X5309Y10808D01*
G01X5292Y10817D01*
G01X5273Y10823D01*
G37*

%LPC*%
G36*
G01X5271Y10808D02*
G01X5255Y10811D01*
G01X5238Y10808D01*
G01X5225Y10802D01*
G01X5213Y10792D01*
G01X5204Y10780D01*
G01X5196Y10764D01*
G01X5192Y10747D01*
G01X5188Y10729D01*
G01X5188Y10690D01*
G01X5192Y10672D01*
G01X5196Y10655D01*
G01X5204Y10640D01*
G01X5213Y10627D01*
G01X5225Y10617D01*
G01X5238Y10611D01*
G01X5255Y10609D01*
G01X5271Y10611D01*
G01X5284Y10617D01*
G01X5296Y10627D01*
G01X5305Y10640D01*
G01X5312Y10655D01*
G01X5317Y10672D01*
G01X5319Y10690D01*
G01X5321Y10709D01*
G01X5319Y10729D01*
G01X5317Y10747D01*
G01X5312Y10764D01*
G01X5305Y10780D01*
G01X5296Y10792D01*
G01X5284Y10802D01*
G01X5271Y10808D01*
G37*

%LPD*%

%LPD*%
G36*
G01X9322Y1719D02*
G01X9227Y1719D01*
G01X9227Y1709D01*
G01X9257Y1705D01*
G01X9257Y1515D01*
G01X9227Y1511D01*
G01X9227Y1500D01*
G01X9317Y1500D01*
G01X9340Y1501D01*
G01X9361Y1507D01*
G01X9381Y1515D01*
G01X9397Y1528D01*
G01X9411Y1544D01*
G01X9421Y1562D01*
G01X9427Y1584D01*
G01X9430Y1609D01*
G01X9427Y1635D01*
G01X9422Y1657D01*
G01X9413Y1676D01*
G01X9400Y1691D01*
G01X9385Y1703D01*
G01X9366Y1712D01*
G01X9346Y1718D01*
G01X9322Y1719D01*
G37*

%LPC*%
G36*
G01X9318Y1707D02*
G01X9289Y1707D01*
G01X9288Y1684D01*
G01X9288Y1535D01*
G01X9289Y1513D01*
G01X9314Y1513D01*
G01X9333Y1514D01*
G01X9349Y1519D01*
G01X9363Y1527D01*
G01X9375Y1538D01*
G01X9384Y1552D01*
G01X9390Y1569D01*
G01X9394Y1588D01*
G01X9396Y1609D01*
G01X9394Y1632D01*
G01X9390Y1651D01*
G01X9384Y1668D01*
G01X9375Y1682D01*
G01X9364Y1692D01*
G01X9350Y1700D01*
G01X9335Y1705D01*
G01X9318Y1707D01*
G37*

%LPD*%
G36*
G01X9039Y1719D02*
G01X8988Y1719D01*
G01X8988Y1709D01*
G01X9011Y1705D01*
G01X9014Y1701D01*
G01X9014Y1515D01*
G01X8986Y1511D01*
G01X8986Y1500D01*
G01X9064Y1500D01*
G01X9064Y1511D01*
G01X9028Y1515D01*
G01X9028Y1682D01*
G01X9163Y1498D01*
G01X9173Y1498D01*
G01X9175Y1705D01*
G01X9202Y1709D01*
G01X9202Y1719D01*
G01X9125Y1719D01*
G01X9125Y1709D01*
G01X9160Y1703D01*
G01X9160Y1551D01*
G01X9039Y1719D01*
G37*

%LPD*%
G36*
G01X8897Y1723D02*
G01X8877Y1725D01*
G01X8854Y1722D01*
G01X8832Y1716D01*
G01X8813Y1706D01*
G01X8797Y1692D01*
G01X8784Y1675D01*
G01X8774Y1656D01*
G01X8768Y1634D01*
G01X8765Y1609D01*
G01X8768Y1585D01*
G01X8773Y1563D01*
G01X8783Y1544D01*
G01X8796Y1527D01*
G01X8812Y1513D01*
G01X8831Y1503D01*
G01X8853Y1497D01*
G01X8877Y1494D01*
G01X8896Y1496D01*
G01X8914Y1500D01*
G01X8931Y1505D01*
G01X8947Y1513D01*
G01X8947Y1528D01*
G01X8948Y1545D01*
G01X8948Y1590D01*
G01X8968Y1592D01*
G01X8968Y1605D01*
G01X8884Y1605D01*
G01X8884Y1592D01*
G01X8918Y1590D01*
G01X8918Y1515D01*
G01X8910Y1513D01*
G01X8900Y1511D01*
G01X8891Y1510D01*
G01X8881Y1509D01*
G01X8864Y1511D01*
G01X8847Y1516D01*
G01X8834Y1525D01*
G01X8822Y1536D01*
G01X8812Y1550D01*
G01X8805Y1567D01*
G01X8801Y1587D01*
G01X8800Y1609D01*
G01X8801Y1632D01*
G01X8806Y1652D01*
G01X8813Y1669D01*
G01X8822Y1684D01*
G01X8834Y1696D01*
G01X8848Y1704D01*
G01X8864Y1709D01*
G01X8881Y1711D01*
G01X8891Y1710D01*
G01X8900Y1708D01*
G01X8909Y1705D01*
G01X8918Y1701D01*
G01X8926Y1659D01*
G01X8943Y1659D01*
G01X8943Y1709D01*
G01X8929Y1716D01*
G01X8914Y1721D01*
G01X8897Y1723D01*
G37*

%LPD*%

%LPD*%
G36*
G01X8228Y1688D02*
G01X8211Y1688D01*
G01X8211Y1615D01*
G01X8143Y1615D01*
G01X8143Y1601D01*
G01X8211Y1601D01*
G01X8211Y1526D01*
G01X8228Y1526D01*
G01X8228Y1601D01*
G01X8297Y1601D01*
G01X8297Y1615D01*
G01X8228Y1615D01*
G01X8228Y1688D01*
G37*

%LPD*%
G36*
G01X8010Y1719D02*
G01X7914Y1719D01*
G01X7914Y1709D01*
G01X7944Y1705D01*
G01X7945Y1683D01*
G01X7945Y1661D01*
G01X7946Y1639D01*
G01X7946Y1581D01*
G01X7945Y1558D01*
G01X7945Y1536D01*
G01X7944Y1515D01*
G01X7914Y1511D01*
G01X7914Y1500D01*
G01X8003Y1500D01*
G01X8027Y1501D01*
G01X8049Y1507D01*
G01X8068Y1515D01*
G01X8085Y1528D01*
G01X8098Y1544D01*
G01X8108Y1562D01*
G01X8114Y1584D01*
G01X8117Y1609D01*
G01X8114Y1635D01*
G01X8109Y1657D01*
G01X8100Y1676D01*
G01X8087Y1691D01*
G01X8072Y1703D01*
G01X8053Y1712D01*
G01X8032Y1718D01*
G01X8010Y1719D01*
G37*

%LPC*%
G36*
G01X8005Y1707D02*
G01X7976Y1707D01*
G01X7976Y1513D01*
G01X8002Y1513D01*
G01X8020Y1514D01*
G01X8036Y1519D01*
G01X8051Y1527D01*
G01X8062Y1538D01*
G01X8071Y1552D01*
G01X8077Y1569D01*
G01X8081Y1588D01*
G01X8082Y1609D01*
G01X8081Y1632D01*
G01X8077Y1651D01*
G01X8071Y1668D01*
G01X8062Y1682D01*
G01X8051Y1692D01*
G01X8038Y1700D01*
G01X8022Y1705D01*
G01X8005Y1707D01*
G37*

%LPD*%

%LPD*%
G36*
G01X7272Y1592D02*
G01X7196Y1592D01*
G01X7196Y1573D01*
G01X7272Y1573D01*
G01X7272Y1592D01*
G37*

%LPD*%
G36*
G01X7060Y1719D02*
G01X6964Y1719D01*
G01X6964Y1709D01*
G01X6994Y1705D01*
G01X6995Y1683D01*
G01X6995Y1661D01*
G01X6996Y1639D01*
G01X6996Y1581D01*
G01X6995Y1558D01*
G01X6995Y1536D01*
G01X6994Y1515D01*
G01X6964Y1511D01*
G01X6964Y1500D01*
G01X7053Y1500D01*
G01X7077Y1501D01*
G01X7099Y1507D01*
G01X7118Y1515D01*
G01X7135Y1528D01*
G01X7148Y1544D01*
G01X7158Y1562D01*
G01X7164Y1584D01*
G01X7167Y1609D01*
G01X7164Y1635D01*
G01X7159Y1657D01*
G01X7150Y1676D01*
G01X7137Y1691D01*
G01X7122Y1703D01*
G01X7103Y1712D01*
G01X7082Y1718D01*
G01X7060Y1719D01*
G37*

%LPC*%
G36*
G01X7055Y1707D02*
G01X7026Y1707D01*
G01X7026Y1513D01*
G01X7052Y1513D01*
G01X7070Y1514D01*
G01X7086Y1519D01*
G01X7101Y1527D01*
G01X7112Y1538D01*
G01X7121Y1552D01*
G01X7127Y1569D01*
G01X7131Y1588D01*
G01X7132Y1609D01*
G01X7131Y1632D01*
G01X7127Y1651D01*
G01X7121Y1668D01*
G01X7112Y1682D01*
G01X7101Y1692D01*
G01X7088Y1700D01*
G01X7072Y1705D01*
G01X7055Y1707D01*
G37*

%LPD*%

%LPD*%
G36*
G01X5863Y1719D02*
G01X5774Y1719D01*
G01X5774Y1709D01*
G01X5799Y1705D01*
G01X5876Y1498D01*
G01X5890Y1498D01*
G01X5959Y1705D01*
G01X5987Y1709D01*
G01X5987Y1719D01*
G01X5912Y1719D01*
G01X5912Y1707D01*
G01X5942Y1703D01*
G01X5889Y1538D01*
G01X5831Y1705D01*
G01X5863Y1707D01*
G01X5863Y1719D01*
G37*

%LPD*%
G36*
G01X6325Y1724D02*
G01X6310Y1725D01*
G01X6287Y1722D01*
G01X6266Y1716D01*
G01X6247Y1706D01*
G01X6231Y1692D01*
G01X6217Y1675D01*
G01X6207Y1656D01*
G01X6201Y1634D01*
G01X6199Y1609D01*
G01X6201Y1585D01*
G01X6207Y1563D01*
G01X6217Y1543D01*
G01X6230Y1526D01*
G01X6246Y1513D01*
G01X6265Y1503D01*
G01X6286Y1497D01*
G01X6310Y1494D01*
G01X6328Y1496D01*
G01X6344Y1498D01*
G01X6361Y1503D01*
G01X6376Y1511D01*
G01X6377Y1559D01*
G01X6359Y1559D01*
G01X6351Y1517D01*
G01X6341Y1514D01*
G01X6332Y1511D01*
G01X6322Y1510D01*
G01X6313Y1509D01*
G01X6296Y1511D01*
G01X6281Y1516D01*
G01X6267Y1524D01*
G01X6256Y1535D01*
G01X6246Y1549D01*
G01X6239Y1566D01*
G01X6235Y1586D01*
G01X6233Y1609D01*
G01X6235Y1633D01*
G01X6239Y1653D01*
G01X6247Y1671D01*
G01X6257Y1685D01*
G01X6269Y1696D01*
G01X6282Y1704D01*
G01X6298Y1709D01*
G01X6314Y1711D01*
G01X6322Y1710D01*
G01X6331Y1708D01*
G01X6339Y1706D01*
G01X6348Y1703D01*
G01X6356Y1661D01*
G01X6374Y1661D01*
G01X6373Y1709D01*
G01X6356Y1716D01*
G01X6340Y1721D01*
G01X6325Y1724D01*
G37*

%LPD*%
G36*
G01X6118Y1724D02*
G01X6103Y1725D01*
G01X6080Y1722D01*
G01X6058Y1716D01*
G01X6039Y1706D01*
G01X6023Y1692D01*
G01X6009Y1675D01*
G01X5999Y1656D01*
G01X5993Y1634D01*
G01X5991Y1609D01*
G01X5993Y1585D01*
G01X5999Y1563D01*
G01X6009Y1543D01*
G01X6022Y1526D01*
G01X6038Y1513D01*
G01X6057Y1503D01*
G01X6079Y1497D01*
G01X6103Y1494D01*
G01X6137Y1498D01*
G01X6153Y1503D01*
G01X6168Y1511D01*
G01X6169Y1559D01*
G01X6151Y1559D01*
G01X6143Y1517D01*
G01X6133Y1514D01*
G01X6124Y1511D01*
G01X6114Y1510D01*
G01X6105Y1509D01*
G01X6088Y1511D01*
G01X6073Y1516D01*
G01X6059Y1524D01*
G01X6047Y1535D01*
G01X6038Y1549D01*
G01X6031Y1566D01*
G01X6027Y1586D01*
G01X6025Y1609D01*
G01X6027Y1633D01*
G01X6031Y1653D01*
G01X6039Y1671D01*
G01X6049Y1685D01*
G01X6061Y1696D01*
G01X6074Y1704D01*
G01X6090Y1709D01*
G01X6106Y1711D01*
G01X6114Y1710D01*
G01X6132Y1706D01*
G01X6140Y1703D01*
G01X6148Y1661D01*
G01X6166Y1661D01*
G01X6165Y1709D01*
G01X6149Y1716D01*
G01X6133Y1721D01*
G01X6118Y1724D01*
G37*

%LPD*%
G54D29*
G01X250Y9803D02*
G01X250Y9375D01*
G01X250Y9803D02*
G01X434Y9803D01*
G01X494Y9784D01*
G01X515Y9763D01*
G01X536Y9721D01*
G01X536Y9661D01*
G01X515Y9619D01*
G01X494Y9600D01*
G01X434Y9578D01*
G01X250Y9578D01*
G01X794Y9803D02*
G01X753Y9784D01*
G01X711Y9742D01*
G01X692Y9701D01*
G01X671Y9640D01*
G01X671Y9538D01*
G01X692Y9476D01*
G01X711Y9436D01*
G01X753Y9394D01*
G01X794Y9375D01*
G01X876Y9375D01*
G01X917Y9394D01*
G01X957Y9436D01*
G01X978Y9476D01*
G01X998Y9538D01*
G01X998Y9640D01*
G01X978Y9701D01*
G01X957Y9742D01*
G01X917Y9784D01*
G01X876Y9803D01*
G01X794Y9803D01*
G01X1134Y9803D02*
G01X1236Y9375D01*
G01X1338Y9803D02*
G01X1236Y9375D01*
G01X1338Y9803D02*
G01X1440Y9375D01*
G01X1542Y9803D02*
G01X1440Y9375D01*
G01X1678Y9803D02*
G01X1678Y9375D01*
G01X1678Y9803D02*
G01X1944Y9803D01*
G01X1678Y9600D02*
G01X1840Y9600D01*
G01X1678Y9375D02*
G01X1944Y9375D01*
G01X2078Y9803D02*
G01X2078Y9375D01*
G01X2078Y9803D02*
G01X2263Y9803D01*
G01X2323Y9784D01*
G01X2344Y9763D01*
G01X2365Y9721D01*
G01X2365Y9680D01*
G01X2344Y9640D01*
G01X2323Y9619D01*
G01X2263Y9600D01*
G01X2078Y9600D01*
G01X2221Y9600D02*
G01X2365Y9375D01*
G01X2450Y7453D02*
G01X2450Y7025D01*
G01X2450Y7453D02*
G01X2634Y7453D01*
G01X2694Y7434D01*
G01X2715Y7413D01*
G01X2736Y7371D01*
G01X2736Y7330D01*
G01X2715Y7290D01*
G01X2694Y7269D01*
G01X2634Y7250D01*
G01X2450Y7250D01*
G01X2592Y7250D02*
G01X2736Y7025D01*
G01X2871Y7371D02*
G01X2911Y7392D01*
G01X2973Y7453D01*
G01X2973Y7025D01*
G01X10678Y5350D02*
G01X10250Y5350D01*
G01X10678Y5350D02*
G01X10678Y5165D01*
G01X10659Y5105D01*
G01X10638Y5084D01*
G01X10597Y5063D01*
G01X10556Y5063D01*
G01X10514Y5084D01*
G01X10494Y5105D01*
G01X10475Y5165D01*
G01X10475Y5350D01*
G01X10475Y5207D02*
G01X10250Y5063D01*
G01X10678Y4682D02*
G01X10678Y4888D01*
G01X10494Y4907D01*
G01X10514Y4888D01*
G01X10535Y4826D01*
G01X10535Y4765D01*
G01X10514Y4703D01*
G01X10475Y4663D01*
G01X10413Y4642D01*
G01X10372Y4642D01*
G01X10310Y4663D01*
G01X10269Y4703D01*
G01X10250Y4765D01*
G01X10250Y4826D01*
G01X10269Y4888D01*
G01X10289Y4907D01*
G01X10331Y4928D01*
G01X10650Y8553D02*
G01X10650Y8125D01*
G01X10650Y8553D02*
G01X10834Y8553D01*
G01X10894Y8534D01*
G01X10915Y8513D01*
G01X10935Y8471D01*
G01X10935Y8430D01*
G01X10915Y8390D01*
G01X10894Y8369D01*
G01X10834Y8350D01*
G01X10650Y8350D01*
G01X10793Y8350D02*
G01X10935Y8125D01*
G01X11317Y8492D02*
G01X11296Y8534D01*
G01X11235Y8553D01*
G01X11193Y8553D01*
G01X11132Y8534D01*
G01X11092Y8471D01*
G01X11071Y8369D01*
G01X11071Y8267D01*
G01X11092Y8186D01*
G01X11132Y8144D01*
G01X11193Y8125D01*
G01X11214Y8125D01*
G01X11276Y8144D01*
G01X11317Y8186D01*
G01X11336Y8246D01*
G01X11336Y8267D01*
G01X11317Y8328D01*
G01X11276Y8369D01*
G01X11214Y8390D01*
G01X11193Y8390D01*
G01X11132Y8369D01*
G01X11092Y8328D01*
G01X11071Y8267D01*
G01X10653Y3300D02*
G01X10225Y3300D01*
G01X10653Y3300D02*
G01X10653Y3157D01*
G01X10634Y3094D01*
G01X10593Y3055D01*
G01X10552Y3034D01*
G01X10489Y3013D01*
G01X10388Y3013D01*
G01X10327Y3034D01*
G01X10285Y3055D01*
G01X10244Y3094D01*
G01X10225Y3157D01*
G01X10225Y3300D01*
G01X10572Y2878D02*
G01X10593Y2838D01*
G01X10653Y2776D01*
G01X10225Y2776D01*
G01X12750Y8603D02*
G01X12750Y8175D01*
G01X12750Y8603D02*
G01X12893Y8603D01*
G01X12955Y8584D01*
G01X12994Y8542D01*
G01X13015Y8501D01*
G01X13035Y8440D01*
G01X13035Y8338D01*
G01X13015Y8276D01*
G01X12994Y8236D01*
G01X12955Y8194D01*
G01X12893Y8175D01*
G01X12750Y8175D01*
G01X13192Y8501D02*
G01X13192Y8521D01*
G01X13211Y8563D01*
G01X13232Y8584D01*
G01X13273Y8603D01*
G01X13355Y8603D01*
G01X13396Y8584D01*
G01X13417Y8563D01*
G01X13436Y8521D01*
G01X13436Y8480D01*
G01X13417Y8440D01*
G01X13376Y8378D01*
G01X13171Y8175D01*
G01X13457Y8175D01*
G01X3307Y3551D02*
G01X3286Y3592D01*
G01X3244Y3634D01*
G01X3205Y3653D01*
G01X3123Y3653D01*
G01X3082Y3634D01*
G01X3040Y3592D01*
G01X3019Y3551D01*
G01X3000Y3490D01*
G01X3000Y3388D01*
G01X3019Y3326D01*
G01X3040Y3286D01*
G01X3082Y3244D01*
G01X3123Y3225D01*
G01X3205Y3225D01*
G01X3244Y3244D01*
G01X3286Y3286D01*
G01X3307Y3326D01*
G01X3442Y3571D02*
G01X3482Y3592D01*
G01X3544Y3653D01*
G01X3544Y3225D01*
G01X1407Y5001D02*
G01X1386Y5042D01*
G01X1344Y5084D01*
G01X1305Y5103D01*
G01X1223Y5103D01*
G01X1182Y5084D01*
G01X1140Y5042D01*
G01X1119Y5001D01*
G01X1100Y4940D01*
G01X1100Y4838D01*
G01X1119Y4776D01*
G01X1140Y4736D01*
G01X1182Y4694D01*
G01X1223Y4675D01*
G01X1305Y4675D01*
G01X1344Y4694D01*
G01X1386Y4736D01*
G01X1407Y4776D01*
G01X1561Y5001D02*
G01X1561Y5021D01*
G01X1582Y5063D01*
G01X1603Y5084D01*
G01X1644Y5103D01*
G01X1726Y5103D01*
G01X1767Y5084D01*
G01X1786Y5063D01*
G01X1807Y5021D01*
G01X1807Y4980D01*
G01X1786Y4940D01*
G01X1746Y4878D01*
G01X1542Y4675D01*
G01X1828Y4675D01*
G01X3257Y2051D02*
G01X3236Y2092D01*
G01X3194Y2134D01*
G01X3155Y2153D01*
G01X3073Y2153D01*
G01X3032Y2134D01*
G01X2990Y2092D01*
G01X2969Y2051D01*
G01X2950Y1990D01*
G01X2950Y1888D01*
G01X2969Y1826D01*
G01X2990Y1786D01*
G01X3032Y1744D01*
G01X3073Y1725D01*
G01X3155Y1725D01*
G01X3194Y1744D01*
G01X3236Y1786D01*
G01X3257Y1826D01*
G01X3432Y2153D02*
G01X3657Y2153D01*
G01X3534Y1990D01*
G01X3596Y1990D01*
G01X3636Y1969D01*
G01X3657Y1950D01*
G01X3678Y1888D01*
G01X3678Y1846D01*
G01X3657Y1786D01*
G01X3617Y1744D01*
G01X3555Y1725D01*
G01X3494Y1725D01*
G01X3432Y1744D01*
G01X3411Y1765D01*
G01X3392Y1805D01*
G01X3207Y5001D02*
G01X3186Y5042D01*
G01X3144Y5084D01*
G01X3105Y5103D01*
G01X3023Y5103D01*
G01X2982Y5084D01*
G01X2940Y5042D01*
G01X2919Y5001D01*
G01X2900Y4940D01*
G01X2900Y4838D01*
G01X2919Y4776D01*
G01X2940Y4736D01*
G01X2982Y4694D01*
G01X3023Y4675D01*
G01X3105Y4675D01*
G01X3144Y4694D01*
G01X3186Y4736D01*
G01X3207Y4776D01*
G01X3546Y5103D02*
G01X3342Y4817D01*
G01X3648Y4817D01*
G01X3546Y5103D02*
G01X3546Y4675D01*
G01X1407Y3551D02*
G01X1386Y3592D01*
G01X1344Y3634D01*
G01X1305Y3653D01*
G01X1223Y3653D01*
G01X1182Y3634D01*
G01X1140Y3592D01*
G01X1119Y3551D01*
G01X1100Y3490D01*
G01X1100Y3388D01*
G01X1119Y3326D01*
G01X1140Y3286D01*
G01X1182Y3244D01*
G01X1223Y3225D01*
G01X1305Y3225D01*
G01X1344Y3244D01*
G01X1386Y3286D01*
G01X1407Y3326D01*
G01X1786Y3653D02*
G01X1582Y3653D01*
G01X1561Y3469D01*
G01X1582Y3490D01*
G01X1644Y3511D01*
G01X1705Y3511D01*
G01X1767Y3490D01*
G01X1807Y3450D01*
G01X1828Y3388D01*
G01X1828Y3346D01*
G01X1807Y3286D01*
G01X1767Y3244D01*
G01X1705Y3225D01*
G01X1644Y3225D01*
G01X1582Y3244D01*
G01X1561Y3265D01*
G01X1542Y3305D01*
G01X1407Y2051D02*
G01X1386Y2092D01*
G01X1344Y2134D01*
G01X1305Y2153D01*
G01X1223Y2153D01*
G01X1182Y2134D01*
G01X1140Y2092D01*
G01X1119Y2051D01*
G01X1100Y1990D01*
G01X1100Y1888D01*
G01X1119Y1826D01*
G01X1140Y1786D01*
G01X1182Y1744D01*
G01X1223Y1725D01*
G01X1305Y1725D01*
G01X1344Y1744D01*
G01X1386Y1786D01*
G01X1407Y1826D01*
G01X1786Y2092D02*
G01X1767Y2134D01*
G01X1705Y2153D01*
G01X1665Y2153D01*
G01X1603Y2134D01*
G01X1561Y2071D01*
G01X1542Y1969D01*
G01X1542Y1867D01*
G01X1561Y1786D01*
G01X1603Y1744D01*
G01X1665Y1725D01*
G01X1684Y1725D01*
G01X1746Y1744D01*
G01X1786Y1786D01*
G01X1807Y1846D01*
G01X1807Y1867D01*
G01X1786Y1928D01*
G01X1746Y1969D01*
G01X1684Y1990D01*
G01X1665Y1990D01*
G01X1603Y1969D01*
G01X1561Y1928D01*
G01X1542Y1867D01*
G01X9103Y5350D02*
G01X8675Y5350D01*
G01X9103Y5350D02*
G01X9103Y5165D01*
G01X9084Y5105D01*
G01X9063Y5084D01*
G01X9022Y5063D01*
G01X8981Y5063D01*
G01X8939Y5084D01*
G01X8919Y5105D01*
G01X8900Y5165D01*
G01X8900Y5350D01*
G01X8900Y5207D02*
G01X8675Y5063D01*
G01X9103Y4642D02*
G01X8675Y4846D01*
G01X9103Y4928D02*
G01X9103Y4642D01*
G01X2750Y9753D02*
G01X2750Y9324D01*
G01X2750Y9753D02*
G01X2934Y9753D01*
G01X2995Y9733D01*
G01X3016Y9712D01*
G01X3036Y9671D01*
G01X3036Y9630D01*
G01X3016Y9589D01*
G01X2995Y9569D01*
G01X2934Y9549D01*
G01X2750Y9549D01*
G01X2893Y9549D02*
G01X3036Y9324D01*
G01X3192Y9651D02*
G01X3192Y9671D01*
G01X3212Y9712D01*
G01X3233Y9733D01*
G01X3274Y9753D01*
G01X3355Y9753D01*
G01X3396Y9733D01*
G01X3417Y9712D01*
G01X3437Y9671D01*
G01X3437Y9630D01*
G01X3417Y9589D01*
G01X3376Y9528D01*
G01X3171Y9324D01*
G01X3458Y9324D01*
G54D10*
G75*
G01X7186Y8385D02*
G02X6722Y8385I-232J-17D01*
G01*
G75*
G01X2690Y3109D02*
G03X2611Y3031I0J-78D01*
G01*
G75*
G01X2690Y2291D02*
G02X2611Y2369I0J78D01*
G01*
G75*
G01X3910Y3109D02*
G02X3989Y3031I0J-78D01*
G01*
G75*
G01X3910Y2291D02*
G03X3989Y2369I0J78D01*
G01*
G75*
G01X840Y4559D02*
G03X761Y4481I0J-78D01*
G01*
G75*
G01X840Y3741D02*
G02X761Y3819I0J78D01*
G01*
G75*
G01X2060Y4559D02*
G02X2139Y4481I0J-78D01*
G01*
G75*
G01X2060Y3741D02*
G03X2139Y3819I0J78D01*
G01*
G75*
G01X2690Y1609D02*
G03X2611Y1531I0J-78D01*
G01*
G75*
G01X2690Y791D02*
G02X2611Y869I0J78D01*
G01*
G75*
G01X3910Y1609D02*
G02X3989Y1531I0J-78D01*
G01*
G75*
G01X3910Y791D02*
G03X3989Y869I0J78D01*
G01*
G75*
G01X2690Y4559D02*
G03X2611Y4481I0J-78D01*
G01*
G75*
G01X2690Y3741D02*
G02X2611Y3819I0J78D01*
G01*
G75*
G01X3910Y4559D02*
G02X3989Y4481I0J-78D01*
G01*
G75*
G01X3910Y3741D02*
G03X3989Y3819I0J78D01*
G01*
G75*
G01X840Y3159D02*
G03X761Y3081I0J-78D01*
G01*
G75*
G01X840Y2341D02*
G02X761Y2419I0J78D01*
G01*
G75*
G01X2060Y3159D02*
G02X2139Y3081I0J-78D01*
G01*
G75*
G01X2060Y2341D02*
G03X2139Y2419I0J78D01*
G01*
G75*
G01X840Y1609D02*
G03X761Y1531I0J-78D01*
G01*
G75*
G01X840Y791D02*
G02X761Y869I0J78D01*
G01*
G75*
G01X2060Y1609D02*
G02X2139Y1531I0J-78D01*
G01*
G75*
G01X2060Y791D02*
G03X2139Y869I0J78D01*
G01*
G75*
G01X5588Y8425D02*
G03X5588Y8425I-75J0D01*
G01*
M00*
M02*
