G04 Layer: TopPasteMaskLayer*
G04 EasyEDA v6.3.53, 2020-06-11T19:48:03+08:00*
G04 f0918c685c5a4818851a522c051890eb,45e1048b23574a55a66a4e5d38cdb7dd,10*
G04 Gerber Generator version 0.2*
G04 Scale: 100 percent, Rotated: No, Reflected: No *
G04 Dimensions in inches *
G04 leading zeros omitted , absolute positions ,2 integer and 4 decimal *
%FSLAX24Y24*%
%MOIN*%
G90*
G70D02*

%ADD13C,0.025591*%
%ADD15R,0.051200X0.055100*%
%ADD16R,0.039370X0.061024*%
%ADD17R,0.061024X0.039370*%
%ADD18R,0.059055X0.051181*%
%ADD19R,0.051181X0.059055*%
%ADD20R,0.070866X0.016929*%
%ADD21R,0.137795X0.086614*%
%ADD22R,0.043307X0.086614*%

%LPD*%
G54D13*
G01X8200Y6600D02*
G01X8613Y6600D01*
G01X8200Y7100D02*
G01X8613Y7100D01*
G01X8200Y7600D02*
G01X8613Y7600D01*
G01X8200Y8100D02*
G01X8613Y8100D01*
G01X5286Y6600D02*
G01X5699Y6600D01*
G01X5286Y7100D02*
G01X5699Y7100D01*
G01X5286Y7600D02*
G01X5699Y7600D01*
G01X5286Y8100D02*
G01X5699Y8100D01*
G54D15*
G01X1613Y8800D03*
G01X786Y8800D03*
G54D16*
G01X2993Y6400D03*
G01X2206Y6400D03*
G54D17*
G01X9725Y4656D03*
G01X9725Y5443D03*
G54D16*
G01X11293Y7600D03*
G01X10506Y7600D03*
G54D18*
G01X9700Y2430D03*
G01X9700Y3769D03*
G54D19*
G01X13719Y7600D03*
G01X12380Y7600D03*
G54D16*
G01X2906Y2700D03*
G01X3693Y2700D03*
G01X1056Y4150D03*
G01X1843Y4150D03*
G01X2906Y1200D03*
G01X3693Y1200D03*
G01X2906Y4150D03*
G01X3693Y4150D03*
G01X1056Y2750D03*
G01X1843Y2750D03*
G01X1056Y1200D03*
G01X1843Y1200D03*
G54D20*
G01X11709Y3511D03*
G01X11709Y3255D03*
G01X11709Y3000D03*
G01X11709Y2744D03*
G01X11709Y2488D03*
G54D21*
G01X6000Y5069D03*
G54D22*
G01X6905Y2630D03*
G01X6000Y2630D03*
G01X5094Y2630D03*
G54D17*
G01X8200Y4706D03*
G01X8200Y5493D03*
G54D16*
G01X2606Y8800D03*
G01X3393Y8800D03*
M00*
M02*
