G04 Layer: TopLayer*
G04 EasyEDA v6.3.53, 2020-06-11T19:48:03+08:00*
G04 f0918c685c5a4818851a522c051890eb,45e1048b23574a55a66a4e5d38cdb7dd,10*
G04 Gerber Generator version 0.2*
G04 Scale: 100 percent, Rotated: No, Reflected: No *
G04 Dimensions in inches *
G04 leading zeros omitted , absolute positions ,2 integer and 4 decimal *
%FSLAX24Y24*%
%MOIN*%
G90*
G70D02*

%ADD10C,0.010000*%
%ADD11C,0.020000*%
%ADD12C,0.015000*%
%ADD13C,0.025591*%
%ADD14C,0.024000*%
%ADD15R,0.051200X0.055100*%
%ADD16R,0.039370X0.061024*%
%ADD17R,0.061024X0.039370*%
%ADD18R,0.059055X0.051181*%
%ADD19R,0.051181X0.059055*%
%ADD20R,0.070866X0.016929*%
%ADD21R,0.137795X0.086614*%
%ADD22R,0.043307X0.086614*%
%ADD23R,0.066929X0.066929*%
%ADD24C,0.066929*%
%ADD25R,0.070866X0.070866*%
%ADD26C,0.070866*%
%ADD27C,0.039370*%

%LPD*%
G36*
G01X13622Y11248D02*
G01X726Y11248D01*
G01X703Y11247D01*
G01X680Y11245D01*
G01X657Y11242D01*
G01X611Y11234D01*
G01X567Y11222D01*
G01X544Y11215D01*
G01X523Y11207D01*
G01X501Y11199D01*
G01X480Y11190D01*
G01X459Y11180D01*
G01X438Y11169D01*
G01X418Y11158D01*
G01X399Y11146D01*
G01X379Y11133D01*
G01X361Y11119D01*
G01X342Y11105D01*
G01X325Y11090D01*
G01X307Y11075D01*
G01X290Y11059D01*
G01X275Y11042D01*
G01X259Y11025D01*
G01X244Y11007D01*
G01X230Y10988D01*
G01X216Y10970D01*
G01X203Y10950D01*
G01X191Y10931D01*
G01X180Y10911D01*
G01X169Y10890D01*
G01X159Y10869D01*
G01X150Y10848D01*
G01X142Y10826D01*
G01X134Y10805D01*
G01X127Y10782D01*
G01X115Y10738D01*
G01X107Y10692D01*
G01X104Y10669D01*
G01X102Y10646D01*
G01X101Y10623D01*
G01X101Y726D01*
G01X102Y703D01*
G01X104Y680D01*
G01X107Y657D01*
G01X115Y611D01*
G01X127Y567D01*
G01X134Y544D01*
G01X142Y523D01*
G01X150Y501D01*
G01X159Y480D01*
G01X169Y459D01*
G01X180Y438D01*
G01X191Y418D01*
G01X203Y399D01*
G01X216Y379D01*
G01X230Y361D01*
G01X244Y342D01*
G01X259Y325D01*
G01X275Y307D01*
G01X290Y290D01*
G01X307Y275D01*
G01X325Y259D01*
G01X342Y244D01*
G01X361Y230D01*
G01X379Y216D01*
G01X399Y203D01*
G01X418Y191D01*
G01X438Y180D01*
G01X459Y169D01*
G01X480Y159D01*
G01X501Y150D01*
G01X523Y142D01*
G01X544Y134D01*
G01X567Y127D01*
G01X611Y115D01*
G01X657Y107D01*
G01X680Y104D01*
G01X703Y102D01*
G01X726Y101D01*
G01X13623Y101D01*
G01X13646Y102D01*
G01X13669Y104D01*
G01X13692Y107D01*
G01X13738Y115D01*
G01X13760Y121D01*
G01X13783Y127D01*
G01X13805Y134D01*
G01X13827Y142D01*
G01X13848Y150D01*
G01X13870Y159D01*
G01X13891Y169D01*
G01X13911Y180D01*
G01X13951Y204D01*
G01X13971Y217D01*
G01X13989Y230D01*
G01X14008Y245D01*
G01X14026Y260D01*
G01X14043Y275D01*
G01X14076Y308D01*
G01X14106Y344D01*
G01X14120Y362D01*
G01X14134Y381D01*
G01X14147Y400D01*
G01X14159Y420D01*
G01X14170Y440D01*
G01X14181Y461D01*
G01X14191Y482D01*
G01X14200Y503D01*
G01X14208Y525D01*
G01X14216Y546D01*
G01X14223Y569D01*
G01X14225Y580D01*
G01X14225Y10487D01*
G01X14237Y10716D01*
G01X14237Y10718D01*
G01X14236Y10726D01*
G01X14231Y10748D01*
G01X14226Y10771D01*
G01X14219Y10792D01*
G01X14212Y10814D01*
G01X14204Y10836D01*
G01X14196Y10857D01*
G01X14186Y10878D01*
G01X14176Y10898D01*
G01X14165Y10918D01*
G01X14153Y10938D01*
G01X14141Y10957D01*
G01X14128Y10976D01*
G01X14100Y11012D01*
G01X14085Y11030D01*
G01X14070Y11047D01*
G01X14054Y11063D01*
G01X14037Y11079D01*
G01X14020Y11094D01*
G01X13966Y11136D01*
G01X13947Y11148D01*
G01X13927Y11160D01*
G01X13887Y11182D01*
G01X13824Y11209D01*
G01X13780Y11223D01*
G01X13758Y11229D01*
G01X13736Y11234D01*
G01X13713Y11238D01*
G01X13691Y11242D01*
G01X13668Y11245D01*
G01X13645Y11247D01*
G01X13622Y11248D01*
G37*

%LPC*%
G36*
G01X11490Y8006D02*
G01X11096Y8006D01*
G01X11078Y8004D01*
G01X11069Y8002D01*
G01X11060Y7999D01*
G01X11051Y7995D01*
G01X11035Y7985D01*
G01X11028Y7979D01*
G01X11022Y7973D01*
G01X11016Y7965D01*
G01X11010Y7958D01*
G01X11006Y7950D01*
G01X11002Y7941D01*
G01X10999Y7932D01*
G01X10997Y7923D01*
G01X10995Y7905D01*
G01X10995Y7294D01*
G01X10997Y7276D01*
G01X10999Y7267D01*
G01X11002Y7258D01*
G01X11006Y7249D01*
G01X11010Y7241D01*
G01X11016Y7234D01*
G01X11022Y7226D01*
G01X11028Y7220D01*
G01X11035Y7214D01*
G01X11051Y7204D01*
G01X11060Y7200D01*
G01X11069Y7197D01*
G01X11078Y7195D01*
G01X11096Y7193D01*
G01X11490Y7193D01*
G01X11499Y7194D01*
G01X11509Y7195D01*
G01X11518Y7197D01*
G01X11527Y7200D01*
G01X11535Y7204D01*
G01X11551Y7214D01*
G01X11565Y7226D01*
G01X11571Y7234D01*
G01X11576Y7241D01*
G01X11581Y7249D01*
G01X11587Y7267D01*
G01X11591Y7285D01*
G01X11591Y7387D01*
G01X11592Y7394D01*
G01X11593Y7400D01*
G01X11596Y7406D01*
G01X11599Y7411D01*
G01X11603Y7416D01*
G01X11608Y7420D01*
G01X11613Y7423D01*
G01X11656Y7444D01*
G01X11661Y7447D01*
G01X11667Y7448D01*
G01X11921Y7448D01*
G01X11926Y7447D01*
G01X11932Y7445D01*
G01X11937Y7442D01*
G01X11941Y7439D01*
G01X11945Y7435D01*
G01X11949Y7430D01*
G01X11952Y7425D01*
G01X11953Y7420D01*
G01X11955Y7414D01*
G01X11955Y7409D01*
G01X11954Y7401D01*
G01X11952Y7393D01*
G01X11949Y7386D01*
G01X11945Y7379D01*
G01X11940Y7373D01*
G01X10893Y6325D01*
G01X10885Y6317D01*
G01X10877Y6307D01*
G01X10865Y6287D01*
G01X10860Y6276D01*
G01X10856Y6265D01*
G01X10853Y6254D01*
G01X10850Y6242D01*
G01X10849Y6230D01*
G01X10848Y6219D01*
G01X10848Y3705D01*
G01X10847Y3699D01*
G01X10845Y3694D01*
G01X10839Y3684D01*
G01X10835Y3680D01*
G01X10825Y3674D01*
G01X10820Y3672D01*
G01X10814Y3671D01*
G01X10802Y3671D01*
G01X10790Y3675D01*
G01X10785Y3678D01*
G01X10780Y3682D01*
G01X10587Y3875D01*
G01X10569Y3891D01*
G01X10549Y3903D01*
G01X10538Y3908D01*
G01X10527Y3912D01*
G01X10516Y3915D01*
G01X10504Y3918D01*
G01X10492Y3919D01*
G01X10179Y3919D01*
G01X10172Y3920D01*
G01X10167Y3921D01*
G01X10161Y3924D01*
G01X10118Y3945D01*
G01X10113Y3948D01*
G01X10108Y3953D01*
G01X10103Y3957D01*
G01X10100Y3963D01*
G01X10096Y3975D01*
G01X10096Y4025D01*
G01X10094Y4043D01*
G01X10092Y4052D01*
G01X10089Y4061D01*
G01X10085Y4070D01*
G01X10081Y4078D01*
G01X10075Y4086D01*
G01X10069Y4093D01*
G01X10063Y4099D01*
G01X10056Y4105D01*
G01X10048Y4111D01*
G01X10040Y4115D01*
G01X10031Y4119D01*
G01X10022Y4122D01*
G01X10013Y4124D01*
G01X9995Y4126D01*
G01X9905Y4126D01*
G01X9893Y4130D01*
G01X9883Y4138D01*
G01X9879Y4142D01*
G01X9852Y4196D01*
G01X9851Y4202D01*
G01X9851Y4282D01*
G01X9852Y4288D01*
G01X9876Y4336D01*
G01X9879Y4341D01*
G01X9883Y4346D01*
G01X9888Y4350D01*
G01X9893Y4353D01*
G01X9899Y4356D01*
G01X9905Y4357D01*
G01X9912Y4358D01*
G01X10039Y4358D01*
G01X10057Y4362D01*
G01X10066Y4365D01*
G01X10075Y4369D01*
G01X10083Y4373D01*
G01X10090Y4378D01*
G01X10098Y4384D01*
G01X10110Y4398D01*
G01X10120Y4414D01*
G01X10124Y4423D01*
G01X10127Y4431D01*
G01X10129Y4440D01*
G01X10130Y4450D01*
G01X10131Y4459D01*
G01X10131Y4853D01*
G01X10129Y4871D01*
G01X10127Y4880D01*
G01X10124Y4889D01*
G01X10120Y4898D01*
G01X10115Y4906D01*
G01X10110Y4913D01*
G01X10104Y4921D01*
G01X10098Y4927D01*
G01X10090Y4933D01*
G01X10083Y4938D01*
G01X10075Y4943D01*
G01X10066Y4947D01*
G01X10057Y4950D01*
G01X10048Y4952D01*
G01X10030Y4954D01*
G01X9419Y4954D01*
G01X9401Y4952D01*
G01X9392Y4950D01*
G01X9383Y4947D01*
G01X9367Y4939D01*
G01X9359Y4934D01*
G01X9352Y4928D01*
G01X9346Y4921D01*
G01X9339Y4915D01*
G01X9334Y4907D01*
G01X9326Y4891D01*
G01X9323Y4882D01*
G01X9319Y4864D01*
G01X9318Y4858D01*
G01X9314Y4848D01*
G01X9310Y4843D01*
G01X9306Y4839D01*
G01X9302Y4836D01*
G01X9297Y4833D01*
G01X9253Y4811D01*
G01X9248Y4808D01*
G01X9242Y4807D01*
G01X8682Y4807D01*
G01X8676Y4808D01*
G01X8671Y4811D01*
G01X8628Y4832D01*
G01X8622Y4836D01*
G01X8618Y4840D01*
G01X8613Y4844D01*
G01X8610Y4850D01*
G01X8608Y4855D01*
G01X8606Y4862D01*
G01X8606Y4903D01*
G01X8604Y4921D01*
G01X8602Y4930D01*
G01X8599Y4939D01*
G01X8595Y4948D01*
G01X8590Y4956D01*
G01X8585Y4963D01*
G01X8579Y4971D01*
G01X8573Y4977D01*
G01X8565Y4983D01*
G01X8558Y4988D01*
G01X8550Y4993D01*
G01X8541Y4997D01*
G01X8532Y5000D01*
G01X8523Y5002D01*
G01X8505Y5004D01*
G01X7894Y5004D01*
G01X7876Y5002D01*
G01X7867Y5000D01*
G01X7858Y4997D01*
G01X7849Y4993D01*
G01X7841Y4988D01*
G01X7834Y4983D01*
G01X7826Y4977D01*
G01X7820Y4971D01*
G01X7814Y4963D01*
G01X7809Y4956D01*
G01X7804Y4948D01*
G01X7800Y4939D01*
G01X7797Y4930D01*
G01X7795Y4921D01*
G01X7793Y4903D01*
G01X7793Y4509D01*
G01X7794Y4500D01*
G01X7795Y4490D01*
G01X7797Y4481D01*
G01X7800Y4473D01*
G01X7804Y4464D01*
G01X7814Y4448D01*
G01X7826Y4434D01*
G01X7834Y4428D01*
G01X7841Y4423D01*
G01X7849Y4419D01*
G01X7858Y4415D01*
G01X7867Y4412D01*
G01X7885Y4408D01*
G01X8514Y4408D01*
G01X8532Y4412D01*
G01X8540Y4415D01*
G01X8549Y4418D01*
G01X8557Y4423D01*
G01X8564Y4428D01*
G01X8572Y4433D01*
G01X8584Y4447D01*
G01X8589Y4454D01*
G01X8594Y4460D01*
G01X8599Y4464D01*
G01X8605Y4468D01*
G01X8675Y4503D01*
G01X8687Y4505D01*
G01X9237Y4505D01*
G01X9249Y4503D01*
G01X9297Y4479D01*
G01X9302Y4476D01*
G01X9306Y4473D01*
G01X9310Y4468D01*
G01X9314Y4464D01*
G01X9316Y4459D01*
G01X9318Y4453D01*
G01X9321Y4438D01*
G01X9323Y4430D01*
G01X9326Y4421D01*
G01X9334Y4405D01*
G01X9339Y4397D01*
G01X9352Y4384D01*
G01X9359Y4378D01*
G01X9375Y4368D01*
G01X9383Y4365D01*
G01X9392Y4362D01*
G01X9410Y4358D01*
G01X9487Y4358D01*
G01X9494Y4357D01*
G01X9500Y4356D01*
G01X9506Y4353D01*
G01X9511Y4350D01*
G01X9516Y4346D01*
G01X9520Y4341D01*
G01X9523Y4336D01*
G01X9547Y4288D01*
G01X9548Y4282D01*
G01X9548Y4202D01*
G01X9547Y4196D01*
G01X9520Y4142D01*
G01X9516Y4138D01*
G01X9506Y4130D01*
G01X9494Y4126D01*
G01X9404Y4126D01*
G01X9386Y4124D01*
G01X9377Y4122D01*
G01X9368Y4119D01*
G01X9359Y4115D01*
G01X9351Y4111D01*
G01X9343Y4105D01*
G01X9336Y4099D01*
G01X9330Y4093D01*
G01X9324Y4086D01*
G01X9318Y4078D01*
G01X9314Y4070D01*
G01X9310Y4061D01*
G01X9307Y4052D01*
G01X9305Y4043D01*
G01X9303Y4025D01*
G01X9303Y3692D01*
G01X9301Y3678D01*
G01X9265Y3584D01*
G01X9263Y3578D01*
G01X9260Y3574D01*
G01X9256Y3569D01*
G01X8649Y2962D01*
G01X8644Y2958D01*
G01X8639Y2955D01*
G01X8627Y2951D01*
G01X8250Y2951D01*
G01X8226Y2949D01*
G01X8214Y2946D01*
G01X8203Y2943D01*
G01X8192Y2939D01*
G01X8181Y2934D01*
G01X8161Y2922D01*
G01X8143Y2906D01*
G01X6935Y1698D01*
G01X6927Y1688D01*
G01X6915Y1668D01*
G01X6910Y1657D01*
G01X6906Y1646D01*
G01X6903Y1635D01*
G01X6900Y1623D01*
G01X6899Y1611D01*
G01X6898Y1600D01*
G01X6898Y1402D01*
G01X6897Y1396D01*
G01X6895Y1391D01*
G01X6889Y1381D01*
G01X6722Y1187D01*
G01X6710Y1172D01*
G01X6697Y1156D01*
G01X6686Y1140D01*
G01X6676Y1124D01*
G01X6666Y1107D01*
G01X6657Y1089D01*
G01X6649Y1071D01*
G01X6642Y1053D01*
G01X6635Y1034D01*
G01X6630Y1016D01*
G01X6625Y997D01*
G01X6621Y978D01*
G01X6618Y958D01*
G01X6616Y939D01*
G01X6614Y919D01*
G01X6614Y880D01*
G01X6618Y840D01*
G01X6621Y820D01*
G01X6625Y801D01*
G01X6630Y782D01*
G01X6636Y763D01*
G01X6650Y725D01*
G01X6659Y707D01*
G01X6668Y690D01*
G01X6678Y672D01*
G01X6689Y656D01*
G01X6700Y639D01*
G01X6703Y634D01*
G01X6706Y628D01*
G01X6707Y622D01*
G01X6708Y615D01*
G01X6707Y610D01*
G01X6706Y604D01*
G01X6702Y594D01*
G01X6698Y589D01*
G01X6694Y585D01*
G01X6689Y582D01*
G01X6685Y579D01*
G01X6679Y577D01*
G01X6674Y576D01*
G01X6535Y576D01*
G01X6523Y580D01*
G01X6513Y588D01*
G01X6496Y605D01*
G01X6493Y610D01*
G01X6489Y615D01*
G01X6487Y621D01*
G01X6486Y626D01*
G01X6485Y632D01*
G01X6485Y1243D01*
G01X6484Y1252D01*
G01X6481Y1261D01*
G01X6479Y1270D01*
G01X6471Y1286D01*
G01X6465Y1294D01*
G01X6460Y1301D01*
G01X6453Y1307D01*
G01X6447Y1313D01*
G01X6439Y1319D01*
G01X6431Y1323D01*
G01X6421Y1331D01*
G01X6417Y1336D01*
G01X6414Y1341D01*
G01X6410Y1353D01*
G01X6410Y1365D01*
G01X6414Y1377D01*
G01X6422Y1387D01*
G01X7047Y2012D01*
G01X7065Y2032D01*
G01X7072Y2042D01*
G01X7079Y2053D01*
G01X7085Y2065D01*
G01X7088Y2070D01*
G01X7092Y2075D01*
G01X7097Y2078D01*
G01X7102Y2082D01*
G01X7107Y2084D01*
G01X7155Y2101D01*
G01X7173Y2109D01*
G01X7181Y2115D01*
G01X7195Y2127D01*
G01X7201Y2134D01*
G01X7207Y2142D01*
G01X7211Y2151D01*
G01X7215Y2159D01*
G01X7218Y2168D01*
G01X7221Y2178D01*
G01X7222Y2187D01*
G01X7222Y3072D01*
G01X7221Y3081D01*
G01X7219Y3090D01*
G01X7216Y3099D01*
G01X7212Y3107D01*
G01X7207Y3116D01*
G01X7202Y3123D01*
G01X7196Y3131D01*
G01X7182Y3143D01*
G01X7175Y3148D01*
G01X7167Y3153D01*
G01X7158Y3157D01*
G01X7149Y3160D01*
G01X7140Y3162D01*
G01X7131Y3163D01*
G01X6679Y3163D01*
G01X6670Y3162D01*
G01X6661Y3160D01*
G01X6652Y3157D01*
G01X6643Y3153D01*
G01X6635Y3148D01*
G01X6628Y3143D01*
G01X6614Y3131D01*
G01X6608Y3123D01*
G01X6602Y3116D01*
G01X6598Y3107D01*
G01X6594Y3099D01*
G01X6591Y3090D01*
G01X6589Y3081D01*
G01X6588Y3072D01*
G01X6588Y2187D01*
G01X6589Y2178D01*
G01X6591Y2169D01*
G01X6594Y2161D01*
G01X6596Y2154D01*
G01X6597Y2146D01*
G01X6595Y2134D01*
G01X6592Y2128D01*
G01X6589Y2123D01*
G01X6585Y2118D01*
G01X5907Y1442D01*
G01X5898Y1432D01*
G01X5889Y1421D01*
G01X5881Y1409D01*
G01X5874Y1397D01*
G01X5868Y1385D01*
G01X5865Y1380D01*
G01X5861Y1375D01*
G01X5857Y1371D01*
G01X5847Y1365D01*
G01X5786Y1338D01*
G01X5778Y1336D01*
G01X5770Y1335D01*
G01X5705Y1335D01*
G01X5696Y1334D01*
G01X5678Y1328D01*
G01X5670Y1325D01*
G01X5654Y1315D01*
G01X5647Y1309D01*
G01X5640Y1302D01*
G01X5634Y1295D01*
G01X5629Y1287D01*
G01X5621Y1271D01*
G01X5615Y1253D01*
G01X5614Y1244D01*
G01X5614Y941D01*
G01X5612Y929D01*
G01X5528Y678D01*
G01X5526Y672D01*
G01X5523Y667D01*
G01X5519Y662D01*
G01X5514Y658D01*
G01X5508Y655D01*
G01X5503Y653D01*
G01X5496Y651D01*
G01X3179Y651D01*
G01X3173Y652D01*
G01X3168Y654D01*
G01X3163Y657D01*
G01X3159Y660D01*
G01X3155Y664D01*
G01X3151Y669D01*
G01X3148Y674D01*
G01X3146Y679D01*
G01X3145Y685D01*
G01X3145Y697D01*
G01X3147Y703D01*
G01X3199Y863D01*
G01X3201Y873D01*
G01X3203Y884D01*
G01X3204Y894D01*
G01X3204Y1505D01*
G01X3203Y1515D01*
G01X3201Y1526D01*
G01X3199Y1536D01*
G01X3109Y1815D01*
G01X3107Y1821D01*
G01X3107Y2078D01*
G01X3109Y2084D01*
G01X3199Y2363D01*
G01X3201Y2373D01*
G01X3203Y2384D01*
G01X3204Y2394D01*
G01X3204Y3005D01*
G01X3203Y3015D01*
G01X3201Y3026D01*
G01X3199Y3036D01*
G01X3109Y3315D01*
G01X3107Y3321D01*
G01X3107Y3528D01*
G01X3109Y3534D01*
G01X3199Y3813D01*
G01X3201Y3823D01*
G01X3203Y3834D01*
G01X3204Y3844D01*
G01X3204Y4455D01*
G01X3202Y4473D01*
G01X3200Y4482D01*
G01X3197Y4491D01*
G01X3193Y4500D01*
G01X3188Y4508D01*
G01X3183Y4515D01*
G01X3177Y4523D01*
G01X3171Y4529D01*
G01X3163Y4535D01*
G01X3156Y4540D01*
G01X3148Y4545D01*
G01X3139Y4549D01*
G01X3130Y4552D01*
G01X3121Y4554D01*
G01X3103Y4556D01*
G01X2709Y4556D01*
G01X2700Y4555D01*
G01X2690Y4554D01*
G01X2681Y4552D01*
G01X2673Y4549D01*
G01X2664Y4545D01*
G01X2648Y4535D01*
G01X2634Y4523D01*
G01X2628Y4515D01*
G01X2623Y4508D01*
G01X2619Y4500D01*
G01X2615Y4491D01*
G01X2612Y4482D01*
G01X2608Y4464D01*
G01X2608Y3844D01*
G01X2609Y3834D01*
G01X2610Y3823D01*
G01X2613Y3813D01*
G01X2703Y3535D01*
G01X2705Y3523D01*
G01X2705Y3326D01*
G01X2703Y3314D01*
G01X2613Y3036D01*
G01X2610Y3026D01*
G01X2609Y3015D01*
G01X2608Y3005D01*
G01X2608Y2394D01*
G01X2609Y2384D01*
G01X2610Y2373D01*
G01X2613Y2363D01*
G01X2703Y2085D01*
G01X2705Y2073D01*
G01X2705Y1826D01*
G01X2703Y1814D01*
G01X2613Y1536D01*
G01X2610Y1526D01*
G01X2609Y1515D01*
G01X2608Y1505D01*
G01X2608Y894D01*
G01X2609Y884D01*
G01X2610Y873D01*
G01X2613Y863D01*
G01X2703Y584D01*
G01X2705Y572D01*
G01X2705Y436D01*
G01X2706Y423D01*
G01X2708Y410D01*
G01X2711Y398D01*
G01X2715Y385D01*
G01X2725Y361D01*
G01X2732Y349D01*
G01X2738Y338D01*
G01X2746Y327D01*
G01X2754Y317D01*
G01X2763Y307D01*
G01X2773Y298D01*
G01X2783Y290D01*
G01X2794Y282D01*
G01X2805Y276D01*
G01X2817Y269D01*
G01X2828Y264D01*
G01X2841Y259D01*
G01X2853Y255D01*
G01X2866Y252D01*
G01X2879Y250D01*
G01X2905Y248D01*
G01X5600Y248D01*
G01X5626Y250D01*
G01X5639Y252D01*
G01X5651Y255D01*
G01X5664Y259D01*
G01X5688Y269D01*
G01X5700Y276D01*
G01X5711Y282D01*
G01X5722Y290D01*
G01X5732Y298D01*
G01X5742Y307D01*
G01X5798Y364D01*
G01X5803Y368D01*
G01X5808Y371D01*
G01X5814Y373D01*
G01X6010Y439D01*
G01X6022Y441D01*
G01X6034Y439D01*
G01X6040Y437D01*
G01X6281Y316D01*
G01X6286Y313D01*
G01X6291Y309D01*
G01X6325Y275D01*
G01X6334Y267D01*
G01X6354Y251D01*
G01X6365Y245D01*
G01X6376Y240D01*
G01X6388Y234D01*
G01X6412Y228D01*
G01X6425Y225D01*
G01X6437Y224D01*
G01X6450Y223D01*
G01X9600Y223D01*
G01X9612Y224D01*
G01X9625Y225D01*
G01X9661Y234D01*
G01X9673Y240D01*
G01X9684Y245D01*
G01X9695Y251D01*
G01X9715Y267D01*
G01X9724Y275D01*
G01X10074Y625D01*
G01X10082Y634D01*
G01X10090Y644D01*
G01X10097Y654D01*
G01X10104Y665D01*
G01X10110Y676D01*
G01X10122Y712D01*
G01X10124Y725D01*
G01X10125Y737D01*
G01X10126Y750D01*
G01X10126Y1416D01*
G01X10127Y1422D01*
G01X10133Y1434D01*
G01X11015Y2316D01*
G01X11021Y2319D01*
G01X11033Y2323D01*
G01X11288Y2323D01*
G01X11295Y2321D01*
G01X11301Y2317D01*
G01X11310Y2313D01*
G01X11318Y2309D01*
G01X11327Y2306D01*
G01X11336Y2304D01*
G01X11346Y2302D01*
G01X11912Y2302D01*
G01X11918Y2301D01*
G01X11923Y2300D01*
G01X11928Y2298D01*
G01X11934Y2296D01*
G01X11946Y2284D01*
G01X11948Y2278D01*
G01X11950Y2273D01*
G01X11951Y2267D01*
G01X11952Y2262D01*
G01X11951Y2255D01*
G01X11949Y2240D01*
G01X11947Y2212D01*
G01X11949Y2184D01*
G01X11951Y2171D01*
G01X11954Y2157D01*
G01X11957Y2144D01*
G01X11962Y2130D01*
G01X11967Y2117D01*
G01X11979Y2093D01*
G01X11986Y2081D01*
G01X11994Y2069D01*
G01X12003Y2059D01*
G01X12013Y2048D01*
G01X12022Y2038D01*
G01X12033Y2029D01*
G01X12043Y2021D01*
G01X12067Y2005D01*
G01X12079Y1999D01*
G01X12092Y1993D01*
G01X12118Y1983D01*
G01X12131Y1980D01*
G01X12145Y1977D01*
G01X12158Y1975D01*
G01X12186Y1973D01*
G01X12214Y1975D01*
G01X12227Y1977D01*
G01X12255Y1983D01*
G01X12281Y1993D01*
G01X12293Y1999D01*
G01X12306Y2005D01*
G01X12317Y2013D01*
G01X12329Y2021D01*
G01X12339Y2029D01*
G01X12350Y2038D01*
G01X12360Y2048D01*
G01X12369Y2059D01*
G01X12378Y2069D01*
G01X12386Y2081D01*
G01X12400Y2105D01*
G01X12405Y2117D01*
G01X12410Y2130D01*
G01X12415Y2144D01*
G01X12418Y2157D01*
G01X12421Y2171D01*
G01X12423Y2184D01*
G01X12425Y2198D01*
G01X12425Y2226D01*
G01X12423Y2241D01*
G01X12421Y2255D01*
G01X12418Y2269D01*
G01X12414Y2283D01*
G01X12410Y2296D01*
G01X12404Y2310D01*
G01X12398Y2323D01*
G01X12391Y2335D01*
G01X12375Y2359D01*
G01X12365Y2370D01*
G01X12356Y2380D01*
G01X12334Y2400D01*
G01X12310Y2416D01*
G01X12298Y2423D01*
G01X12272Y2435D01*
G01X12258Y2440D01*
G01X12244Y2444D01*
G01X12231Y2447D01*
G01X12216Y2449D01*
G01X12202Y2450D01*
G01X12196Y2451D01*
G01X12190Y2453D01*
G01X12185Y2455D01*
G01X12180Y2459D01*
G01X12176Y2463D01*
G01X12172Y2468D01*
G01X12169Y2473D01*
G01X12167Y2478D01*
G01X12165Y2484D01*
G01X12165Y2572D01*
G01X12164Y2583D01*
G01X12163Y2593D01*
G01X12160Y2603D01*
G01X12158Y2609D01*
G01X12158Y2622D01*
G01X12160Y2628D01*
G01X12163Y2638D01*
G01X12164Y2648D01*
G01X12165Y2659D01*
G01X12165Y2828D01*
G01X12164Y2839D01*
G01X12163Y2849D01*
G01X12160Y2859D01*
G01X12158Y2865D01*
G01X12158Y2878D01*
G01X12160Y2884D01*
G01X12163Y2894D01*
G01X12164Y2904D01*
G01X12165Y2915D01*
G01X12165Y3084D01*
G01X12164Y3095D01*
G01X12163Y3105D01*
G01X12160Y3115D01*
G01X12158Y3121D01*
G01X12158Y3134D01*
G01X12160Y3140D01*
G01X12163Y3150D01*
G01X12164Y3160D01*
G01X12165Y3171D01*
G01X12165Y3340D01*
G01X12164Y3351D01*
G01X12163Y3361D01*
G01X12160Y3371D01*
G01X12158Y3377D01*
G01X12158Y3390D01*
G01X12160Y3396D01*
G01X12163Y3406D01*
G01X12164Y3416D01*
G01X12165Y3427D01*
G01X12165Y3444D01*
G01X11887Y3444D01*
G01X11879Y3442D01*
G01X11872Y3441D01*
G01X11547Y3441D01*
G01X11539Y3442D01*
G01X11532Y3444D01*
G01X11254Y3444D01*
G01X11254Y3427D01*
G01X11255Y3416D01*
G01X11256Y3406D01*
G01X11259Y3396D01*
G01X11261Y3384D01*
G01X11260Y3377D01*
G01X11259Y3371D01*
G01X11256Y3361D01*
G01X11255Y3351D01*
G01X11254Y3340D01*
G01X11254Y3249D01*
G01X11252Y3244D01*
G01X11251Y3238D01*
G01X11248Y3234D01*
G01X11244Y3229D01*
G01X11236Y3221D01*
G01X11231Y3219D01*
G01X11225Y3217D01*
G01X11220Y3215D01*
G01X11208Y3215D01*
G01X11196Y3219D01*
G01X11190Y3223D01*
G01X11186Y3227D01*
G01X11162Y3250D01*
G01X11158Y3255D01*
G01X11155Y3261D01*
G01X11152Y3266D01*
G01X11151Y3272D01*
G01X11151Y4232D01*
G01X11152Y4238D01*
G01X11154Y4243D01*
G01X11160Y4253D01*
G01X11164Y4257D01*
G01X11174Y4263D01*
G01X11179Y4265D01*
G01X11185Y4266D01*
G01X11190Y4267D01*
G01X11197Y4266D01*
G01X11203Y4265D01*
G01X11215Y4259D01*
G01X11223Y4249D01*
G01X11243Y4223D01*
G01X11254Y4211D01*
G01X11265Y4200D01*
G01X11277Y4189D01*
G01X11290Y4179D01*
G01X11303Y4170D01*
G01X11317Y4161D01*
G01X11331Y4153D01*
G01X11345Y4146D01*
G01X11375Y4134D01*
G01X11390Y4130D01*
G01X11406Y4126D01*
G01X11438Y4120D01*
G01X11454Y4119D01*
G01X11879Y4119D01*
G01X11894Y4120D01*
G01X11910Y4122D01*
G01X11925Y4125D01*
G01X11955Y4133D01*
G01X11970Y4138D01*
G01X11984Y4144D01*
G01X11998Y4151D01*
G01X12012Y4159D01*
G01X12025Y4167D01*
G01X12051Y4185D01*
G01X12062Y4195D01*
G01X12074Y4206D01*
G01X12085Y4217D01*
G01X12094Y4229D01*
G01X12104Y4242D01*
G01X12113Y4254D01*
G01X12121Y4267D01*
G01X12135Y4295D01*
G01X12141Y4310D01*
G01X12151Y4340D01*
G01X12155Y4355D01*
G01X12159Y4385D01*
G01X12161Y4417D01*
G01X12160Y4432D01*
G01X12159Y4448D01*
G01X12155Y4478D01*
G01X12151Y4494D01*
G01X12146Y4509D01*
G01X12141Y4523D01*
G01X12135Y4538D01*
G01X12128Y4552D01*
G01X12121Y4565D01*
G01X12113Y4579D01*
G01X12104Y4592D01*
G01X12094Y4604D01*
G01X12085Y4616D01*
G01X12074Y4627D01*
G01X12062Y4638D01*
G01X12051Y4648D01*
G01X12012Y4675D01*
G01X11998Y4682D01*
G01X11970Y4694D01*
G01X11955Y4700D01*
G01X11925Y4708D01*
G01X11910Y4711D01*
G01X11894Y4713D01*
G01X11879Y4714D01*
G01X11454Y4714D01*
G01X11438Y4713D01*
G01X11422Y4711D01*
G01X11390Y4703D01*
G01X11375Y4699D01*
G01X11345Y4687D01*
G01X11331Y4680D01*
G01X11317Y4672D01*
G01X11303Y4663D01*
G01X11290Y4654D01*
G01X11277Y4644D01*
G01X11265Y4633D01*
G01X11243Y4609D01*
G01X11233Y4597D01*
G01X11223Y4584D01*
G01X11219Y4579D01*
G01X11215Y4575D01*
G01X11209Y4571D01*
G01X11197Y4567D01*
G01X11185Y4567D01*
G01X11179Y4568D01*
G01X11174Y4570D01*
G01X11164Y4576D01*
G01X11160Y4580D01*
G01X11154Y4590D01*
G01X11152Y4595D01*
G01X11151Y4601D01*
G01X11151Y6146D01*
G01X11152Y6152D01*
G01X11155Y6157D01*
G01X11158Y6163D01*
G01X11162Y6168D01*
G01X12127Y7133D01*
G01X12132Y7137D01*
G01X12215Y7196D01*
G01X12220Y7199D01*
G01X12232Y7203D01*
G01X12636Y7203D01*
G01X12646Y7204D01*
G01X12655Y7205D01*
G01X12664Y7207D01*
G01X12673Y7210D01*
G01X12689Y7218D01*
G01X12697Y7224D01*
G01X12711Y7236D01*
G01X12717Y7243D01*
G01X12727Y7259D01*
G01X12733Y7277D01*
G01X12737Y7295D01*
G01X12737Y7904D01*
G01X12735Y7913D01*
G01X12733Y7923D01*
G01X12730Y7931D01*
G01X12727Y7940D01*
G01X12717Y7956D01*
G01X12711Y7963D01*
G01X12697Y7975D01*
G01X12689Y7981D01*
G01X12673Y7989D01*
G01X12664Y7992D01*
G01X12655Y7994D01*
G01X12646Y7995D01*
G01X12636Y7996D01*
G01X12124Y7996D01*
G01X12106Y7994D01*
G01X12097Y7992D01*
G01X12088Y7989D01*
G01X12079Y7985D01*
G01X12071Y7981D01*
G01X12064Y7975D01*
G01X12056Y7969D01*
G01X12050Y7963D01*
G01X12044Y7956D01*
G01X12034Y7940D01*
G01X12030Y7931D01*
G01X12027Y7923D01*
G01X12025Y7913D01*
G01X12023Y7895D01*
G01X12023Y7805D01*
G01X12019Y7793D01*
G01X12011Y7783D01*
G01X12007Y7779D01*
G01X11953Y7752D01*
G01X11947Y7751D01*
G01X11667Y7751D01*
G01X11661Y7752D01*
G01X11656Y7755D01*
G01X11613Y7776D01*
G01X11608Y7779D01*
G01X11603Y7783D01*
G01X11599Y7788D01*
G01X11596Y7793D01*
G01X11593Y7799D01*
G01X11592Y7805D01*
G01X11591Y7812D01*
G01X11591Y7914D01*
G01X11587Y7932D01*
G01X11581Y7950D01*
G01X11576Y7958D01*
G01X11571Y7965D01*
G01X11565Y7973D01*
G01X11551Y7985D01*
G01X11535Y7995D01*
G01X11527Y7999D01*
G01X11518Y8002D01*
G01X11509Y8004D01*
G01X11499Y8005D01*
G01X11490Y8006D01*
G37*
G36*
G01X3991Y1022D02*
G01X3817Y1022D01*
G01X3817Y793D01*
G01X3890Y793D01*
G01X3899Y794D01*
G01X3909Y795D01*
G01X3918Y797D01*
G01X3926Y800D01*
G01X3935Y804D01*
G01X3951Y814D01*
G01X3965Y826D01*
G01X3971Y834D01*
G01X3976Y841D01*
G01X3980Y849D01*
G01X3984Y858D01*
G01X3987Y867D01*
G01X3991Y885D01*
G01X3991Y1022D01*
G37*
G36*
G01X3570Y1022D02*
G01X3395Y1022D01*
G01X3395Y894D01*
G01X3397Y876D01*
G01X3399Y867D01*
G01X3402Y858D01*
G01X3406Y849D01*
G01X3411Y841D01*
G01X3416Y834D01*
G01X3422Y826D01*
G01X3428Y820D01*
G01X3436Y814D01*
G01X3443Y809D01*
G01X3451Y804D01*
G01X3460Y800D01*
G01X3469Y797D01*
G01X3478Y795D01*
G01X3496Y793D01*
G01X3570Y793D01*
G01X3570Y1022D01*
G37*
G36*
G01X2141Y1022D02*
G01X1967Y1022D01*
G01X1967Y793D01*
G01X2040Y793D01*
G01X2049Y794D01*
G01X2059Y795D01*
G01X2068Y797D01*
G01X2076Y800D01*
G01X2085Y804D01*
G01X2101Y814D01*
G01X2115Y826D01*
G01X2121Y834D01*
G01X2126Y841D01*
G01X2130Y849D01*
G01X2134Y858D01*
G01X2137Y867D01*
G01X2141Y885D01*
G01X2141Y1022D01*
G37*
G36*
G01X1720Y1022D02*
G01X1545Y1022D01*
G01X1545Y894D01*
G01X1547Y876D01*
G01X1549Y867D01*
G01X1552Y858D01*
G01X1556Y849D01*
G01X1561Y841D01*
G01X1566Y834D01*
G01X1572Y826D01*
G01X1578Y820D01*
G01X1586Y814D01*
G01X1593Y809D01*
G01X1601Y804D01*
G01X1610Y800D01*
G01X1619Y797D01*
G01X1628Y795D01*
G01X1646Y793D01*
G01X1720Y793D01*
G01X1720Y1022D01*
G37*
G36*
G01X3590Y9206D02*
G01X3196Y9206D01*
G01X3178Y9204D01*
G01X3169Y9202D01*
G01X3160Y9199D01*
G01X3151Y9195D01*
G01X3143Y9190D01*
G01X3136Y9185D01*
G01X3128Y9179D01*
G01X3122Y9173D01*
G01X3116Y9165D01*
G01X3111Y9158D01*
G01X3106Y9150D01*
G01X3102Y9141D01*
G01X3099Y9132D01*
G01X3097Y9123D01*
G01X3095Y9105D01*
G01X3095Y8494D01*
G01X3097Y8476D01*
G01X3099Y8467D01*
G01X3102Y8459D01*
G01X3103Y8457D01*
G01X3190Y8184D01*
G01X3192Y8178D01*
G01X3192Y8087D01*
G01X3188Y8075D01*
G01X3185Y8070D01*
G01X3181Y8065D01*
G01X2978Y7862D01*
G01X2973Y7858D01*
G01X2968Y7855D01*
G01X2956Y7851D01*
G01X2700Y7851D01*
G01X2686Y7850D01*
G01X2673Y7849D01*
G01X2660Y7847D01*
G01X2648Y7844D01*
G01X2635Y7840D01*
G01X2611Y7830D01*
G01X2599Y7823D01*
G01X2588Y7817D01*
G01X2577Y7809D01*
G01X2567Y7801D01*
G01X2557Y7792D01*
G01X2057Y7292D01*
G01X2048Y7282D01*
G01X2040Y7272D01*
G01X2032Y7261D01*
G01X2026Y7250D01*
G01X2019Y7238D01*
G01X2009Y7214D01*
G01X2005Y7201D01*
G01X2002Y7189D01*
G01X2000Y7176D01*
G01X1998Y7150D01*
G01X1998Y7148D01*
G01X2000Y7025D01*
G01X1998Y7013D01*
G01X1912Y6734D01*
G01X1910Y6725D01*
G01X1908Y6705D01*
G01X1908Y6622D01*
G01X1906Y6610D01*
G01X1904Y6605D01*
G01X1724Y6223D01*
G01X1721Y6218D01*
G01X1717Y6213D01*
G01X1707Y6205D01*
G01X1701Y6203D01*
G01X1694Y6201D01*
G01X1450Y6201D01*
G01X1436Y6200D01*
G01X1423Y6199D01*
G01X1410Y6197D01*
G01X1398Y6194D01*
G01X1385Y6190D01*
G01X1361Y6180D01*
G01X1349Y6173D01*
G01X1338Y6167D01*
G01X1327Y6159D01*
G01X1317Y6151D01*
G01X1307Y6142D01*
G01X913Y5748D01*
G01X904Y5738D01*
G01X896Y5728D01*
G01X888Y5717D01*
G01X882Y5706D01*
G01X875Y5694D01*
G01X865Y5670D01*
G01X861Y5657D01*
G01X858Y5645D01*
G01X856Y5632D01*
G01X855Y5619D01*
G01X855Y4776D01*
G01X853Y4764D01*
G01X763Y4486D01*
G01X760Y4476D01*
G01X759Y4465D01*
G01X758Y4455D01*
G01X758Y3844D01*
G01X759Y3834D01*
G01X760Y3823D01*
G01X763Y3813D01*
G01X853Y3535D01*
G01X855Y3523D01*
G01X855Y3376D01*
G01X853Y3364D01*
G01X763Y3086D01*
G01X760Y3076D01*
G01X759Y3065D01*
G01X758Y3055D01*
G01X758Y2444D01*
G01X759Y2434D01*
G01X760Y2423D01*
G01X763Y2413D01*
G01X853Y2135D01*
G01X855Y2123D01*
G01X855Y1826D01*
G01X853Y1814D01*
G01X763Y1536D01*
G01X760Y1526D01*
G01X759Y1515D01*
G01X758Y1505D01*
G01X758Y894D01*
G01X760Y876D01*
G01X762Y867D01*
G01X765Y858D01*
G01X769Y849D01*
G01X773Y841D01*
G01X778Y834D01*
G01X784Y826D01*
G01X798Y814D01*
G01X814Y804D01*
G01X823Y800D01*
G01X831Y797D01*
G01X840Y795D01*
G01X850Y794D01*
G01X859Y793D01*
G01X1253Y793D01*
G01X1271Y795D01*
G01X1280Y797D01*
G01X1289Y800D01*
G01X1298Y804D01*
G01X1306Y809D01*
G01X1313Y814D01*
G01X1321Y820D01*
G01X1327Y826D01*
G01X1333Y834D01*
G01X1338Y841D01*
G01X1343Y849D01*
G01X1347Y858D01*
G01X1350Y867D01*
G01X1352Y876D01*
G01X1354Y894D01*
G01X1354Y1505D01*
G01X1353Y1516D01*
G01X1351Y1526D01*
G01X1348Y1537D01*
G01X1348Y1538D01*
G01X1259Y1815D01*
G01X1257Y1821D01*
G01X1257Y2128D01*
G01X1259Y2134D01*
G01X1349Y2413D01*
G01X1351Y2423D01*
G01X1353Y2434D01*
G01X1354Y2444D01*
G01X1354Y3055D01*
G01X1353Y3065D01*
G01X1351Y3076D01*
G01X1349Y3086D01*
G01X1259Y3365D01*
G01X1257Y3371D01*
G01X1257Y3528D01*
G01X1259Y3534D01*
G01X1349Y3813D01*
G01X1351Y3823D01*
G01X1353Y3834D01*
G01X1354Y3844D01*
G01X1354Y4455D01*
G01X1353Y4465D01*
G01X1351Y4476D01*
G01X1349Y4486D01*
G01X1259Y4765D01*
G01X1257Y4771D01*
G01X1257Y5512D01*
G01X1261Y5524D01*
G01X1264Y5529D01*
G01X1268Y5534D01*
G01X1521Y5787D01*
G01X1526Y5791D01*
G01X1531Y5794D01*
G01X1543Y5798D01*
G01X1805Y5798D01*
G01X1819Y5799D01*
G01X1832Y5800D01*
G01X1846Y5803D01*
G01X1859Y5806D01*
G01X1872Y5810D01*
G01X1896Y5820D01*
G01X1908Y5827D01*
G01X1919Y5834D01*
G01X1930Y5842D01*
G01X1941Y5851D01*
G01X1942Y5852D01*
G01X2100Y5984D01*
G01X2106Y5988D01*
G01X2112Y5991D01*
G01X2119Y5993D01*
G01X2403Y5993D01*
G01X2421Y5995D01*
G01X2430Y5997D01*
G01X2439Y6000D01*
G01X2448Y6004D01*
G01X2456Y6009D01*
G01X2463Y6014D01*
G01X2471Y6020D01*
G01X2477Y6026D01*
G01X2483Y6034D01*
G01X2488Y6041D01*
G01X2493Y6049D01*
G01X2497Y6058D01*
G01X2500Y6067D01*
G01X2502Y6076D01*
G01X2504Y6094D01*
G01X2504Y6705D01*
G01X2503Y6716D01*
G01X2501Y6726D01*
G01X2498Y6737D01*
G01X2404Y7016D01*
G01X2402Y7022D01*
G01X2401Y7028D01*
G01X2401Y7051D01*
G01X2403Y7063D01*
G01X2406Y7069D01*
G01X2409Y7074D01*
G01X2413Y7079D01*
G01X2771Y7437D01*
G01X2776Y7441D01*
G01X2781Y7444D01*
G01X2793Y7448D01*
G01X3050Y7448D01*
G01X3076Y7450D01*
G01X3089Y7452D01*
G01X3101Y7455D01*
G01X3114Y7459D01*
G01X3138Y7469D01*
G01X3150Y7476D01*
G01X3161Y7482D01*
G01X3172Y7490D01*
G01X3182Y7498D01*
G01X3192Y7507D01*
G01X3536Y7851D01*
G01X3545Y7861D01*
G01X3553Y7871D01*
G01X3561Y7882D01*
G01X3567Y7893D01*
G01X3574Y7905D01*
G01X3584Y7929D01*
G01X3588Y7942D01*
G01X3591Y7954D01*
G01X3593Y7967D01*
G01X3594Y7980D01*
G01X3594Y8173D01*
G01X3595Y8179D01*
G01X3596Y8186D01*
G01X3686Y8463D01*
G01X3689Y8473D01*
G01X3691Y8484D01*
G01X3692Y8494D01*
G01X3691Y8503D01*
G01X3691Y9114D01*
G01X3687Y9132D01*
G01X3684Y9141D01*
G01X3680Y9150D01*
G01X3676Y9158D01*
G01X3671Y9165D01*
G01X3665Y9173D01*
G01X3651Y9185D01*
G01X3635Y9195D01*
G01X3626Y9199D01*
G01X3618Y9202D01*
G01X3609Y9204D01*
G01X3599Y9205D01*
G01X3590Y9206D01*
G37*
G36*
G01X13244Y1880D02*
G01X12820Y1880D01*
G01X12805Y1878D01*
G01X12789Y1876D01*
G01X12759Y1870D01*
G01X12729Y1860D01*
G01X12714Y1854D01*
G01X12701Y1848D01*
G01X12673Y1832D01*
G01X12660Y1823D01*
G01X12648Y1814D01*
G01X12636Y1803D01*
G01X12625Y1793D01*
G01X12614Y1782D01*
G01X12604Y1769D01*
G01X12595Y1757D01*
G01X12586Y1744D01*
G01X12578Y1731D01*
G01X12570Y1717D01*
G01X12564Y1703D01*
G01X12557Y1689D01*
G01X12552Y1674D01*
G01X12544Y1644D01*
G01X12542Y1629D01*
G01X12539Y1613D01*
G01X12538Y1598D01*
G01X12538Y1567D01*
G01X12539Y1551D01*
G01X12542Y1536D01*
G01X12544Y1520D01*
G01X12552Y1490D01*
G01X12557Y1476D01*
G01X12564Y1461D01*
G01X12570Y1447D01*
G01X12578Y1433D01*
G01X12586Y1420D01*
G01X12595Y1407D01*
G01X12604Y1395D01*
G01X12614Y1383D01*
G01X12625Y1371D01*
G01X12636Y1361D01*
G01X12660Y1341D01*
G01X12673Y1332D01*
G01X12687Y1324D01*
G01X12701Y1317D01*
G01X12714Y1310D01*
G01X12729Y1304D01*
G01X12759Y1294D01*
G01X12789Y1288D01*
G01X12805Y1286D01*
G01X12820Y1285D01*
G01X12836Y1284D01*
G01X13229Y1284D01*
G01X13244Y1285D01*
G01X13260Y1286D01*
G01X13276Y1288D01*
G01X13306Y1294D01*
G01X13321Y1299D01*
G01X13335Y1304D01*
G01X13350Y1310D01*
G01X13378Y1324D01*
G01X13391Y1332D01*
G01X13404Y1341D01*
G01X13428Y1361D01*
G01X13439Y1371D01*
G01X13450Y1383D01*
G01X13470Y1407D01*
G01X13479Y1420D01*
G01X13487Y1433D01*
G01X13501Y1461D01*
G01X13507Y1476D01*
G01X13512Y1490D01*
G01X13517Y1505D01*
G01X13520Y1520D01*
G01X13523Y1536D01*
G01X13525Y1551D01*
G01X13526Y1567D01*
G01X13527Y1582D01*
G01X13526Y1598D01*
G01X13525Y1613D01*
G01X13523Y1629D01*
G01X13517Y1659D01*
G01X13507Y1689D01*
G01X13501Y1703D01*
G01X13487Y1731D01*
G01X13479Y1744D01*
G01X13470Y1757D01*
G01X13460Y1769D01*
G01X13450Y1782D01*
G01X13439Y1793D01*
G01X13428Y1803D01*
G01X13416Y1814D01*
G01X13404Y1823D01*
G01X13391Y1832D01*
G01X13378Y1840D01*
G01X13364Y1848D01*
G01X13350Y1854D01*
G01X13335Y1860D01*
G01X13321Y1865D01*
G01X13306Y1870D01*
G01X13276Y1876D01*
G01X13244Y1880D01*
G37*
G36*
G01X11879Y1880D02*
G01X11454Y1880D01*
G01X11439Y1879D01*
G01X11423Y1877D01*
G01X11408Y1874D01*
G01X11378Y1866D01*
G01X11363Y1861D01*
G01X11349Y1855D01*
G01X11335Y1848D01*
G01X11321Y1840D01*
G01X11308Y1832D01*
G01X11282Y1814D01*
G01X11271Y1804D01*
G01X11259Y1793D01*
G01X11248Y1782D01*
G01X11239Y1770D01*
G01X11229Y1757D01*
G01X11220Y1745D01*
G01X11212Y1732D01*
G01X11198Y1704D01*
G01X11192Y1689D01*
G01X11187Y1675D01*
G01X11182Y1659D01*
G01X11178Y1644D01*
G01X11174Y1614D01*
G01X11172Y1598D01*
G01X11172Y1567D01*
G01X11174Y1551D01*
G01X11178Y1521D01*
G01X11182Y1505D01*
G01X11187Y1490D01*
G01X11192Y1476D01*
G01X11198Y1461D01*
G01X11205Y1447D01*
G01X11212Y1434D01*
G01X11220Y1420D01*
G01X11229Y1407D01*
G01X11239Y1395D01*
G01X11248Y1383D01*
G01X11259Y1372D01*
G01X11271Y1361D01*
G01X11282Y1351D01*
G01X11308Y1333D01*
G01X11321Y1325D01*
G01X11335Y1317D01*
G01X11363Y1305D01*
G01X11378Y1299D01*
G01X11408Y1291D01*
G01X11423Y1288D01*
G01X11439Y1286D01*
G01X11454Y1285D01*
G01X11879Y1285D01*
G01X11894Y1286D01*
G01X11910Y1288D01*
G01X11925Y1291D01*
G01X11955Y1299D01*
G01X11970Y1305D01*
G01X11998Y1317D01*
G01X12012Y1325D01*
G01X12025Y1333D01*
G01X12051Y1351D01*
G01X12062Y1361D01*
G01X12074Y1372D01*
G01X12085Y1383D01*
G01X12094Y1395D01*
G01X12104Y1407D01*
G01X12113Y1420D01*
G01X12121Y1434D01*
G01X12128Y1447D01*
G01X12135Y1461D01*
G01X12141Y1476D01*
G01X12146Y1490D01*
G01X12151Y1505D01*
G01X12155Y1521D01*
G01X12159Y1551D01*
G01X12160Y1567D01*
G01X12161Y1582D01*
G01X12159Y1614D01*
G01X12155Y1644D01*
G01X12151Y1659D01*
G01X12146Y1675D01*
G01X12141Y1689D01*
G01X12135Y1704D01*
G01X12121Y1732D01*
G01X12113Y1745D01*
G01X12104Y1757D01*
G01X12094Y1770D01*
G01X12085Y1782D01*
G01X12074Y1793D01*
G01X12062Y1804D01*
G01X12051Y1814D01*
G01X12025Y1832D01*
G01X12012Y1840D01*
G01X11998Y1848D01*
G01X11984Y1855D01*
G01X11970Y1861D01*
G01X11955Y1866D01*
G01X11925Y1874D01*
G01X11910Y1877D01*
G01X11894Y1879D01*
G01X11879Y1880D01*
G37*
G36*
G01X1720Y1606D02*
G01X1646Y1606D01*
G01X1628Y1604D01*
G01X1619Y1602D01*
G01X1610Y1599D01*
G01X1601Y1595D01*
G01X1593Y1590D01*
G01X1586Y1585D01*
G01X1578Y1579D01*
G01X1572Y1573D01*
G01X1566Y1565D01*
G01X1561Y1558D01*
G01X1556Y1550D01*
G01X1552Y1541D01*
G01X1549Y1532D01*
G01X1547Y1523D01*
G01X1545Y1505D01*
G01X1545Y1377D01*
G01X1720Y1377D01*
G01X1720Y1606D01*
G37*
G36*
G01X2040Y1606D02*
G01X1967Y1606D01*
G01X1967Y1377D01*
G01X2141Y1377D01*
G01X2141Y1514D01*
G01X2137Y1532D01*
G01X2134Y1541D01*
G01X2130Y1550D01*
G01X2126Y1558D01*
G01X2121Y1565D01*
G01X2115Y1573D01*
G01X2101Y1585D01*
G01X2085Y1595D01*
G01X2076Y1599D01*
G01X2068Y1602D01*
G01X2059Y1604D01*
G01X2049Y1605D01*
G01X2040Y1606D01*
G37*
G36*
G01X3890Y1606D02*
G01X3817Y1606D01*
G01X3817Y1377D01*
G01X3991Y1377D01*
G01X3991Y1514D01*
G01X3987Y1532D01*
G01X3984Y1541D01*
G01X3980Y1550D01*
G01X3976Y1558D01*
G01X3971Y1565D01*
G01X3965Y1573D01*
G01X3951Y1585D01*
G01X3935Y1595D01*
G01X3926Y1599D01*
G01X3918Y1602D01*
G01X3909Y1604D01*
G01X3899Y1605D01*
G01X3890Y1606D01*
G37*
G36*
G01X3570Y1606D02*
G01X3496Y1606D01*
G01X3478Y1604D01*
G01X3469Y1602D01*
G01X3460Y1599D01*
G01X3451Y1595D01*
G01X3443Y1590D01*
G01X3436Y1585D01*
G01X3428Y1579D01*
G01X3422Y1573D01*
G01X3416Y1565D01*
G01X3411Y1558D01*
G01X3406Y1550D01*
G01X3402Y1541D01*
G01X3399Y1532D01*
G01X3397Y1523D01*
G01X3395Y1505D01*
G01X3395Y1377D01*
G01X3570Y1377D01*
G01X3570Y1606D01*
G37*
G36*
G01X5411Y2388D02*
G01X5227Y2388D01*
G01X5227Y2096D01*
G01X5320Y2096D01*
G01X5329Y2097D01*
G01X5338Y2099D01*
G01X5347Y2102D01*
G01X5355Y2106D01*
G01X5364Y2111D01*
G01X5371Y2116D01*
G01X5385Y2128D01*
G01X5391Y2136D01*
G01X5396Y2143D01*
G01X5401Y2151D01*
G01X5405Y2160D01*
G01X5408Y2169D01*
G01X5410Y2178D01*
G01X5411Y2187D01*
G01X5411Y2388D01*
G37*
G36*
G01X4961Y2388D02*
G01X4776Y2388D01*
G01X4776Y2196D01*
G01X4778Y2178D01*
G01X4780Y2169D01*
G01X4783Y2160D01*
G01X4787Y2151D01*
G01X4792Y2143D01*
G01X4797Y2136D01*
G01X4803Y2128D01*
G01X4809Y2122D01*
G01X4817Y2116D01*
G01X4824Y2111D01*
G01X4832Y2106D01*
G01X4841Y2102D01*
G01X4850Y2099D01*
G01X4859Y2097D01*
G01X4868Y2096D01*
G01X4961Y2096D01*
G01X4961Y2388D01*
G37*
G36*
G01X8514Y5791D02*
G01X7894Y5791D01*
G01X7884Y5790D01*
G01X7873Y5789D01*
G01X7863Y5786D01*
G01X7585Y5696D01*
G01X7573Y5694D01*
G01X6410Y5694D01*
G01X6397Y5693D01*
G01X6384Y5691D01*
G01X6372Y5688D01*
G01X6359Y5684D01*
G01X6335Y5674D01*
G01X6323Y5667D01*
G01X6312Y5661D01*
G01X6301Y5653D01*
G01X6291Y5645D01*
G01X6281Y5636D01*
G01X6261Y5615D01*
G01X6256Y5611D01*
G01X6251Y5608D01*
G01X6245Y5605D01*
G01X6233Y5603D01*
G01X5301Y5603D01*
G01X5292Y5602D01*
G01X5283Y5600D01*
G01X5274Y5597D01*
G01X5265Y5593D01*
G01X5257Y5588D01*
G01X5250Y5583D01*
G01X5242Y5577D01*
G01X5236Y5571D01*
G01X5230Y5563D01*
G01X5225Y5556D01*
G01X5220Y5548D01*
G01X5216Y5539D01*
G01X5213Y5530D01*
G01X5211Y5521D01*
G01X5209Y5503D01*
G01X5209Y4636D01*
G01X5211Y4618D01*
G01X5213Y4609D01*
G01X5216Y4600D01*
G01X5220Y4592D01*
G01X5225Y4583D01*
G01X5230Y4576D01*
G01X5236Y4568D01*
G01X5242Y4562D01*
G01X5250Y4556D01*
G01X5257Y4551D01*
G01X5265Y4546D01*
G01X5274Y4542D01*
G01X5283Y4539D01*
G01X5292Y4537D01*
G01X5301Y4536D01*
G01X5662Y4536D01*
G01X5669Y4535D01*
G01X5675Y4534D01*
G01X5681Y4531D01*
G01X5686Y4528D01*
G01X5695Y4519D01*
G01X5797Y4315D01*
G01X5798Y4309D01*
G01X5798Y3382D01*
G01X5796Y3375D01*
G01X5690Y3101D01*
G01X5689Y3101D01*
G01X5686Y3091D01*
G01X5684Y3082D01*
G01X5682Y3072D01*
G01X5682Y2187D01*
G01X5686Y2169D01*
G01X5692Y2151D01*
G01X5697Y2143D01*
G01X5702Y2136D01*
G01X5708Y2128D01*
G01X5722Y2116D01*
G01X5738Y2106D01*
G01X5746Y2102D01*
G01X5755Y2099D01*
G01X5765Y2097D01*
G01X5774Y2096D01*
G01X6225Y2096D01*
G01X6235Y2097D01*
G01X6244Y2099D01*
G01X6252Y2102D01*
G01X6261Y2106D01*
G01X6277Y2116D01*
G01X6291Y2128D01*
G01X6297Y2136D01*
G01X6302Y2143D01*
G01X6306Y2151D01*
G01X6310Y2160D01*
G01X6313Y2169D01*
G01X6317Y2187D01*
G01X6317Y3072D01*
G01X6313Y3090D01*
G01X6310Y3099D01*
G01X6203Y3375D01*
G01X6201Y3382D01*
G01X6201Y4309D01*
G01X6202Y4315D01*
G01X6304Y4519D01*
G01X6313Y4528D01*
G01X6318Y4531D01*
G01X6324Y4534D01*
G01X6330Y4535D01*
G01X6337Y4536D01*
G01X6698Y4536D01*
G01X6707Y4537D01*
G01X6716Y4539D01*
G01X6725Y4542D01*
G01X6734Y4546D01*
G01X6742Y4551D01*
G01X6749Y4556D01*
G01X6763Y4568D01*
G01X6769Y4576D01*
G01X6774Y4583D01*
G01X6779Y4592D01*
G01X6783Y4600D01*
G01X6786Y4609D01*
G01X6788Y4618D01*
G01X6789Y4627D01*
G01X6789Y5253D01*
G01X6790Y5258D01*
G01X6791Y5264D01*
G01X6793Y5269D01*
G01X6799Y5279D01*
G01X6803Y5283D01*
G01X6813Y5289D01*
G01X6818Y5291D01*
G01X6824Y5292D01*
G01X7577Y5292D01*
G01X7584Y5290D01*
G01X7863Y5200D01*
G01X7873Y5198D01*
G01X7884Y5196D01*
G01X7894Y5195D01*
G01X8505Y5195D01*
G01X8523Y5197D01*
G01X8532Y5199D01*
G01X8541Y5202D01*
G01X8550Y5206D01*
G01X8558Y5211D01*
G01X8565Y5216D01*
G01X8573Y5222D01*
G01X8579Y5228D01*
G01X8585Y5236D01*
G01X8590Y5243D01*
G01X8595Y5251D01*
G01X8599Y5260D01*
G01X8602Y5269D01*
G01X8604Y5278D01*
G01X8606Y5296D01*
G01X8606Y5690D01*
G01X8605Y5699D01*
G01X8604Y5709D01*
G01X8602Y5718D01*
G01X8599Y5726D01*
G01X8595Y5735D01*
G01X8585Y5751D01*
G01X8573Y5765D01*
G01X8565Y5771D01*
G01X8558Y5776D01*
G01X8550Y5780D01*
G01X8541Y5784D01*
G01X8532Y5787D01*
G01X8514Y5791D01*
G37*
G36*
G01X3991Y2522D02*
G01X3817Y2522D01*
G01X3817Y2293D01*
G01X3890Y2293D01*
G01X3899Y2294D01*
G01X3909Y2295D01*
G01X3918Y2297D01*
G01X3926Y2300D01*
G01X3935Y2304D01*
G01X3951Y2314D01*
G01X3965Y2326D01*
G01X3971Y2334D01*
G01X3976Y2341D01*
G01X3980Y2349D01*
G01X3984Y2358D01*
G01X3987Y2367D01*
G01X3991Y2385D01*
G01X3991Y2522D01*
G37*
G36*
G01X3570Y2522D02*
G01X3395Y2522D01*
G01X3395Y2394D01*
G01X3397Y2376D01*
G01X3399Y2367D01*
G01X3402Y2358D01*
G01X3406Y2349D01*
G01X3411Y2341D01*
G01X3416Y2334D01*
G01X3422Y2326D01*
G01X3428Y2320D01*
G01X3436Y2314D01*
G01X3443Y2309D01*
G01X3451Y2304D01*
G01X3460Y2300D01*
G01X3469Y2297D01*
G01X3478Y2295D01*
G01X3496Y2293D01*
G01X3570Y2293D01*
G01X3570Y2522D01*
G37*
G36*
G01X2141Y2572D02*
G01X1967Y2572D01*
G01X1967Y2343D01*
G01X2040Y2343D01*
G01X2049Y2344D01*
G01X2059Y2345D01*
G01X2068Y2347D01*
G01X2076Y2350D01*
G01X2085Y2354D01*
G01X2101Y2364D01*
G01X2115Y2376D01*
G01X2121Y2384D01*
G01X2126Y2391D01*
G01X2130Y2399D01*
G01X2134Y2408D01*
G01X2137Y2417D01*
G01X2141Y2435D01*
G01X2141Y2572D01*
G37*
G36*
G01X1720Y2572D02*
G01X1545Y2572D01*
G01X1545Y2444D01*
G01X1547Y2426D01*
G01X1549Y2417D01*
G01X1552Y2408D01*
G01X1556Y2399D01*
G01X1561Y2391D01*
G01X1566Y2384D01*
G01X1572Y2376D01*
G01X1578Y2370D01*
G01X1586Y2364D01*
G01X1593Y2359D01*
G01X1601Y2354D01*
G01X1610Y2350D01*
G01X1619Y2347D01*
G01X1628Y2345D01*
G01X1646Y2343D01*
G01X1720Y2343D01*
G01X1720Y2572D01*
G37*
G36*
G01X5320Y3163D02*
G01X5227Y3163D01*
G01X5227Y2871D01*
G01X5411Y2871D01*
G01X5411Y3072D01*
G01X5410Y3081D01*
G01X5408Y3090D01*
G01X5405Y3099D01*
G01X5401Y3107D01*
G01X5396Y3116D01*
G01X5391Y3123D01*
G01X5385Y3131D01*
G01X5371Y3143D01*
G01X5364Y3148D01*
G01X5355Y3153D01*
G01X5347Y3157D01*
G01X5338Y3160D01*
G01X5329Y3162D01*
G01X5320Y3163D01*
G37*
G36*
G01X4961Y3163D02*
G01X4868Y3163D01*
G01X4859Y3162D01*
G01X4850Y3160D01*
G01X4841Y3157D01*
G01X4832Y3153D01*
G01X4824Y3148D01*
G01X4817Y3143D01*
G01X4809Y3137D01*
G01X4803Y3131D01*
G01X4797Y3123D01*
G01X4792Y3116D01*
G01X4787Y3107D01*
G01X4783Y3099D01*
G01X4780Y3090D01*
G01X4778Y3081D01*
G01X4776Y3063D01*
G01X4776Y2871D01*
G01X4961Y2871D01*
G01X4961Y3163D01*
G37*
G36*
G01X3890Y3106D02*
G01X3817Y3106D01*
G01X3817Y2877D01*
G01X3991Y2877D01*
G01X3991Y3014D01*
G01X3987Y3032D01*
G01X3984Y3041D01*
G01X3980Y3050D01*
G01X3976Y3058D01*
G01X3971Y3065D01*
G01X3965Y3073D01*
G01X3951Y3085D01*
G01X3935Y3095D01*
G01X3926Y3099D01*
G01X3918Y3102D01*
G01X3909Y3104D01*
G01X3899Y3105D01*
G01X3890Y3106D01*
G37*
G36*
G01X3570Y3106D02*
G01X3496Y3106D01*
G01X3478Y3104D01*
G01X3469Y3102D01*
G01X3460Y3099D01*
G01X3451Y3095D01*
G01X3443Y3090D01*
G01X3436Y3085D01*
G01X3428Y3079D01*
G01X3422Y3073D01*
G01X3416Y3065D01*
G01X3411Y3058D01*
G01X3406Y3050D01*
G01X3402Y3041D01*
G01X3399Y3032D01*
G01X3397Y3023D01*
G01X3395Y3005D01*
G01X3395Y2877D01*
G01X3570Y2877D01*
G01X3570Y3106D01*
G37*
G36*
G01X2040Y3156D02*
G01X1967Y3156D01*
G01X1967Y2927D01*
G01X2141Y2927D01*
G01X2141Y3064D01*
G01X2137Y3082D01*
G01X2134Y3091D01*
G01X2130Y3100D01*
G01X2126Y3108D01*
G01X2121Y3115D01*
G01X2115Y3123D01*
G01X2101Y3135D01*
G01X2085Y3145D01*
G01X2076Y3149D01*
G01X2068Y3152D01*
G01X2059Y3154D01*
G01X2049Y3155D01*
G01X2040Y3156D01*
G37*
G36*
G01X1720Y3156D02*
G01X1646Y3156D01*
G01X1628Y3154D01*
G01X1619Y3152D01*
G01X1610Y3149D01*
G01X1601Y3145D01*
G01X1593Y3140D01*
G01X1586Y3135D01*
G01X1578Y3129D01*
G01X1572Y3123D01*
G01X1566Y3115D01*
G01X1561Y3108D01*
G01X1556Y3100D01*
G01X1552Y3091D01*
G01X1549Y3082D01*
G01X1547Y3073D01*
G01X1545Y3055D01*
G01X1545Y2927D01*
G01X1720Y2927D01*
G01X1720Y3156D01*
G37*
G36*
G01X12214Y4024D02*
G01X12186Y4026D01*
G01X12158Y4024D01*
G01X12145Y4022D01*
G01X12131Y4019D01*
G01X12118Y4016D01*
G01X12092Y4006D01*
G01X12079Y4000D01*
G01X12067Y3994D01*
G01X12043Y3978D01*
G01X12033Y3970D01*
G01X12022Y3961D01*
G01X12013Y3951D01*
G01X12003Y3940D01*
G01X11994Y3930D01*
G01X11986Y3918D01*
G01X11979Y3906D01*
G01X11967Y3882D01*
G01X11962Y3869D01*
G01X11957Y3855D01*
G01X11954Y3842D01*
G01X11951Y3828D01*
G01X11949Y3815D01*
G01X11947Y3787D01*
G01X11949Y3759D01*
G01X11951Y3744D01*
G01X11952Y3737D01*
G01X11951Y3732D01*
G01X11950Y3726D01*
G01X11948Y3721D01*
G01X11946Y3715D01*
G01X11934Y3703D01*
G01X11928Y3701D01*
G01X11923Y3699D01*
G01X11918Y3698D01*
G01X11912Y3697D01*
G01X11911Y3697D01*
G01X11911Y3579D01*
G01X12059Y3579D01*
G01X12071Y3577D01*
G01X12077Y3575D01*
G01X12090Y3568D01*
G01X12103Y3563D01*
G01X12116Y3559D01*
G01X12130Y3555D01*
G01X12144Y3552D01*
G01X12172Y3548D01*
G01X12186Y3548D01*
G01X12202Y3549D01*
G01X12216Y3550D01*
G01X12231Y3552D01*
G01X12244Y3555D01*
G01X12258Y3559D01*
G01X12272Y3564D01*
G01X12298Y3576D01*
G01X12310Y3583D01*
G01X12322Y3591D01*
G01X12334Y3600D01*
G01X12345Y3609D01*
G01X12356Y3619D01*
G01X12365Y3629D01*
G01X12375Y3640D01*
G01X12391Y3664D01*
G01X12398Y3676D01*
G01X12404Y3689D01*
G01X12410Y3703D01*
G01X12414Y3716D01*
G01X12418Y3730D01*
G01X12421Y3744D01*
G01X12423Y3758D01*
G01X12425Y3773D01*
G01X12425Y3801D01*
G01X12423Y3815D01*
G01X12421Y3828D01*
G01X12418Y3842D01*
G01X12415Y3855D01*
G01X12410Y3869D01*
G01X12405Y3882D01*
G01X12400Y3894D01*
G01X12386Y3918D01*
G01X12378Y3930D01*
G01X12369Y3940D01*
G01X12360Y3951D01*
G01X12350Y3961D01*
G01X12339Y3970D01*
G01X12329Y3978D01*
G01X12317Y3986D01*
G01X12306Y3994D01*
G01X12293Y4000D01*
G01X12281Y4006D01*
G01X12255Y4016D01*
G01X12227Y4022D01*
G01X12214Y4024D01*
G37*
G36*
G01X11507Y3697D02*
G01X11346Y3697D01*
G01X11336Y3696D01*
G01X11318Y3690D01*
G01X11302Y3682D01*
G01X11294Y3677D01*
G01X11287Y3671D01*
G01X11275Y3657D01*
G01X11269Y3649D01*
G01X11261Y3633D01*
G01X11258Y3624D01*
G01X11256Y3615D01*
G01X11255Y3605D01*
G01X11254Y3596D01*
G01X11254Y3579D01*
G01X11507Y3579D01*
G01X11507Y3697D01*
G37*
G36*
G01X3991Y3972D02*
G01X3817Y3972D01*
G01X3817Y3743D01*
G01X3890Y3743D01*
G01X3899Y3744D01*
G01X3909Y3745D01*
G01X3918Y3747D01*
G01X3926Y3750D01*
G01X3935Y3754D01*
G01X3951Y3764D01*
G01X3965Y3776D01*
G01X3971Y3784D01*
G01X3976Y3791D01*
G01X3980Y3799D01*
G01X3984Y3808D01*
G01X3987Y3817D01*
G01X3991Y3835D01*
G01X3991Y3972D01*
G37*
G36*
G01X3570Y3972D02*
G01X3395Y3972D01*
G01X3395Y3844D01*
G01X3397Y3826D01*
G01X3399Y3817D01*
G01X3402Y3808D01*
G01X3406Y3799D01*
G01X3411Y3791D01*
G01X3416Y3784D01*
G01X3422Y3776D01*
G01X3428Y3770D01*
G01X3436Y3764D01*
G01X3443Y3759D01*
G01X3451Y3754D01*
G01X3460Y3750D01*
G01X3469Y3747D01*
G01X3478Y3745D01*
G01X3496Y3743D01*
G01X3570Y3743D01*
G01X3570Y3972D01*
G37*
G36*
G01X1720Y3972D02*
G01X1545Y3972D01*
G01X1545Y3844D01*
G01X1547Y3826D01*
G01X1549Y3817D01*
G01X1552Y3808D01*
G01X1556Y3799D01*
G01X1561Y3791D01*
G01X1566Y3784D01*
G01X1572Y3776D01*
G01X1578Y3770D01*
G01X1586Y3764D01*
G01X1593Y3759D01*
G01X1601Y3754D01*
G01X1610Y3750D01*
G01X1619Y3747D01*
G01X1628Y3745D01*
G01X1646Y3743D01*
G01X1720Y3743D01*
G01X1720Y3972D01*
G37*
G36*
G01X2141Y3972D02*
G01X1967Y3972D01*
G01X1967Y3743D01*
G01X2040Y3743D01*
G01X2049Y3744D01*
G01X2059Y3745D01*
G01X2068Y3747D01*
G01X2076Y3750D01*
G01X2085Y3754D01*
G01X2101Y3764D01*
G01X2115Y3776D01*
G01X2121Y3784D01*
G01X2126Y3791D01*
G01X2130Y3799D01*
G01X2134Y3808D01*
G01X2137Y3817D01*
G01X2141Y3835D01*
G01X2141Y3972D01*
G37*
G36*
G01X13229Y4715D02*
G01X12836Y4715D01*
G01X12821Y4714D01*
G01X12805Y4713D01*
G01X12790Y4711D01*
G01X12774Y4708D01*
G01X12759Y4705D01*
G01X12744Y4700D01*
G01X12730Y4695D01*
G01X12715Y4689D01*
G01X12687Y4675D01*
G01X12674Y4667D01*
G01X12661Y4658D01*
G01X12637Y4638D01*
G01X12626Y4628D01*
G01X12615Y4616D01*
G01X12595Y4592D01*
G01X12586Y4579D01*
G01X12578Y4566D01*
G01X12564Y4538D01*
G01X12558Y4523D01*
G01X12553Y4509D01*
G01X12548Y4494D01*
G01X12545Y4479D01*
G01X12542Y4463D01*
G01X12540Y4448D01*
G01X12539Y4432D01*
G01X12538Y4417D01*
G01X12539Y4401D01*
G01X12540Y4386D01*
G01X12542Y4370D01*
G01X12548Y4340D01*
G01X12558Y4310D01*
G01X12564Y4296D01*
G01X12578Y4268D01*
G01X12586Y4255D01*
G01X12595Y4242D01*
G01X12605Y4229D01*
G01X12615Y4217D01*
G01X12626Y4206D01*
G01X12637Y4196D01*
G01X12649Y4185D01*
G01X12661Y4176D01*
G01X12674Y4167D01*
G01X12687Y4159D01*
G01X12701Y4151D01*
G01X12715Y4145D01*
G01X12730Y4139D01*
G01X12744Y4134D01*
G01X12759Y4129D01*
G01X12774Y4126D01*
G01X12790Y4123D01*
G01X12805Y4121D01*
G01X12821Y4119D01*
G01X13245Y4119D01*
G01X13260Y4121D01*
G01X13276Y4123D01*
G01X13306Y4129D01*
G01X13322Y4134D01*
G01X13336Y4139D01*
G01X13351Y4145D01*
G01X13365Y4151D01*
G01X13378Y4159D01*
G01X13392Y4167D01*
G01X13405Y4176D01*
G01X13417Y4185D01*
G01X13429Y4196D01*
G01X13440Y4206D01*
G01X13451Y4217D01*
G01X13461Y4229D01*
G01X13479Y4255D01*
G01X13487Y4268D01*
G01X13495Y4282D01*
G01X13502Y4296D01*
G01X13507Y4310D01*
G01X13513Y4325D01*
G01X13521Y4355D01*
G01X13523Y4370D01*
G01X13526Y4386D01*
G01X13527Y4401D01*
G01X13527Y4432D01*
G01X13526Y4448D01*
G01X13523Y4463D01*
G01X13521Y4479D01*
G01X13513Y4509D01*
G01X13507Y4523D01*
G01X13502Y4538D01*
G01X13495Y4552D01*
G01X13487Y4566D01*
G01X13479Y4579D01*
G01X13470Y4592D01*
G01X13461Y4604D01*
G01X13451Y4616D01*
G01X13440Y4628D01*
G01X13429Y4638D01*
G01X13405Y4658D01*
G01X13392Y4667D01*
G01X13378Y4675D01*
G01X13365Y4682D01*
G01X13351Y4689D01*
G01X13336Y4695D01*
G01X13322Y4700D01*
G01X13306Y4705D01*
G01X13276Y4711D01*
G01X13260Y4713D01*
G01X13245Y4714D01*
G01X13229Y4715D01*
G37*
G36*
G01X3890Y4556D02*
G01X3817Y4556D01*
G01X3817Y4327D01*
G01X3991Y4327D01*
G01X3991Y4464D01*
G01X3987Y4482D01*
G01X3984Y4491D01*
G01X3980Y4500D01*
G01X3976Y4508D01*
G01X3971Y4515D01*
G01X3965Y4523D01*
G01X3951Y4535D01*
G01X3935Y4545D01*
G01X3926Y4549D01*
G01X3918Y4552D01*
G01X3909Y4554D01*
G01X3899Y4555D01*
G01X3890Y4556D01*
G37*
G36*
G01X3570Y4556D02*
G01X3496Y4556D01*
G01X3478Y4554D01*
G01X3469Y4552D01*
G01X3460Y4549D01*
G01X3451Y4545D01*
G01X3443Y4540D01*
G01X3436Y4535D01*
G01X3428Y4529D01*
G01X3422Y4523D01*
G01X3416Y4515D01*
G01X3411Y4508D01*
G01X3406Y4500D01*
G01X3402Y4491D01*
G01X3399Y4482D01*
G01X3397Y4473D01*
G01X3395Y4455D01*
G01X3395Y4327D01*
G01X3570Y4327D01*
G01X3570Y4556D01*
G37*
G36*
G01X1720Y4556D02*
G01X1646Y4556D01*
G01X1628Y4554D01*
G01X1619Y4552D01*
G01X1610Y4549D01*
G01X1601Y4545D01*
G01X1593Y4540D01*
G01X1586Y4535D01*
G01X1578Y4529D01*
G01X1572Y4523D01*
G01X1566Y4515D01*
G01X1561Y4508D01*
G01X1556Y4500D01*
G01X1552Y4491D01*
G01X1549Y4482D01*
G01X1547Y4473D01*
G01X1545Y4455D01*
G01X1545Y4327D01*
G01X1720Y4327D01*
G01X1720Y4556D01*
G37*
G36*
G01X2040Y4556D02*
G01X1967Y4556D01*
G01X1967Y4327D01*
G01X2141Y4327D01*
G01X2141Y4464D01*
G01X2137Y4482D01*
G01X2134Y4491D01*
G01X2130Y4500D01*
G01X2126Y4508D01*
G01X2121Y4515D01*
G01X2115Y4523D01*
G01X2101Y4535D01*
G01X2085Y4545D01*
G01X2076Y4549D01*
G01X2068Y4552D01*
G01X2059Y4554D01*
G01X2049Y4555D01*
G01X2040Y4556D01*
G37*
G36*
G01X8300Y11151D02*
G01X4750Y11151D01*
G01X4726Y11149D01*
G01X4714Y11146D01*
G01X4703Y11143D01*
G01X4692Y11139D01*
G01X4681Y11134D01*
G01X4661Y11122D01*
G01X4651Y11114D01*
G01X3885Y10348D01*
G01X3877Y10338D01*
G01X3865Y10318D01*
G01X3860Y10307D01*
G01X3856Y10296D01*
G01X3853Y10285D01*
G01X3850Y10273D01*
G01X3849Y10261D01*
G01X3848Y10250D01*
G01X3848Y8000D01*
G01X3850Y7976D01*
G01X3853Y7964D01*
G01X3856Y7953D01*
G01X3860Y7942D01*
G01X3865Y7931D01*
G01X3877Y7911D01*
G01X3885Y7901D01*
G01X4801Y6985D01*
G01X4811Y6977D01*
G01X4831Y6965D01*
G01X4842Y6960D01*
G01X4853Y6956D01*
G01X4864Y6953D01*
G01X4876Y6950D01*
G01X4900Y6948D01*
G01X5082Y6948D01*
G01X5088Y6947D01*
G01X5093Y6944D01*
G01X5146Y6918D01*
G01X5151Y6915D01*
G01X5163Y6907D01*
G01X5176Y6899D01*
G01X5189Y6892D01*
G01X5202Y6887D01*
G01X5212Y6881D01*
G01X5217Y6877D01*
G01X5223Y6867D01*
G01X5226Y6861D01*
G01X5227Y6855D01*
G01X5227Y6844D01*
G01X5226Y6838D01*
G01X5223Y6832D01*
G01X5217Y6822D01*
G01X5212Y6818D01*
G01X5202Y6812D01*
G01X5189Y6807D01*
G01X5177Y6801D01*
G01X5165Y6793D01*
G01X5153Y6786D01*
G01X5131Y6768D01*
G01X5121Y6758D01*
G01X5112Y6748D01*
G01X5103Y6737D01*
G01X5095Y6725D01*
G01X5081Y6701D01*
G01X5076Y6688D01*
G01X5301Y6688D01*
G01X5301Y6836D01*
G01X5302Y6842D01*
G01X5304Y6847D01*
G01X5310Y6857D01*
G01X5315Y6861D01*
G01X5319Y6864D01*
G01X5324Y6867D01*
G01X5329Y6869D01*
G01X5341Y6871D01*
G01X5645Y6871D01*
G01X5651Y6870D01*
G01X5656Y6869D01*
G01X5661Y6867D01*
G01X5667Y6864D01*
G01X5671Y6861D01*
G01X5675Y6857D01*
G01X5681Y6847D01*
G01X5683Y6842D01*
G01X5685Y6830D01*
G01X5685Y6688D01*
G01X5910Y6688D01*
G01X5904Y6701D01*
G01X5898Y6713D01*
G01X5882Y6737D01*
G01X5873Y6748D01*
G01X5864Y6758D01*
G01X5854Y6768D01*
G01X5844Y6777D01*
G01X5832Y6786D01*
G01X5821Y6793D01*
G01X5809Y6801D01*
G01X5796Y6807D01*
G01X5784Y6812D01*
G01X5778Y6815D01*
G01X5773Y6818D01*
G01X5769Y6822D01*
G01X5765Y6827D01*
G01X5762Y6832D01*
G01X5760Y6838D01*
G01X5758Y6850D01*
G01X5759Y6855D01*
G01X5760Y6861D01*
G01X5762Y6867D01*
G01X5765Y6872D01*
G01X5769Y6877D01*
G01X5773Y6881D01*
G01X5778Y6884D01*
G01X5784Y6887D01*
G01X5796Y6892D01*
G01X5808Y6898D01*
G01X5820Y6905D01*
G01X5842Y6921D01*
G01X5853Y6930D01*
G01X5863Y6939D01*
G01X5872Y6949D01*
G01X5881Y6960D01*
G01X5889Y6971D01*
G01X5896Y6982D01*
G01X5902Y6994D01*
G01X5908Y7007D01*
G01X5914Y7019D01*
G01X5922Y7045D01*
G01X5925Y7059D01*
G01X5927Y7072D01*
G01X5928Y7086D01*
G01X5928Y7113D01*
G01X5927Y7127D01*
G01X5925Y7140D01*
G01X5922Y7153D01*
G01X5918Y7167D01*
G01X5914Y7180D01*
G01X5908Y7192D01*
G01X5902Y7205D01*
G01X5896Y7217D01*
G01X5889Y7228D01*
G01X5881Y7239D01*
G01X5872Y7250D01*
G01X5863Y7260D01*
G01X5853Y7269D01*
G01X5842Y7278D01*
G01X5820Y7294D01*
G01X5808Y7301D01*
G01X5796Y7307D01*
G01X5784Y7312D01*
G01X5778Y7315D01*
G01X5773Y7318D01*
G01X5769Y7322D01*
G01X5765Y7327D01*
G01X5762Y7332D01*
G01X5760Y7338D01*
G01X5758Y7350D01*
G01X5759Y7355D01*
G01X5760Y7361D01*
G01X5762Y7367D01*
G01X5765Y7372D01*
G01X5769Y7377D01*
G01X5773Y7381D01*
G01X5778Y7384D01*
G01X5784Y7387D01*
G01X5796Y7392D01*
G01X5808Y7398D01*
G01X5820Y7405D01*
G01X5842Y7421D01*
G01X5853Y7430D01*
G01X5863Y7439D01*
G01X5872Y7449D01*
G01X5881Y7460D01*
G01X5889Y7471D01*
G01X5896Y7482D01*
G01X5902Y7494D01*
G01X5908Y7507D01*
G01X5914Y7519D01*
G01X5922Y7545D01*
G01X5925Y7559D01*
G01X5927Y7572D01*
G01X5928Y7586D01*
G01X5928Y7613D01*
G01X5927Y7627D01*
G01X5925Y7640D01*
G01X5922Y7653D01*
G01X5918Y7667D01*
G01X5914Y7680D01*
G01X5908Y7692D01*
G01X5902Y7705D01*
G01X5896Y7717D01*
G01X5889Y7728D01*
G01X5881Y7739D01*
G01X5872Y7750D01*
G01X5863Y7760D01*
G01X5853Y7769D01*
G01X5842Y7778D01*
G01X5820Y7794D01*
G01X5808Y7801D01*
G01X5796Y7807D01*
G01X5784Y7812D01*
G01X5778Y7815D01*
G01X5773Y7818D01*
G01X5769Y7822D01*
G01X5765Y7827D01*
G01X5762Y7832D01*
G01X5760Y7838D01*
G01X5758Y7850D01*
G01X5759Y7855D01*
G01X5760Y7861D01*
G01X5762Y7867D01*
G01X5765Y7872D01*
G01X5769Y7877D01*
G01X5773Y7881D01*
G01X5778Y7884D01*
G01X5784Y7887D01*
G01X5796Y7892D01*
G01X5808Y7898D01*
G01X5820Y7905D01*
G01X5842Y7921D01*
G01X5853Y7930D01*
G01X5863Y7939D01*
G01X5872Y7949D01*
G01X5881Y7960D01*
G01X5889Y7971D01*
G01X5896Y7982D01*
G01X5902Y7994D01*
G01X5908Y8007D01*
G01X5914Y8019D01*
G01X5922Y8045D01*
G01X5925Y8059D01*
G01X5927Y8072D01*
G01X5928Y8086D01*
G01X5928Y8113D01*
G01X5924Y8141D01*
G01X5922Y8154D01*
G01X5918Y8167D01*
G01X5913Y8181D01*
G01X5908Y8194D01*
G01X5902Y8206D01*
G01X5888Y8230D01*
G01X5879Y8241D01*
G01X5871Y8251D01*
G01X5851Y8271D01*
G01X5840Y8280D01*
G01X5818Y8296D01*
G01X5806Y8302D01*
G01X5793Y8308D01*
G01X5767Y8318D01*
G01X5754Y8322D01*
G01X5740Y8325D01*
G01X5727Y8327D01*
G01X5713Y8328D01*
G01X5273Y8328D01*
G01X5259Y8327D01*
G01X5245Y8325D01*
G01X5232Y8322D01*
G01X5218Y8318D01*
G01X5192Y8308D01*
G01X5168Y8296D01*
G01X5156Y8288D01*
G01X5145Y8280D01*
G01X5135Y8271D01*
G01X5115Y8251D01*
G01X5106Y8241D01*
G01X5098Y8230D01*
G01X5090Y8218D01*
G01X5078Y8194D01*
G01X5072Y8181D01*
G01X5068Y8167D01*
G01X5064Y8154D01*
G01X5061Y8141D01*
G01X5059Y8127D01*
G01X5058Y8113D01*
G01X5057Y8100D01*
G01X5059Y8072D01*
G01X5061Y8059D01*
G01X5064Y8045D01*
G01X5072Y8019D01*
G01X5077Y8007D01*
G01X5083Y7994D01*
G01X5090Y7982D01*
G01X5097Y7971D01*
G01X5105Y7960D01*
G01X5114Y7949D01*
G01X5123Y7939D01*
G01X5143Y7921D01*
G01X5165Y7905D01*
G01X5177Y7898D01*
G01X5190Y7892D01*
G01X5202Y7887D01*
G01X5212Y7881D01*
G01X5217Y7877D01*
G01X5223Y7867D01*
G01X5226Y7861D01*
G01X5227Y7855D01*
G01X5227Y7844D01*
G01X5226Y7838D01*
G01X5223Y7832D01*
G01X5217Y7822D01*
G01X5212Y7818D01*
G01X5202Y7812D01*
G01X5189Y7807D01*
G01X5176Y7800D01*
G01X5163Y7792D01*
G01X5151Y7784D01*
G01X5146Y7781D01*
G01X5093Y7755D01*
G01X5088Y7752D01*
G01X5082Y7751D01*
G01X5022Y7751D01*
G01X5016Y7753D01*
G01X5011Y7755D01*
G01X5005Y7758D01*
G01X5000Y7762D01*
G01X4562Y8200D01*
G01X4558Y8205D01*
G01X4555Y8211D01*
G01X4553Y8216D01*
G01X4551Y8222D01*
G01X4551Y10027D01*
G01X4553Y10033D01*
G01X4555Y10038D01*
G01X4558Y10044D01*
G01X4562Y10049D01*
G01X4676Y10162D01*
G01X4681Y10167D01*
G01X4686Y10170D01*
G01X4692Y10172D01*
G01X4704Y10174D01*
G01X4710Y10174D01*
G01X4715Y10173D01*
G01X4721Y10171D01*
G01X4726Y10168D01*
G01X4738Y10156D01*
G01X4740Y10151D01*
G01X4742Y10145D01*
G01X4744Y10140D01*
G01X4744Y9495D01*
G01X4746Y9477D01*
G01X4748Y9467D01*
G01X4751Y9459D01*
G01X4755Y9450D01*
G01X4759Y9442D01*
G01X4765Y9434D01*
G01X4771Y9427D01*
G01X4777Y9421D01*
G01X4784Y9415D01*
G01X4792Y9409D01*
G01X4800Y9405D01*
G01X4809Y9401D01*
G01X4817Y9398D01*
G01X4827Y9396D01*
G01X4845Y9394D01*
G01X5361Y9394D01*
G01X5367Y9392D01*
G01X5473Y9357D01*
G01X5478Y9355D01*
G01X5484Y9351D01*
G01X5488Y9347D01*
G01X6237Y8599D01*
G01X6241Y8594D01*
G01X6244Y8588D01*
G01X6247Y8583D01*
G01X6248Y8577D01*
G01X6248Y7400D01*
G01X6250Y7376D01*
G01X6253Y7364D01*
G01X6256Y7353D01*
G01X6260Y7342D01*
G01X6265Y7331D01*
G01X6277Y7311D01*
G01X6285Y7301D01*
G01X7143Y6443D01*
G01X7161Y6427D01*
G01X7181Y6415D01*
G01X7192Y6410D01*
G01X7203Y6406D01*
G01X7214Y6403D01*
G01X7226Y6400D01*
G01X7250Y6398D01*
G01X8039Y6398D01*
G01X8120Y6384D01*
G01X8126Y6383D01*
G01X8140Y6378D01*
G01X8155Y6375D01*
G01X8185Y6371D01*
G01X8628Y6371D01*
G01X8643Y6373D01*
G01X8659Y6375D01*
G01X8665Y6376D01*
G01X8664Y6376D01*
G01X8665Y6377D01*
G01X8680Y6381D01*
G01X8694Y6386D01*
G01X8709Y6392D01*
G01X8722Y6398D01*
G01X8735Y6406D01*
G01X8748Y6415D01*
G01X8806Y6444D01*
G01X8811Y6447D01*
G01X8817Y6448D01*
G01X9077Y6448D01*
G01X9089Y6444D01*
G01X9094Y6441D01*
G01X9099Y6437D01*
G01X9562Y5974D01*
G01X9566Y5969D01*
G01X9569Y5963D01*
G01X9572Y5958D01*
G01X9573Y5952D01*
G01X9573Y5817D01*
G01X9572Y5811D01*
G01X9548Y5763D01*
G01X9545Y5758D01*
G01X9541Y5753D01*
G01X9536Y5749D01*
G01X9531Y5746D01*
G01X9525Y5743D01*
G01X9519Y5742D01*
G01X9512Y5741D01*
G01X9410Y5741D01*
G01X9392Y5737D01*
G01X9383Y5734D01*
G01X9374Y5730D01*
G01X9366Y5726D01*
G01X9359Y5721D01*
G01X9351Y5715D01*
G01X9339Y5701D01*
G01X9329Y5685D01*
G01X9325Y5676D01*
G01X9322Y5668D01*
G01X9320Y5659D01*
G01X9319Y5649D01*
G01X9318Y5640D01*
G01X9318Y5246D01*
G01X9320Y5228D01*
G01X9322Y5219D01*
G01X9325Y5210D01*
G01X9329Y5201D01*
G01X9334Y5193D01*
G01X9339Y5186D01*
G01X9345Y5178D01*
G01X9351Y5172D01*
G01X9359Y5166D01*
G01X9366Y5161D01*
G01X9374Y5156D01*
G01X9383Y5152D01*
G01X9392Y5149D01*
G01X9401Y5147D01*
G01X9419Y5145D01*
G01X10030Y5145D01*
G01X10048Y5147D01*
G01X10057Y5149D01*
G01X10066Y5152D01*
G01X10075Y5156D01*
G01X10083Y5161D01*
G01X10090Y5166D01*
G01X10098Y5172D01*
G01X10104Y5178D01*
G01X10110Y5186D01*
G01X10115Y5193D01*
G01X10120Y5201D01*
G01X10124Y5210D01*
G01X10127Y5219D01*
G01X10129Y5228D01*
G01X10131Y5246D01*
G01X10131Y5640D01*
G01X10130Y5649D01*
G01X10129Y5659D01*
G01X10127Y5668D01*
G01X10124Y5676D01*
G01X10120Y5685D01*
G01X10110Y5701D01*
G01X10098Y5715D01*
G01X10090Y5721D01*
G01X10083Y5726D01*
G01X10075Y5730D01*
G01X10066Y5734D01*
G01X10057Y5737D01*
G01X10039Y5741D01*
G01X9937Y5741D01*
G01X9930Y5742D01*
G01X9924Y5743D01*
G01X9918Y5746D01*
G01X9913Y5749D01*
G01X9908Y5753D01*
G01X9904Y5758D01*
G01X9901Y5763D01*
G01X9877Y5811D01*
G01X9876Y5817D01*
G01X9876Y6025D01*
G01X9875Y6036D01*
G01X9874Y6048D01*
G01X9871Y6060D01*
G01X9868Y6071D01*
G01X9864Y6082D01*
G01X9859Y6093D01*
G01X9847Y6113D01*
G01X9839Y6123D01*
G01X9256Y6706D01*
G01X9238Y6722D01*
G01X9218Y6734D01*
G01X9207Y6739D01*
G01X9196Y6743D01*
G01X9185Y6746D01*
G01X9173Y6749D01*
G01X9161Y6750D01*
G01X9150Y6751D01*
G01X8817Y6751D01*
G01X8811Y6752D01*
G01X8806Y6755D01*
G01X8753Y6781D01*
G01X8748Y6784D01*
G01X8736Y6792D01*
G01X8723Y6800D01*
G01X8710Y6807D01*
G01X8697Y6812D01*
G01X8687Y6818D01*
G01X8682Y6822D01*
G01X8676Y6832D01*
G01X8673Y6838D01*
G01X8672Y6844D01*
G01X8672Y6855D01*
G01X8673Y6861D01*
G01X8676Y6867D01*
G01X8679Y6872D01*
G01X8682Y6876D01*
G01X8687Y6881D01*
G01X8697Y6887D01*
G01X8710Y6892D01*
G01X8722Y6898D01*
G01X8734Y6905D01*
G01X8756Y6921D01*
G01X8776Y6939D01*
G01X8785Y6949D01*
G01X8794Y6960D01*
G01X8802Y6971D01*
G01X8809Y6982D01*
G01X8816Y6994D01*
G01X8822Y7007D01*
G01X8827Y7019D01*
G01X8835Y7045D01*
G01X8838Y7059D01*
G01X8840Y7072D01*
G01X8842Y7100D01*
G01X8841Y7113D01*
G01X8840Y7127D01*
G01X8838Y7140D01*
G01X8835Y7153D01*
G01X8831Y7167D01*
G01X8827Y7180D01*
G01X8822Y7192D01*
G01X8816Y7205D01*
G01X8809Y7217D01*
G01X8802Y7228D01*
G01X8794Y7239D01*
G01X8785Y7250D01*
G01X8776Y7260D01*
G01X8756Y7278D01*
G01X8734Y7294D01*
G01X8722Y7301D01*
G01X8710Y7307D01*
G01X8697Y7312D01*
G01X8687Y7318D01*
G01X8682Y7322D01*
G01X8676Y7332D01*
G01X8673Y7338D01*
G01X8672Y7344D01*
G01X8672Y7355D01*
G01X8673Y7361D01*
G01X8676Y7367D01*
G01X8679Y7372D01*
G01X8682Y7376D01*
G01X8687Y7381D01*
G01X8697Y7387D01*
G01X8710Y7392D01*
G01X8723Y7399D01*
G01X8736Y7407D01*
G01X8748Y7415D01*
G01X8806Y7444D01*
G01X8811Y7447D01*
G01X8817Y7448D01*
G01X10132Y7448D01*
G01X10138Y7447D01*
G01X10143Y7444D01*
G01X10186Y7423D01*
G01X10191Y7420D01*
G01X10196Y7416D01*
G01X10200Y7411D01*
G01X10203Y7406D01*
G01X10206Y7400D01*
G01X10207Y7394D01*
G01X10208Y7387D01*
G01X10208Y7294D01*
G01X10210Y7276D01*
G01X10212Y7267D01*
G01X10218Y7249D01*
G01X10223Y7241D01*
G01X10228Y7234D01*
G01X10234Y7226D01*
G01X10248Y7214D01*
G01X10264Y7204D01*
G01X10272Y7200D01*
G01X10281Y7197D01*
G01X10290Y7195D01*
G01X10300Y7194D01*
G01X10309Y7193D01*
G01X10703Y7193D01*
G01X10721Y7195D01*
G01X10730Y7197D01*
G01X10739Y7200D01*
G01X10748Y7204D01*
G01X10764Y7214D01*
G01X10771Y7220D01*
G01X10777Y7226D01*
G01X10783Y7234D01*
G01X10789Y7241D01*
G01X10793Y7249D01*
G01X10797Y7258D01*
G01X10800Y7267D01*
G01X10802Y7276D01*
G01X10804Y7294D01*
G01X10804Y7905D01*
G01X10802Y7923D01*
G01X10800Y7932D01*
G01X10797Y7941D01*
G01X10793Y7950D01*
G01X10789Y7958D01*
G01X10783Y7965D01*
G01X10777Y7973D01*
G01X10771Y7979D01*
G01X10764Y7985D01*
G01X10748Y7995D01*
G01X10739Y7999D01*
G01X10730Y8002D01*
G01X10721Y8004D01*
G01X10703Y8006D01*
G01X10309Y8006D01*
G01X10300Y8005D01*
G01X10290Y8004D01*
G01X10281Y8002D01*
G01X10272Y7999D01*
G01X10264Y7995D01*
G01X10248Y7985D01*
G01X10234Y7973D01*
G01X10228Y7965D01*
G01X10223Y7958D01*
G01X10218Y7950D01*
G01X10212Y7932D01*
G01X10210Y7923D01*
G01X10208Y7905D01*
G01X10208Y7812D01*
G01X10207Y7805D01*
G01X10206Y7799D01*
G01X10203Y7793D01*
G01X10200Y7788D01*
G01X10196Y7783D01*
G01X10191Y7779D01*
G01X10186Y7776D01*
G01X10143Y7755D01*
G01X10138Y7752D01*
G01X10132Y7751D01*
G01X8817Y7751D01*
G01X8811Y7752D01*
G01X8806Y7755D01*
G01X8753Y7781D01*
G01X8748Y7784D01*
G01X8736Y7792D01*
G01X8723Y7800D01*
G01X8710Y7807D01*
G01X8697Y7812D01*
G01X8687Y7818D01*
G01X8682Y7822D01*
G01X8676Y7832D01*
G01X8673Y7838D01*
G01X8672Y7844D01*
G01X8672Y7855D01*
G01X8673Y7861D01*
G01X8676Y7867D01*
G01X8682Y7877D01*
G01X8687Y7881D01*
G01X8697Y7887D01*
G01X8710Y7892D01*
G01X8722Y7898D01*
G01X8734Y7905D01*
G01X8756Y7921D01*
G01X8776Y7939D01*
G01X8785Y7949D01*
G01X8794Y7960D01*
G01X8802Y7971D01*
G01X8809Y7982D01*
G01X8816Y7994D01*
G01X8822Y8007D01*
G01X8827Y8019D01*
G01X8835Y8045D01*
G01X8838Y8059D01*
G01X8840Y8072D01*
G01X8842Y8100D01*
G01X8841Y8113D01*
G01X8840Y8127D01*
G01X8838Y8141D01*
G01X8835Y8154D01*
G01X8831Y8167D01*
G01X8827Y8181D01*
G01X8821Y8194D01*
G01X8809Y8218D01*
G01X8801Y8230D01*
G01X8793Y8241D01*
G01X8775Y8261D01*
G01X8764Y8271D01*
G01X8754Y8280D01*
G01X8743Y8288D01*
G01X8731Y8296D01*
G01X8719Y8302D01*
G01X8706Y8308D01*
G01X8694Y8313D01*
G01X8681Y8318D01*
G01X8667Y8322D01*
G01X8654Y8325D01*
G01X8640Y8327D01*
G01X8626Y8328D01*
G01X8186Y8328D01*
G01X8172Y8327D01*
G01X8159Y8325D01*
G01X8145Y8322D01*
G01X8132Y8318D01*
G01X8106Y8308D01*
G01X8093Y8302D01*
G01X8081Y8296D01*
G01X8059Y8280D01*
G01X8048Y8271D01*
G01X8028Y8251D01*
G01X8020Y8241D01*
G01X8011Y8230D01*
G01X7997Y8206D01*
G01X7991Y8194D01*
G01X7986Y8181D01*
G01X7981Y8167D01*
G01X7977Y8154D01*
G01X7975Y8141D01*
G01X7971Y8113D01*
G01X7971Y8086D01*
G01X7972Y8072D01*
G01X7975Y8059D01*
G01X7977Y8045D01*
G01X7985Y8019D01*
G01X7991Y8007D01*
G01X7997Y7994D01*
G01X8003Y7982D01*
G01X8010Y7971D01*
G01X8018Y7960D01*
G01X8027Y7949D01*
G01X8036Y7939D01*
G01X8046Y7930D01*
G01X8057Y7921D01*
G01X8079Y7905D01*
G01X8091Y7898D01*
G01X8103Y7892D01*
G01X8115Y7887D01*
G01X8121Y7884D01*
G01X8126Y7881D01*
G01X8130Y7877D01*
G01X8134Y7872D01*
G01X8137Y7867D01*
G01X8139Y7861D01*
G01X8140Y7855D01*
G01X8141Y7850D01*
G01X8139Y7838D01*
G01X8137Y7832D01*
G01X8134Y7827D01*
G01X8130Y7822D01*
G01X8126Y7818D01*
G01X8121Y7815D01*
G01X8115Y7812D01*
G01X8102Y7807D01*
G01X8089Y7800D01*
G01X8077Y7793D01*
G01X8065Y7784D01*
G01X8001Y7752D01*
G01X7995Y7751D01*
G01X7522Y7751D01*
G01X7510Y7755D01*
G01X7505Y7758D01*
G01X7500Y7762D01*
G01X7362Y7900D01*
G01X7358Y7905D01*
G01X7355Y7911D01*
G01X7352Y7916D01*
G01X7351Y7922D01*
G01X7351Y9320D01*
G01X7352Y9326D01*
G01X7354Y9331D01*
G01X7360Y9341D01*
G01X7541Y9548D01*
G01X7541Y9549D01*
G01X7554Y9563D01*
G01X7565Y9579D01*
G01X7577Y9594D01*
G01X7587Y9611D01*
G01X7597Y9627D01*
G01X7606Y9644D01*
G01X7622Y9680D01*
G01X7629Y9698D01*
G01X7635Y9716D01*
G01X7640Y9735D01*
G01X7645Y9753D01*
G01X7648Y9773D01*
G01X7651Y9792D01*
G01X7655Y9830D01*
G01X7655Y9869D01*
G01X7651Y9907D01*
G01X7648Y9926D01*
G01X7645Y9946D01*
G01X7640Y9964D01*
G01X7635Y9983D01*
G01X7629Y10001D01*
G01X7622Y10019D01*
G01X7606Y10055D01*
G01X7597Y10071D01*
G01X7577Y10105D01*
G01X7565Y10120D01*
G01X7554Y10136D01*
G01X7541Y10150D01*
G01X7528Y10165D01*
G01X7500Y10191D01*
G01X7485Y10204D01*
G01X7470Y10215D01*
G01X7455Y10227D01*
G01X7438Y10237D01*
G01X7422Y10247D01*
G01X7405Y10256D01*
G01X7387Y10265D01*
G01X7351Y10279D01*
G01X7333Y10285D01*
G01X7314Y10290D01*
G01X7296Y10295D01*
G01X7277Y10298D01*
G01X7257Y10301D01*
G01X7219Y10305D01*
G01X7180Y10305D01*
G01X7142Y10301D01*
G01X7122Y10298D01*
G01X7103Y10295D01*
G01X7085Y10290D01*
G01X7066Y10285D01*
G01X7048Y10279D01*
G01X7012Y10265D01*
G01X6994Y10256D01*
G01X6977Y10247D01*
G01X6961Y10237D01*
G01X6944Y10227D01*
G01X6929Y10215D01*
G01X6914Y10204D01*
G01X6899Y10191D01*
G01X6871Y10165D01*
G01X6858Y10150D01*
G01X6845Y10136D01*
G01X6834Y10120D01*
G01X6822Y10105D01*
G01X6802Y10071D01*
G01X6793Y10055D01*
G01X6777Y10019D01*
G01X6770Y10001D01*
G01X6764Y9983D01*
G01X6759Y9964D01*
G01X6754Y9946D01*
G01X6751Y9926D01*
G01X6748Y9907D01*
G01X6744Y9869D01*
G01X6744Y9830D01*
G01X6748Y9792D01*
G01X6751Y9773D01*
G01X6754Y9753D01*
G01X6759Y9735D01*
G01X6764Y9716D01*
G01X6770Y9698D01*
G01X6777Y9680D01*
G01X6793Y9644D01*
G01X6802Y9627D01*
G01X6812Y9611D01*
G01X6822Y9594D01*
G01X6834Y9579D01*
G01X6845Y9563D01*
G01X6858Y9549D01*
G01X6858Y9548D01*
G01X7039Y9341D01*
G01X7045Y9331D01*
G01X7047Y9326D01*
G01X7048Y9320D01*
G01X7048Y7850D01*
G01X7050Y7826D01*
G01X7053Y7814D01*
G01X7056Y7803D01*
G01X7060Y7792D01*
G01X7065Y7781D01*
G01X7077Y7761D01*
G01X7085Y7751D01*
G01X7343Y7493D01*
G01X7361Y7477D01*
G01X7381Y7465D01*
G01X7392Y7460D01*
G01X7403Y7456D01*
G01X7414Y7453D01*
G01X7426Y7450D01*
G01X7450Y7448D01*
G01X7995Y7448D01*
G01X8001Y7447D01*
G01X8065Y7415D01*
G01X8089Y7399D01*
G01X8102Y7392D01*
G01X8115Y7387D01*
G01X8121Y7384D01*
G01X8126Y7381D01*
G01X8130Y7376D01*
G01X8134Y7372D01*
G01X8137Y7367D01*
G01X8139Y7361D01*
G01X8140Y7355D01*
G01X8141Y7350D01*
G01X8139Y7338D01*
G01X8137Y7332D01*
G01X8134Y7327D01*
G01X8130Y7322D01*
G01X8126Y7318D01*
G01X8121Y7315D01*
G01X8115Y7312D01*
G01X8102Y7307D01*
G01X8089Y7300D01*
G01X8077Y7293D01*
G01X8065Y7284D01*
G01X8001Y7252D01*
G01X7995Y7251D01*
G01X7422Y7251D01*
G01X7410Y7255D01*
G01X7405Y7258D01*
G01X7400Y7262D01*
G01X6962Y7700D01*
G01X6958Y7705D01*
G01X6955Y7711D01*
G01X6952Y7716D01*
G01X6951Y7722D01*
G01X6951Y9000D01*
G01X6950Y9011D01*
G01X6949Y9023D01*
G01X6946Y9035D01*
G01X6943Y9046D01*
G01X6939Y9057D01*
G01X6934Y9068D01*
G01X6922Y9088D01*
G01X6914Y9098D01*
G01X6572Y9440D01*
G01X6568Y9445D01*
G01X6565Y9450D01*
G01X6561Y9462D01*
G01X6561Y9474D01*
G01X6563Y9480D01*
G01X6633Y9710D01*
G01X6633Y9711D01*
G01X6639Y9730D01*
G01X6644Y9750D01*
G01X6648Y9769D01*
G01X6651Y9789D01*
G01X6653Y9809D01*
G01X6654Y9829D01*
G01X6655Y9850D01*
G01X6655Y9869D01*
G01X6651Y9907D01*
G01X6648Y9926D01*
G01X6645Y9946D01*
G01X6640Y9964D01*
G01X6635Y9983D01*
G01X6629Y10001D01*
G01X6622Y10019D01*
G01X6606Y10055D01*
G01X6597Y10071D01*
G01X6577Y10105D01*
G01X6565Y10120D01*
G01X6554Y10136D01*
G01X6541Y10150D01*
G01X6528Y10165D01*
G01X6500Y10191D01*
G01X6485Y10204D01*
G01X6470Y10215D01*
G01X6455Y10227D01*
G01X6438Y10237D01*
G01X6422Y10247D01*
G01X6405Y10256D01*
G01X6387Y10265D01*
G01X6351Y10279D01*
G01X6333Y10285D01*
G01X6314Y10290D01*
G01X6296Y10295D01*
G01X6277Y10298D01*
G01X6257Y10301D01*
G01X6219Y10305D01*
G01X6180Y10305D01*
G01X6142Y10301D01*
G01X6122Y10298D01*
G01X6103Y10295D01*
G01X6085Y10290D01*
G01X6066Y10285D01*
G01X6048Y10279D01*
G01X6012Y10265D01*
G01X5994Y10256D01*
G01X5977Y10247D01*
G01X5961Y10237D01*
G01X5944Y10227D01*
G01X5929Y10215D01*
G01X5914Y10204D01*
G01X5899Y10191D01*
G01X5871Y10165D01*
G01X5858Y10150D01*
G01X5845Y10136D01*
G01X5834Y10120D01*
G01X5822Y10105D01*
G01X5802Y10071D01*
G01X5793Y10055D01*
G01X5784Y10037D01*
G01X5770Y10001D01*
G01X5764Y9983D01*
G01X5759Y9964D01*
G01X5754Y9946D01*
G01X5751Y9926D01*
G01X5748Y9907D01*
G01X5744Y9869D01*
G01X5744Y9850D01*
G01X5746Y9810D01*
G01X5748Y9790D01*
G01X5751Y9771D01*
G01X5755Y9751D01*
G01X5759Y9732D01*
G01X5771Y9694D01*
G01X5778Y9676D01*
G01X5786Y9658D01*
G01X5795Y9640D01*
G01X5805Y9623D01*
G01X5815Y9605D01*
G01X5826Y9589D01*
G01X5838Y9573D01*
G01X5850Y9558D01*
G01X5863Y9543D01*
G01X5877Y9528D01*
G01X5891Y9515D01*
G01X5906Y9501D01*
G01X5921Y9489D01*
G01X5937Y9477D01*
G01X5953Y9466D01*
G01X5971Y9456D01*
G01X5988Y9446D01*
G01X6006Y9438D01*
G01X6006Y9437D01*
G01X6277Y9305D01*
G01X6283Y9302D01*
G01X6288Y9298D01*
G01X6637Y8949D01*
G01X6641Y8944D01*
G01X6644Y8938D01*
G01X6647Y8933D01*
G01X6648Y8927D01*
G01X6648Y7650D01*
G01X6650Y7626D01*
G01X6653Y7614D01*
G01X6656Y7603D01*
G01X6660Y7592D01*
G01X6665Y7581D01*
G01X6677Y7561D01*
G01X6685Y7551D01*
G01X7243Y6993D01*
G01X7261Y6977D01*
G01X7281Y6965D01*
G01X7292Y6960D01*
G01X7303Y6956D01*
G01X7314Y6953D01*
G01X7326Y6950D01*
G01X7350Y6948D01*
G01X7995Y6948D01*
G01X8001Y6947D01*
G01X8065Y6915D01*
G01X8089Y6899D01*
G01X8102Y6892D01*
G01X8115Y6887D01*
G01X8121Y6884D01*
G01X8126Y6881D01*
G01X8130Y6876D01*
G01X8134Y6872D01*
G01X8137Y6867D01*
G01X8139Y6861D01*
G01X8140Y6855D01*
G01X8141Y6850D01*
G01X8139Y6838D01*
G01X8137Y6832D01*
G01X8134Y6827D01*
G01X8130Y6822D01*
G01X8126Y6818D01*
G01X8121Y6815D01*
G01X8115Y6812D01*
G01X8098Y6805D01*
G01X8097Y6804D01*
G01X8082Y6796D01*
G01X8081Y6795D01*
G01X8055Y6777D01*
G01X8043Y6766D01*
G01X8032Y6755D01*
G01X8021Y6743D01*
G01X8017Y6738D01*
G01X7987Y6711D01*
G01X7982Y6707D01*
G01X7977Y6704D01*
G01X7972Y6702D01*
G01X7966Y6701D01*
G01X7322Y6701D01*
G01X7310Y6705D01*
G01X7305Y6708D01*
G01X7300Y6712D01*
G01X6562Y7450D01*
G01X6558Y7455D01*
G01X6555Y7461D01*
G01X6552Y7466D01*
G01X6551Y7472D01*
G01X6551Y8650D01*
G01X6550Y8661D01*
G01X6549Y8673D01*
G01X6546Y8685D01*
G01X6543Y8696D01*
G01X6539Y8707D01*
G01X6534Y8718D01*
G01X6522Y8738D01*
G01X6514Y8748D01*
G01X6506Y8756D01*
G01X5702Y9561D01*
G01X5698Y9565D01*
G01X5694Y9571D01*
G01X5692Y9576D01*
G01X5657Y9682D01*
G01X5655Y9688D01*
G01X5655Y10204D01*
G01X5653Y10222D01*
G01X5651Y10232D01*
G01X5648Y10240D01*
G01X5644Y10249D01*
G01X5640Y10257D01*
G01X5634Y10265D01*
G01X5628Y10272D01*
G01X5622Y10278D01*
G01X5615Y10284D01*
G01X5607Y10290D01*
G01X5599Y10294D01*
G01X5590Y10298D01*
G01X5582Y10301D01*
G01X5572Y10303D01*
G01X5554Y10305D01*
G01X4909Y10305D01*
G01X4904Y10307D01*
G01X4898Y10309D01*
G01X4893Y10311D01*
G01X4881Y10323D01*
G01X4878Y10328D01*
G01X4876Y10334D01*
G01X4875Y10339D01*
G01X4875Y10345D01*
G01X4877Y10357D01*
G01X4879Y10363D01*
G01X4882Y10368D01*
G01X4887Y10373D01*
G01X4950Y10437D01*
G01X4955Y10441D01*
G01X4961Y10444D01*
G01X4966Y10446D01*
G01X4972Y10448D01*
G01X7677Y10448D01*
G01X7689Y10444D01*
G01X7694Y10441D01*
G01X7699Y10437D01*
G01X7854Y10282D01*
G01X7858Y10277D01*
G01X7861Y10271D01*
G01X7864Y10266D01*
G01X7865Y10259D01*
G01X7865Y10246D01*
G01X7863Y10239D01*
G01X7778Y10023D01*
G01X7771Y10004D01*
G01X7765Y9985D01*
G01X7760Y9967D01*
G01X7755Y9947D01*
G01X7751Y9928D01*
G01X7748Y9909D01*
G01X7744Y9869D01*
G01X7744Y9830D01*
G01X7748Y9792D01*
G01X7751Y9773D01*
G01X7754Y9753D01*
G01X7759Y9735D01*
G01X7764Y9716D01*
G01X7770Y9698D01*
G01X7777Y9680D01*
G01X7793Y9644D01*
G01X7802Y9628D01*
G01X7822Y9594D01*
G01X7834Y9579D01*
G01X7845Y9563D01*
G01X7858Y9549D01*
G01X7871Y9534D01*
G01X7899Y9508D01*
G01X7914Y9495D01*
G01X7929Y9484D01*
G01X7944Y9472D01*
G01X7961Y9462D01*
G01X7977Y9452D01*
G01X7994Y9443D01*
G01X8012Y9434D01*
G01X8048Y9420D01*
G01X8066Y9414D01*
G01X8085Y9409D01*
G01X8103Y9404D01*
G01X8122Y9401D01*
G01X8142Y9398D01*
G01X8180Y9394D01*
G01X8219Y9394D01*
G01X8257Y9398D01*
G01X8277Y9401D01*
G01X8296Y9404D01*
G01X8314Y9409D01*
G01X8333Y9414D01*
G01X8351Y9420D01*
G01X8387Y9434D01*
G01X8405Y9443D01*
G01X8422Y9452D01*
G01X8438Y9462D01*
G01X8455Y9472D01*
G01X8470Y9484D01*
G01X8485Y9495D01*
G01X8500Y9508D01*
G01X8528Y9534D01*
G01X8541Y9549D01*
G01X8554Y9563D01*
G01X8565Y9579D01*
G01X8577Y9594D01*
G01X8597Y9628D01*
G01X8606Y9644D01*
G01X8622Y9680D01*
G01X8629Y9698D01*
G01X8635Y9716D01*
G01X8640Y9735D01*
G01X8645Y9753D01*
G01X8648Y9773D01*
G01X8651Y9792D01*
G01X8655Y9830D01*
G01X8655Y9869D01*
G01X8651Y9907D01*
G01X8648Y9926D01*
G01X8645Y9944D01*
G01X8635Y9982D01*
G01X8629Y10000D01*
G01X8623Y10017D01*
G01X8607Y10053D01*
G01X8598Y10069D01*
G01X8589Y10086D01*
G01X8578Y10102D01*
G01X8568Y10118D01*
G01X8544Y10148D01*
G01X8518Y10176D01*
G01X8503Y10188D01*
G01X8489Y10201D01*
G01X8474Y10213D01*
G01X8459Y10224D01*
G01X8443Y10234D01*
G01X8426Y10244D01*
G01X8426Y10245D01*
G01X8163Y10402D01*
G01X8155Y10408D01*
G01X7856Y10706D01*
G01X7838Y10722D01*
G01X7818Y10734D01*
G01X7807Y10739D01*
G01X7796Y10743D01*
G01X7785Y10746D01*
G01X7773Y10749D01*
G01X7761Y10750D01*
G01X7750Y10751D01*
G01X4900Y10751D01*
G01X4876Y10749D01*
G01X4864Y10746D01*
G01X4853Y10743D01*
G01X4842Y10739D01*
G01X4831Y10734D01*
G01X4811Y10722D01*
G01X4801Y10714D01*
G01X4285Y10198D01*
G01X4277Y10188D01*
G01X4265Y10168D01*
G01X4260Y10157D01*
G01X4256Y10146D01*
G01X4253Y10135D01*
G01X4250Y10123D01*
G01X4249Y10111D01*
G01X4248Y10100D01*
G01X4248Y8150D01*
G01X4250Y8126D01*
G01X4253Y8114D01*
G01X4256Y8103D01*
G01X4260Y8092D01*
G01X4265Y8081D01*
G01X4277Y8061D01*
G01X4285Y8051D01*
G01X4851Y7485D01*
G01X4861Y7477D01*
G01X4881Y7465D01*
G01X4892Y7460D01*
G01X4903Y7456D01*
G01X4914Y7453D01*
G01X4926Y7450D01*
G01X4950Y7448D01*
G01X5082Y7448D01*
G01X5088Y7447D01*
G01X5093Y7444D01*
G01X5146Y7418D01*
G01X5151Y7415D01*
G01X5163Y7407D01*
G01X5176Y7399D01*
G01X5189Y7392D01*
G01X5202Y7387D01*
G01X5212Y7381D01*
G01X5217Y7377D01*
G01X5223Y7367D01*
G01X5226Y7361D01*
G01X5227Y7355D01*
G01X5227Y7344D01*
G01X5226Y7338D01*
G01X5223Y7332D01*
G01X5217Y7322D01*
G01X5212Y7318D01*
G01X5202Y7312D01*
G01X5189Y7307D01*
G01X5176Y7300D01*
G01X5163Y7292D01*
G01X5151Y7284D01*
G01X5146Y7281D01*
G01X5093Y7255D01*
G01X5088Y7252D01*
G01X5082Y7251D01*
G01X4972Y7251D01*
G01X4966Y7253D01*
G01X4961Y7255D01*
G01X4955Y7258D01*
G01X4950Y7262D01*
G01X4162Y8050D01*
G01X4158Y8055D01*
G01X4155Y8061D01*
G01X4153Y8066D01*
G01X4151Y8072D01*
G01X4151Y10177D01*
G01X4153Y10183D01*
G01X4155Y10188D01*
G01X4158Y10194D01*
G01X4162Y10199D01*
G01X4800Y10837D01*
G01X4805Y10841D01*
G01X4811Y10844D01*
G01X4816Y10846D01*
G01X4822Y10848D01*
G01X8227Y10848D01*
G01X8239Y10844D01*
G01X8244Y10841D01*
G01X8249Y10837D01*
G01X8827Y10259D01*
G01X8831Y10254D01*
G01X8834Y10249D01*
G01X8838Y10237D01*
G01X8838Y10225D01*
G01X8836Y10219D01*
G01X8766Y9989D01*
G01X8766Y9988D01*
G01X8760Y9969D01*
G01X8755Y9950D01*
G01X8751Y9930D01*
G01X8748Y9910D01*
G01X8746Y9890D01*
G01X8744Y9850D01*
G01X8744Y9830D01*
G01X8748Y9792D01*
G01X8751Y9773D01*
G01X8754Y9753D01*
G01X8759Y9735D01*
G01X8764Y9716D01*
G01X8770Y9698D01*
G01X8777Y9680D01*
G01X8793Y9644D01*
G01X8802Y9628D01*
G01X8822Y9594D01*
G01X8834Y9579D01*
G01X8845Y9563D01*
G01X8858Y9549D01*
G01X8871Y9534D01*
G01X8899Y9508D01*
G01X8914Y9495D01*
G01X8929Y9484D01*
G01X8944Y9472D01*
G01X8961Y9462D01*
G01X8977Y9452D01*
G01X8994Y9443D01*
G01X9012Y9434D01*
G01X9048Y9420D01*
G01X9066Y9414D01*
G01X9085Y9409D01*
G01X9103Y9404D01*
G01X9122Y9401D01*
G01X9142Y9398D01*
G01X9180Y9394D01*
G01X9219Y9394D01*
G01X9257Y9398D01*
G01X9277Y9401D01*
G01X9296Y9404D01*
G01X9314Y9409D01*
G01X9333Y9414D01*
G01X9351Y9420D01*
G01X9387Y9434D01*
G01X9405Y9443D01*
G01X9422Y9452D01*
G01X9438Y9462D01*
G01X9455Y9472D01*
G01X9470Y9484D01*
G01X9485Y9495D01*
G01X9500Y9508D01*
G01X9528Y9534D01*
G01X9541Y9549D01*
G01X9554Y9563D01*
G01X9565Y9579D01*
G01X9577Y9594D01*
G01X9597Y9628D01*
G01X9606Y9644D01*
G01X9622Y9680D01*
G01X9629Y9698D01*
G01X9635Y9716D01*
G01X9640Y9735D01*
G01X9645Y9753D01*
G01X9648Y9773D01*
G01X9651Y9792D01*
G01X9655Y9830D01*
G01X9655Y9850D01*
G01X9654Y9869D01*
G01X9653Y9889D01*
G01X9651Y9909D01*
G01X9648Y9928D01*
G01X9644Y9948D01*
G01X9634Y9986D01*
G01X9627Y10005D01*
G01X9621Y10023D01*
G01X9613Y10041D01*
G01X9604Y10059D01*
G01X9594Y10076D01*
G01X9584Y10094D01*
G01X9573Y10110D01*
G01X9561Y10126D01*
G01X9549Y10141D01*
G01X9536Y10156D01*
G01X9522Y10171D01*
G01X9508Y10184D01*
G01X9493Y10198D01*
G01X9478Y10210D01*
G01X9462Y10222D01*
G01X9446Y10233D01*
G01X9428Y10243D01*
G01X9411Y10253D01*
G01X9393Y10261D01*
G01X9393Y10262D01*
G01X9122Y10394D01*
G01X9116Y10397D01*
G01X9111Y10401D01*
G01X8406Y11106D01*
G01X8388Y11122D01*
G01X8368Y11134D01*
G01X8357Y11139D01*
G01X8346Y11143D01*
G01X8335Y11146D01*
G01X8323Y11149D01*
G01X8311Y11150D01*
G01X8300Y11151D01*
G37*
G36*
G01X3190Y6806D02*
G01X2796Y6806D01*
G01X2778Y6804D01*
G01X2769Y6802D01*
G01X2760Y6799D01*
G01X2751Y6795D01*
G01X2743Y6790D01*
G01X2736Y6785D01*
G01X2728Y6779D01*
G01X2722Y6773D01*
G01X2716Y6765D01*
G01X2711Y6758D01*
G01X2706Y6750D01*
G01X2702Y6741D01*
G01X2699Y6732D01*
G01X2697Y6723D01*
G01X2695Y6705D01*
G01X2695Y6094D01*
G01X2697Y6076D01*
G01X2699Y6067D01*
G01X2702Y6058D01*
G01X2706Y6049D01*
G01X2711Y6041D01*
G01X2716Y6034D01*
G01X2722Y6026D01*
G01X2728Y6020D01*
G01X2736Y6014D01*
G01X2743Y6009D01*
G01X2751Y6004D01*
G01X2760Y6000D01*
G01X2769Y5997D01*
G01X2778Y5995D01*
G01X2796Y5993D01*
G01X3190Y5993D01*
G01X3199Y5994D01*
G01X3209Y5995D01*
G01X3218Y5997D01*
G01X3226Y6000D01*
G01X3235Y6004D01*
G01X3251Y6014D01*
G01X3265Y6026D01*
G01X3271Y6034D01*
G01X3276Y6041D01*
G01X3280Y6049D01*
G01X3284Y6058D01*
G01X3287Y6067D01*
G01X3291Y6085D01*
G01X3291Y6714D01*
G01X3287Y6732D01*
G01X3284Y6741D01*
G01X3280Y6750D01*
G01X3276Y6758D01*
G01X3271Y6765D01*
G01X3265Y6773D01*
G01X3251Y6785D01*
G01X3235Y6795D01*
G01X3226Y6799D01*
G01X3218Y6802D01*
G01X3209Y6804D01*
G01X3199Y6805D01*
G01X3190Y6806D01*
G37*
G36*
G01X5910Y6511D02*
G01X5685Y6511D01*
G01X5685Y6371D01*
G01X5713Y6371D01*
G01X5727Y6372D01*
G01X5769Y6381D01*
G01X5782Y6386D01*
G01X5795Y6392D01*
G01X5807Y6398D01*
G01X5820Y6405D01*
G01X5831Y6413D01*
G01X5843Y6421D01*
G01X5853Y6430D01*
G01X5864Y6440D01*
G01X5882Y6462D01*
G01X5890Y6473D01*
G01X5897Y6485D01*
G01X5904Y6498D01*
G01X5910Y6511D01*
G37*
G36*
G01X5301Y6511D02*
G01X5076Y6511D01*
G01X5081Y6498D01*
G01X5088Y6485D01*
G01X5096Y6473D01*
G01X5103Y6462D01*
G01X5113Y6451D01*
G01X5122Y6440D01*
G01X5132Y6430D01*
G01X5143Y6421D01*
G01X5154Y6413D01*
G01X5166Y6405D01*
G01X5178Y6398D01*
G01X5204Y6386D01*
G01X5217Y6381D01*
G01X5230Y6378D01*
G01X5258Y6372D01*
G01X5272Y6371D01*
G01X5301Y6371D01*
G01X5301Y6511D01*
G37*
G36*
G01X13566Y7427D02*
G01X13362Y7427D01*
G01X13362Y7295D01*
G01X13366Y7277D01*
G01X13372Y7259D01*
G01X13382Y7243D01*
G01X13388Y7236D01*
G01X13402Y7224D01*
G01X13410Y7218D01*
G01X13426Y7210D01*
G01X13435Y7207D01*
G01X13444Y7205D01*
G01X13453Y7204D01*
G01X13463Y7203D01*
G01X13566Y7203D01*
G01X13566Y7427D01*
G37*
G36*
G01X14076Y7427D02*
G01X13872Y7427D01*
G01X13872Y7203D01*
G01X13975Y7203D01*
G01X13993Y7205D01*
G01X14002Y7207D01*
G01X14011Y7210D01*
G01X14020Y7214D01*
G01X14028Y7218D01*
G01X14035Y7224D01*
G01X14043Y7230D01*
G01X14049Y7236D01*
G01X14055Y7243D01*
G01X14065Y7259D01*
G01X14069Y7268D01*
G01X14072Y7277D01*
G01X14074Y7286D01*
G01X14076Y7304D01*
G01X14076Y7427D01*
G37*
G36*
G01X13566Y7996D02*
G01X13463Y7996D01*
G01X13453Y7995D01*
G01X13444Y7994D01*
G01X13435Y7992D01*
G01X13426Y7989D01*
G01X13410Y7981D01*
G01X13402Y7975D01*
G01X13388Y7963D01*
G01X13382Y7956D01*
G01X13372Y7940D01*
G01X13369Y7931D01*
G01X13366Y7923D01*
G01X13364Y7913D01*
G01X13362Y7904D01*
G01X13362Y7772D01*
G01X13566Y7772D01*
G01X13566Y7996D01*
G37*
G36*
G01X13975Y7996D02*
G01X13872Y7996D01*
G01X13872Y7772D01*
G01X14076Y7772D01*
G01X14076Y7895D01*
G01X14074Y7913D01*
G01X14072Y7923D01*
G01X14069Y7931D01*
G01X14065Y7940D01*
G01X14055Y7956D01*
G01X14049Y7963D01*
G01X14043Y7969D01*
G01X14035Y7975D01*
G01X14028Y7981D01*
G01X14020Y7985D01*
G01X14011Y7989D01*
G01X14002Y7992D01*
G01X13993Y7994D01*
G01X13975Y7996D01*
G37*
G36*
G01X2803Y9206D02*
G01X2409Y9206D01*
G01X2400Y9205D01*
G01X2390Y9204D01*
G01X2381Y9202D01*
G01X2373Y9199D01*
G01X2364Y9195D01*
G01X2348Y9185D01*
G01X2334Y9173D01*
G01X2328Y9165D01*
G01X2323Y9158D01*
G01X2319Y9150D01*
G01X2315Y9141D01*
G01X2312Y9132D01*
G01X2308Y9114D01*
G01X2308Y9012D01*
G01X2307Y9005D01*
G01X2306Y9000D01*
G01X2300Y8988D01*
G01X2291Y8979D01*
G01X2286Y8976D01*
G01X2243Y8955D01*
G01X2237Y8952D01*
G01X2231Y8951D01*
G01X2047Y8951D01*
G01X2041Y8952D01*
G01X2035Y8955D01*
G01X1992Y8976D01*
G01X1987Y8979D01*
G01X1978Y8988D01*
G01X1972Y9000D01*
G01X1971Y9005D01*
G01X1970Y9012D01*
G01X1970Y9075D01*
G01X1969Y9084D01*
G01X1968Y9094D01*
G01X1966Y9103D01*
G01X1963Y9111D01*
G01X1959Y9120D01*
G01X1955Y9128D01*
G01X1950Y9136D01*
G01X1944Y9143D01*
G01X1937Y9150D01*
G01X1930Y9155D01*
G01X1922Y9161D01*
G01X1914Y9165D01*
G01X1905Y9169D01*
G01X1897Y9172D01*
G01X1888Y9174D01*
G01X1878Y9176D01*
G01X1348Y9176D01*
G01X1338Y9174D01*
G01X1329Y9172D01*
G01X1321Y9169D01*
G01X1312Y9165D01*
G01X1304Y9161D01*
G01X1296Y9155D01*
G01X1289Y9150D01*
G01X1282Y9143D01*
G01X1276Y9136D01*
G01X1271Y9128D01*
G01X1267Y9120D01*
G01X1263Y9111D01*
G01X1260Y9103D01*
G01X1258Y9094D01*
G01X1257Y9084D01*
G01X1256Y9075D01*
G01X1256Y8524D01*
G01X1257Y8515D01*
G01X1258Y8505D01*
G01X1260Y8496D01*
G01X1263Y8488D01*
G01X1267Y8479D01*
G01X1271Y8471D01*
G01X1276Y8463D01*
G01X1282Y8456D01*
G01X1289Y8449D01*
G01X1296Y8444D01*
G01X1304Y8438D01*
G01X1312Y8434D01*
G01X1321Y8430D01*
G01X1329Y8427D01*
G01X1338Y8425D01*
G01X1348Y8423D01*
G01X1878Y8423D01*
G01X1888Y8425D01*
G01X1897Y8427D01*
G01X1905Y8430D01*
G01X1914Y8434D01*
G01X1922Y8438D01*
G01X1930Y8444D01*
G01X1937Y8449D01*
G01X1944Y8456D01*
G01X1950Y8463D01*
G01X1955Y8471D01*
G01X1959Y8479D01*
G01X1963Y8488D01*
G01X1966Y8496D01*
G01X1968Y8505D01*
G01X1969Y8515D01*
G01X1970Y8524D01*
G01X1970Y8587D01*
G01X1971Y8594D01*
G01X1972Y8600D01*
G01X1975Y8605D01*
G01X1978Y8611D01*
G01X1987Y8620D01*
G01X1992Y8623D01*
G01X2035Y8644D01*
G01X2041Y8647D01*
G01X2047Y8648D01*
G01X2231Y8648D01*
G01X2237Y8647D01*
G01X2243Y8644D01*
G01X2286Y8623D01*
G01X2291Y8620D01*
G01X2300Y8611D01*
G01X2303Y8605D01*
G01X2306Y8600D01*
G01X2307Y8594D01*
G01X2308Y8587D01*
G01X2308Y8485D01*
G01X2312Y8467D01*
G01X2315Y8458D01*
G01X2319Y8449D01*
G01X2323Y8441D01*
G01X2328Y8434D01*
G01X2334Y8426D01*
G01X2348Y8414D01*
G01X2364Y8404D01*
G01X2373Y8400D01*
G01X2381Y8397D01*
G01X2390Y8395D01*
G01X2400Y8394D01*
G01X2409Y8393D01*
G01X2803Y8393D01*
G01X2821Y8395D01*
G01X2830Y8397D01*
G01X2839Y8400D01*
G01X2848Y8404D01*
G01X2856Y8409D01*
G01X2863Y8414D01*
G01X2871Y8420D01*
G01X2877Y8426D01*
G01X2883Y8434D01*
G01X2888Y8441D01*
G01X2893Y8449D01*
G01X2897Y8458D01*
G01X2900Y8467D01*
G01X2902Y8476D01*
G01X2904Y8494D01*
G01X2904Y9105D01*
G01X2902Y9123D01*
G01X2900Y9132D01*
G01X2897Y9141D01*
G01X2893Y9150D01*
G01X2888Y9158D01*
G01X2883Y9165D01*
G01X2877Y9173D01*
G01X2871Y9179D01*
G01X2863Y9185D01*
G01X2856Y9190D01*
G01X2848Y9195D01*
G01X2839Y9199D01*
G01X2830Y9202D01*
G01X2821Y9204D01*
G01X2803Y9206D01*
G37*
G36*
G01X1143Y8637D02*
G01X939Y8637D01*
G01X939Y8423D01*
G01X1051Y8423D01*
G01X1061Y8425D01*
G01X1070Y8427D01*
G01X1078Y8430D01*
G01X1087Y8434D01*
G01X1095Y8438D01*
G01X1103Y8444D01*
G01X1110Y8449D01*
G01X1117Y8456D01*
G01X1123Y8463D01*
G01X1128Y8471D01*
G01X1132Y8479D01*
G01X1136Y8488D01*
G01X1139Y8496D01*
G01X1141Y8505D01*
G01X1142Y8515D01*
G01X1143Y8524D01*
G01X1143Y8637D01*
G37*
G36*
G01X633Y8637D02*
G01X429Y8637D01*
G01X429Y8524D01*
G01X430Y8515D01*
G01X431Y8505D01*
G01X433Y8496D01*
G01X436Y8488D01*
G01X440Y8479D01*
G01X444Y8471D01*
G01X450Y8463D01*
G01X455Y8456D01*
G01X462Y8449D01*
G01X469Y8444D01*
G01X477Y8438D01*
G01X485Y8434D01*
G01X494Y8430D01*
G01X502Y8427D01*
G01X511Y8425D01*
G01X521Y8423D01*
G01X633Y8423D01*
G01X633Y8637D01*
G37*
G36*
G01X1051Y9176D02*
G01X939Y9176D01*
G01X939Y8962D01*
G01X1143Y8962D01*
G01X1143Y9075D01*
G01X1142Y9084D01*
G01X1141Y9094D01*
G01X1139Y9103D01*
G01X1136Y9111D01*
G01X1132Y9120D01*
G01X1128Y9128D01*
G01X1123Y9136D01*
G01X1117Y9143D01*
G01X1110Y9150D01*
G01X1103Y9155D01*
G01X1095Y9161D01*
G01X1087Y9165D01*
G01X1078Y9169D01*
G01X1070Y9172D01*
G01X1061Y9174D01*
G01X1051Y9176D01*
G37*
G36*
G01X633Y9176D02*
G01X521Y9176D01*
G01X511Y9174D01*
G01X502Y9172D01*
G01X494Y9169D01*
G01X485Y9165D01*
G01X477Y9161D01*
G01X469Y9155D01*
G01X462Y9150D01*
G01X455Y9143D01*
G01X450Y9136D01*
G01X444Y9128D01*
G01X440Y9120D01*
G01X436Y9111D01*
G01X433Y9103D01*
G01X431Y9094D01*
G01X430Y9084D01*
G01X429Y9075D01*
G01X429Y8962D01*
G01X633Y8962D01*
G01X633Y9176D01*
G37*
G36*
G01X10219Y10305D02*
G01X10180Y10305D01*
G01X10142Y10301D01*
G01X10122Y10298D01*
G01X10103Y10295D01*
G01X10085Y10290D01*
G01X10066Y10285D01*
G01X10048Y10279D01*
G01X10012Y10265D01*
G01X9994Y10256D01*
G01X9977Y10247D01*
G01X9961Y10237D01*
G01X9944Y10227D01*
G01X9929Y10215D01*
G01X9914Y10204D01*
G01X9899Y10191D01*
G01X9871Y10165D01*
G01X9858Y10150D01*
G01X9845Y10136D01*
G01X9834Y10120D01*
G01X9822Y10105D01*
G01X9802Y10071D01*
G01X9793Y10055D01*
G01X9777Y10019D01*
G01X9770Y10001D01*
G01X9764Y9983D01*
G01X9759Y9964D01*
G01X9754Y9946D01*
G01X9751Y9926D01*
G01X9748Y9907D01*
G01X9744Y9869D01*
G01X9744Y9830D01*
G01X9748Y9792D01*
G01X9751Y9773D01*
G01X9754Y9753D01*
G01X9759Y9735D01*
G01X9764Y9716D01*
G01X9770Y9698D01*
G01X9777Y9680D01*
G01X9793Y9644D01*
G01X9802Y9628D01*
G01X9822Y9594D01*
G01X9834Y9579D01*
G01X9845Y9563D01*
G01X9858Y9549D01*
G01X9871Y9534D01*
G01X9899Y9508D01*
G01X9914Y9495D01*
G01X9929Y9484D01*
G01X9944Y9472D01*
G01X9961Y9462D01*
G01X9977Y9452D01*
G01X9994Y9443D01*
G01X10012Y9434D01*
G01X10048Y9420D01*
G01X10066Y9414D01*
G01X10085Y9409D01*
G01X10103Y9404D01*
G01X10122Y9401D01*
G01X10142Y9398D01*
G01X10180Y9394D01*
G01X10219Y9394D01*
G01X10257Y9398D01*
G01X10277Y9401D01*
G01X10296Y9404D01*
G01X10314Y9409D01*
G01X10333Y9414D01*
G01X10351Y9420D01*
G01X10387Y9434D01*
G01X10405Y9443D01*
G01X10422Y9452D01*
G01X10438Y9462D01*
G01X10455Y9472D01*
G01X10470Y9484D01*
G01X10485Y9495D01*
G01X10500Y9508D01*
G01X10528Y9534D01*
G01X10541Y9549D01*
G01X10554Y9563D01*
G01X10565Y9579D01*
G01X10577Y9594D01*
G01X10597Y9628D01*
G01X10606Y9644D01*
G01X10622Y9680D01*
G01X10629Y9698D01*
G01X10635Y9716D01*
G01X10640Y9735D01*
G01X10645Y9753D01*
G01X10648Y9773D01*
G01X10651Y9792D01*
G01X10655Y9830D01*
G01X10655Y9869D01*
G01X10651Y9907D01*
G01X10648Y9926D01*
G01X10645Y9946D01*
G01X10640Y9964D01*
G01X10635Y9983D01*
G01X10629Y10001D01*
G01X10622Y10019D01*
G01X10606Y10055D01*
G01X10597Y10071D01*
G01X10577Y10105D01*
G01X10565Y10120D01*
G01X10554Y10136D01*
G01X10541Y10150D01*
G01X10528Y10165D01*
G01X10500Y10191D01*
G01X10485Y10204D01*
G01X10470Y10215D01*
G01X10455Y10227D01*
G01X10438Y10237D01*
G01X10422Y10247D01*
G01X10405Y10256D01*
G01X10387Y10265D01*
G01X10351Y10279D01*
G01X10333Y10285D01*
G01X10314Y10290D01*
G01X10296Y10295D01*
G01X10277Y10298D01*
G01X10257Y10301D01*
G01X10219Y10305D01*
G37*

%LPD*%
G36*
G01X10408Y3617D02*
G01X10171Y3617D01*
G01X10165Y3616D01*
G01X10160Y3613D01*
G01X10118Y3592D01*
G01X10113Y3589D01*
G01X10108Y3585D01*
G01X10103Y3580D01*
G01X10100Y3575D01*
G01X10096Y3563D01*
G01X10096Y3513D01*
G01X10095Y3503D01*
G01X10094Y3494D01*
G01X10092Y3485D01*
G01X10089Y3476D01*
G01X10081Y3460D01*
G01X10075Y3452D01*
G01X10063Y3438D01*
G01X10056Y3432D01*
G01X10048Y3427D01*
G01X10040Y3423D01*
G01X10031Y3419D01*
G01X10013Y3413D01*
G01X10004Y3412D01*
G01X9623Y3412D01*
G01X9611Y3410D01*
G01X9492Y3372D01*
G01X9486Y3369D01*
G01X9481Y3366D01*
G01X9476Y3362D01*
G01X8806Y2693D01*
G01X8788Y2677D01*
G01X8768Y2665D01*
G01X8757Y2660D01*
G01X8746Y2656D01*
G01X8735Y2653D01*
G01X8723Y2650D01*
G01X8711Y2649D01*
G01X8700Y2648D01*
G01X8322Y2648D01*
G01X8310Y2644D01*
G01X8305Y2641D01*
G01X8300Y2637D01*
G01X7212Y1549D01*
G01X7208Y1544D01*
G01X7205Y1538D01*
G01X7202Y1533D01*
G01X7201Y1527D01*
G01X7201Y1402D01*
G01X7202Y1396D01*
G01X7204Y1391D01*
G01X7210Y1381D01*
G01X7377Y1187D01*
G01X7389Y1172D01*
G01X7402Y1156D01*
G01X7413Y1140D01*
G01X7423Y1124D01*
G01X7433Y1107D01*
G01X7442Y1089D01*
G01X7450Y1071D01*
G01X7457Y1053D01*
G01X7464Y1034D01*
G01X7469Y1016D01*
G01X7474Y997D01*
G01X7478Y978D01*
G01X7481Y958D01*
G01X7483Y939D01*
G01X7485Y919D01*
G01X7485Y880D01*
G01X7481Y840D01*
G01X7478Y820D01*
G01X7474Y801D01*
G01X7469Y782D01*
G01X7463Y763D01*
G01X7449Y725D01*
G01X7440Y707D01*
G01X7431Y690D01*
G01X7421Y672D01*
G01X7410Y656D01*
G01X7399Y639D01*
G01X7396Y634D01*
G01X7393Y628D01*
G01X7392Y622D01*
G01X7391Y615D01*
G01X7392Y610D01*
G01X7393Y604D01*
G01X7397Y594D01*
G01X7401Y589D01*
G01X7405Y585D01*
G01X7410Y582D01*
G01X7414Y579D01*
G01X7420Y577D01*
G01X7425Y576D01*
G01X7674Y576D01*
G01X7679Y577D01*
G01X7685Y579D01*
G01X7689Y582D01*
G01X7694Y585D01*
G01X7698Y589D01*
G01X7702Y594D01*
G01X7706Y604D01*
G01X7707Y610D01*
G01X7708Y615D01*
G01X7707Y622D01*
G01X7706Y628D01*
G01X7703Y634D01*
G01X7700Y639D01*
G01X7689Y656D01*
G01X7678Y672D01*
G01X7668Y690D01*
G01X7659Y707D01*
G01X7650Y725D01*
G01X7636Y763D01*
G01X7630Y782D01*
G01X7625Y801D01*
G01X7621Y820D01*
G01X7618Y840D01*
G01X7614Y880D01*
G01X7614Y919D01*
G01X7615Y938D01*
G01X7618Y956D01*
G01X7624Y994D01*
G01X7634Y1030D01*
G01X7640Y1048D01*
G01X7647Y1066D01*
G01X7655Y1084D01*
G01X7663Y1101D01*
G01X7672Y1117D01*
G01X7682Y1134D01*
G01X7693Y1149D01*
G01X7704Y1165D01*
G01X7716Y1180D01*
G01X7728Y1194D01*
G01X7742Y1207D01*
G01X7755Y1221D01*
G01X7769Y1233D01*
G01X7784Y1245D01*
G01X7800Y1256D01*
G01X7815Y1267D01*
G01X7832Y1277D01*
G01X7848Y1286D01*
G01X7865Y1294D01*
G01X7883Y1302D01*
G01X7901Y1309D01*
G01X7918Y1315D01*
G01X7937Y1320D01*
G01X7955Y1325D01*
G01X7974Y1328D01*
G01X7993Y1332D01*
G01X8011Y1334D01*
G01X8031Y1335D01*
G01X8068Y1335D01*
G01X8088Y1334D01*
G01X8106Y1332D01*
G01X8125Y1328D01*
G01X8144Y1325D01*
G01X8162Y1320D01*
G01X8181Y1315D01*
G01X8198Y1309D01*
G01X8216Y1302D01*
G01X8234Y1294D01*
G01X8251Y1286D01*
G01X8267Y1277D01*
G01X8284Y1267D01*
G01X8299Y1256D01*
G01X8315Y1245D01*
G01X8330Y1233D01*
G01X8344Y1221D01*
G01X8357Y1207D01*
G01X8371Y1194D01*
G01X8383Y1180D01*
G01X8395Y1165D01*
G01X8406Y1149D01*
G01X8417Y1134D01*
G01X8427Y1117D01*
G01X8436Y1101D01*
G01X8444Y1084D01*
G01X8452Y1066D01*
G01X8459Y1048D01*
G01X8465Y1030D01*
G01X8475Y994D01*
G01X8481Y956D01*
G01X8484Y938D01*
G01X8485Y919D01*
G01X8485Y880D01*
G01X8481Y840D01*
G01X8478Y820D01*
G01X8474Y801D01*
G01X8469Y782D01*
G01X8463Y763D01*
G01X8449Y725D01*
G01X8440Y707D01*
G01X8431Y690D01*
G01X8421Y672D01*
G01X8410Y656D01*
G01X8399Y639D01*
G01X8396Y634D01*
G01X8393Y628D01*
G01X8392Y622D01*
G01X8391Y615D01*
G01X8392Y610D01*
G01X8393Y604D01*
G01X8397Y594D01*
G01X8401Y589D01*
G01X8405Y585D01*
G01X8410Y582D01*
G01X8414Y579D01*
G01X8420Y577D01*
G01X8425Y576D01*
G01X8674Y576D01*
G01X8679Y577D01*
G01X8685Y579D01*
G01X8689Y582D01*
G01X8694Y585D01*
G01X8698Y589D01*
G01X8702Y594D01*
G01X8706Y604D01*
G01X8707Y610D01*
G01X8708Y615D01*
G01X8707Y622D01*
G01X8706Y628D01*
G01X8703Y634D01*
G01X8700Y639D01*
G01X8689Y656D01*
G01X8678Y672D01*
G01X8668Y690D01*
G01X8659Y707D01*
G01X8857Y707D01*
G01X8857Y610D01*
G01X8859Y604D01*
G01X8861Y599D01*
G01X8867Y589D01*
G01X8871Y585D01*
G01X8881Y579D01*
G01X8886Y577D01*
G01X8892Y576D01*
G01X9207Y576D01*
G01X9213Y577D01*
G01X9218Y579D01*
G01X9228Y585D01*
G01X9232Y589D01*
G01X9238Y599D01*
G01X9240Y604D01*
G01X9242Y610D01*
G01X9242Y707D01*
G01X9440Y707D01*
G01X9431Y690D01*
G01X9421Y672D01*
G01X9410Y656D01*
G01X9399Y639D01*
G01X9396Y634D01*
G01X9393Y628D01*
G01X9392Y622D01*
G01X9391Y615D01*
G01X9392Y610D01*
G01X9393Y604D01*
G01X9397Y594D01*
G01X9401Y589D01*
G01X9405Y585D01*
G01X9410Y582D01*
G01X9414Y579D01*
G01X9420Y577D01*
G01X9425Y576D01*
G01X9516Y576D01*
G01X9528Y580D01*
G01X9534Y583D01*
G01X9766Y815D01*
G01X9772Y827D01*
G01X9773Y833D01*
G01X9773Y1500D01*
G01X9774Y1512D01*
G01X9775Y1525D01*
G01X9777Y1537D01*
G01X9789Y1573D01*
G01X9795Y1584D01*
G01X9802Y1595D01*
G01X9809Y1605D01*
G01X9817Y1615D01*
G01X9825Y1624D01*
G01X10825Y2624D01*
G01X10835Y2633D01*
G01X10844Y2641D01*
G01X10866Y2655D01*
G01X10890Y2665D01*
G01X10895Y2667D01*
G01X10901Y2671D01*
G01X10905Y2675D01*
G01X10909Y2680D01*
G01X10912Y2685D01*
G01X10914Y2691D01*
G01X10916Y2696D01*
G01X10916Y2709D01*
G01X10912Y2721D01*
G01X10909Y2726D01*
G01X10905Y2731D01*
G01X10635Y3001D01*
G01X10627Y3011D01*
G01X10615Y3031D01*
G01X10610Y3042D01*
G01X10606Y3053D01*
G01X10603Y3064D01*
G01X10600Y3076D01*
G01X10598Y3100D01*
G01X10598Y3427D01*
G01X10597Y3433D01*
G01X10594Y3438D01*
G01X10591Y3444D01*
G01X10587Y3449D01*
G01X10430Y3606D01*
G01X10425Y3610D01*
G01X10419Y3613D01*
G01X10414Y3615D01*
G01X10408Y3617D01*
G37*

%LPC*%
G36*
G01X8857Y1092D02*
G01X8857Y1290D01*
G01X8840Y1282D01*
G01X8808Y1262D01*
G01X8792Y1251D01*
G01X8762Y1227D01*
G01X8748Y1214D01*
G01X8735Y1201D01*
G01X8722Y1187D01*
G01X8698Y1157D01*
G01X8687Y1141D01*
G01X8667Y1109D01*
G01X8659Y1092D01*
G01X8857Y1092D01*
G37*
G36*
G01X9259Y1282D02*
G01X9242Y1290D01*
G01X9242Y1092D01*
G01X9440Y1092D01*
G01X9432Y1109D01*
G01X9412Y1141D01*
G01X9401Y1157D01*
G01X9377Y1187D01*
G01X9364Y1201D01*
G01X9351Y1214D01*
G01X9337Y1227D01*
G01X9307Y1251D01*
G01X9291Y1262D01*
G01X9259Y1282D01*
G37*
G36*
G01X9527Y2277D02*
G01X9303Y2277D01*
G01X9303Y2174D01*
G01X9305Y2156D01*
G01X9307Y2147D01*
G01X9310Y2138D01*
G01X9314Y2129D01*
G01X9318Y2121D01*
G01X9324Y2113D01*
G01X9330Y2106D01*
G01X9336Y2100D01*
G01X9343Y2094D01*
G01X9351Y2088D01*
G01X9359Y2084D01*
G01X9368Y2080D01*
G01X9377Y2077D01*
G01X9386Y2075D01*
G01X9404Y2073D01*
G01X9527Y2073D01*
G01X9527Y2277D01*
G37*
G36*
G01X10096Y2277D02*
G01X9872Y2277D01*
G01X9872Y2073D01*
G01X9995Y2073D01*
G01X10013Y2075D01*
G01X10022Y2077D01*
G01X10031Y2080D01*
G01X10040Y2084D01*
G01X10048Y2088D01*
G01X10056Y2094D01*
G01X10063Y2100D01*
G01X10069Y2106D01*
G01X10075Y2113D01*
G01X10081Y2121D01*
G01X10085Y2129D01*
G01X10089Y2138D01*
G01X10092Y2147D01*
G01X10094Y2156D01*
G01X10096Y2174D01*
G01X10096Y2277D01*
G37*
G36*
G01X9527Y2787D02*
G01X9395Y2787D01*
G01X9377Y2783D01*
G01X9368Y2780D01*
G01X9359Y2776D01*
G01X9351Y2772D01*
G01X9343Y2767D01*
G01X9336Y2761D01*
G01X9324Y2747D01*
G01X9318Y2739D01*
G01X9310Y2723D01*
G01X9307Y2714D01*
G01X9305Y2705D01*
G01X9304Y2696D01*
G01X9303Y2686D01*
G01X9303Y2583D01*
G01X9527Y2583D01*
G01X9527Y2787D01*
G37*
G36*
G01X10004Y2787D02*
G01X9872Y2787D01*
G01X9872Y2583D01*
G01X10096Y2583D01*
G01X10096Y2686D01*
G01X10095Y2696D01*
G01X10094Y2705D01*
G01X10092Y2714D01*
G01X10089Y2723D01*
G01X10081Y2739D01*
G01X10075Y2747D01*
G01X10063Y2761D01*
G01X10056Y2767D01*
G01X10048Y2772D01*
G01X10040Y2776D01*
G01X10031Y2780D01*
G01X10022Y2783D01*
G01X10004Y2787D01*
G37*

%LPD*%
G54D11*
G01X2205Y6400D02*
G01X2200Y7150D01*
G01X2700Y7650D01*
G01X3050Y7650D01*
G01X3394Y7994D01*
G01X3394Y8800D01*
G54D10*
G01X7050Y900D02*
G01X7050Y1600D01*
G01X8250Y2800D01*
G01X8700Y2800D01*
G01X9668Y3769D01*
G01X9700Y3769D01*
G01X8406Y6600D02*
G01X8356Y6550D01*
G01X7250Y6550D01*
G01X6400Y7400D01*
G01X6400Y8650D01*
G01X5200Y9850D01*
G01X8406Y7100D02*
G01X7350Y7100D01*
G01X6800Y7650D01*
G01X6800Y9000D01*
G01X6200Y9600D01*
G01X6200Y9850D01*
G01X5492Y7100D02*
G01X4900Y7100D01*
G01X4000Y8000D01*
G01X4000Y10250D01*
G01X4750Y11000D01*
G01X8300Y11000D01*
G01X9200Y10100D01*
G01X9200Y9850D01*
G01X8406Y7600D02*
G01X7450Y7600D01*
G01X7200Y7850D01*
G01X7200Y9850D01*
G54D11*
G01X6050Y900D02*
G01X6050Y1300D01*
G01X6906Y2155D01*
G01X6906Y2630D01*
G54D12*
G01X11710Y2488D02*
G01X11697Y2500D01*
G01X10950Y2500D01*
G01X9950Y1500D01*
G01X9950Y750D01*
G01X9600Y400D01*
G01X6450Y400D01*
G01X6050Y800D01*
G01X6050Y900D01*
G54D10*
G01X11710Y2744D02*
G01X11106Y2744D01*
G01X10750Y3100D01*
G01X10750Y3500D01*
G01X10481Y3769D01*
G01X9700Y3769D01*
G01X10506Y7600D02*
G01X8406Y7600D01*
G01X12381Y7600D02*
G01X11293Y7600D01*
G01X11710Y3000D02*
G01X11200Y3000D01*
G01X11000Y3200D01*
G01X11000Y6219D01*
G01X12381Y7600D01*
G54D11*
G01X6000Y5069D02*
G01X6423Y5494D01*
G01X8200Y5494D01*
G54D10*
G01X1613Y8800D02*
G01X2605Y8800D01*
G54D11*
G01X1055Y4150D02*
G01X1055Y2750D01*
G01X1055Y2750D02*
G01X1055Y1200D01*
G01X2905Y4150D02*
G01X2905Y2700D01*
G01X2905Y2700D02*
G01X2905Y1200D01*
G01X6000Y5069D02*
G01X6000Y2630D01*
G01X2905Y1200D02*
G01X2905Y450D01*
G01X5600Y450D01*
G01X6050Y900D01*
G54D10*
G01X8406Y6600D02*
G01X9150Y6600D01*
G01X9725Y6025D01*
G01X9725Y5444D01*
G54D11*
G01X2205Y6400D02*
G01X1805Y6000D01*
G01X1450Y6000D01*
G01X1055Y5605D01*
G01X1055Y4150D01*
G54D10*
G01X8200Y4705D02*
G01X8250Y4655D01*
G01X9725Y4655D01*
G01X9725Y4655D02*
G01X9700Y4630D01*
G01X9700Y3769D01*
G01X5492Y7600D02*
G01X4950Y7600D01*
G01X4400Y8150D01*
G01X4400Y10100D01*
G01X4900Y10600D01*
G01X7750Y10600D01*
G01X8200Y10150D01*
G01X8200Y9850D01*
G54D13*
G01X8200Y6600D02*
G01X8613Y6600D01*
G01X8200Y7100D02*
G01X8613Y7100D01*
G01X8200Y7600D02*
G01X8613Y7600D01*
G01X8200Y8100D02*
G01X8613Y8100D01*
G01X5286Y6600D02*
G01X5699Y6600D01*
G01X5286Y7100D02*
G01X5699Y7100D01*
G01X5286Y7600D02*
G01X5699Y7600D01*
G01X5286Y8100D02*
G01X5699Y8100D01*
G54D15*
G01X1613Y8800D03*
G01X786Y8800D03*
G54D16*
G01X2993Y6400D03*
G01X2206Y6400D03*
G54D17*
G01X9725Y4656D03*
G01X9725Y5443D03*
G54D16*
G01X11293Y7600D03*
G01X10506Y7600D03*
G54D18*
G01X9700Y2430D03*
G01X9700Y3769D03*
G54D19*
G01X13719Y7600D03*
G01X12380Y7600D03*
G54D16*
G01X2906Y2700D03*
G01X3693Y2700D03*
G01X1056Y4150D03*
G01X1843Y4150D03*
G01X2906Y1200D03*
G01X3693Y1200D03*
G01X2906Y4150D03*
G01X3693Y4150D03*
G01X1056Y2750D03*
G01X1843Y2750D03*
G01X1056Y1200D03*
G01X1843Y1200D03*
G54D20*
G01X11709Y3511D03*
G01X11709Y3255D03*
G01X11709Y3000D03*
G01X11709Y2744D03*
G01X11709Y2488D03*
G54D21*
G01X6000Y5069D03*
G54D22*
G01X6905Y2630D03*
G01X6000Y2630D03*
G01X5094Y2630D03*
G54D17*
G01X8200Y4706D03*
G01X8200Y5493D03*
G54D16*
G01X2606Y8800D03*
G01X3393Y8800D03*

%LPD*%
G36*
G01X7100Y1355D02*
G01X7000Y1355D01*
G01X6799Y1121D01*
G01X7300Y1121D01*
G01X7100Y1355D01*
G37*

%LPD*%
G36*
G01X6441Y9429D02*
G01X6537Y9741D01*
G01X6049Y9529D01*
G01X6343Y9386D01*
G01X6441Y9429D01*
G37*

%LPD*%
G36*
G01X7465Y9615D02*
G01X6934Y9615D01*
G01X7150Y9367D01*
G01X7250Y9367D01*
G01X7465Y9615D01*
G37*

%LPD*%
G36*
G01X8375Y10157D02*
G01X8096Y10324D01*
G01X7990Y10288D01*
G01X7872Y9985D01*
G01X8375Y10157D01*
G37*

%LPD*%
G36*
G01X9350Y10170D02*
G01X9056Y10313D01*
G01X8958Y10270D01*
G01X8862Y9958D01*
G01X9350Y10170D01*
G37*

%LPD*%
G36*
G01X8120Y5583D02*
G01X8036Y5593D01*
G01X8036Y5393D01*
G01X8120Y5403D01*
G01X8120Y5583D01*
G37*

%LPD*%
G36*
G01X1156Y1363D02*
G01X956Y1363D01*
G01X966Y1279D01*
G01X1146Y1279D01*
G01X1156Y1363D01*
G37*

%LPD*%
G36*
G01X6100Y2793D02*
G01X5900Y2793D01*
G01X5910Y2709D01*
G01X6089Y2709D01*
G01X6100Y2793D01*
G37*

%LPD*%
G36*
G01X12270Y7509D02*
G01X12270Y7690D01*
G01X12186Y7650D01*
G01X12186Y7550D01*
G01X12270Y7509D01*
G37*

%LPD*%
G36*
G01X12373Y7482D02*
G01X12230Y7591D01*
G01X12210Y7500D01*
G01X12290Y7439D01*
G01X12373Y7482D01*
G37*

%LPD*%
G36*
G01X2019Y8850D02*
G01X1869Y8925D01*
G01X1869Y8675D01*
G01X2019Y8750D01*
G01X2019Y8850D01*
G37*

%LPD*%
G36*
G01X6150Y1300D02*
G01X5950Y1300D01*
G01X5800Y1234D01*
G01X6300Y1234D01*
G01X6150Y1300D01*
G37*

%LPD*%
G36*
G01X6503Y453D02*
G01X6384Y576D01*
G01X6009Y565D01*
G01X6346Y396D01*
G01X6503Y453D01*
G37*

%LPD*%
G36*
G01X6068Y565D02*
G01X5715Y918D01*
G01X5609Y600D01*
G01X5750Y459D01*
G01X6068Y565D01*
G37*

%LPD*%
G36*
G01X2301Y7005D02*
G01X2101Y7005D01*
G01X2009Y6705D01*
G01X2403Y6705D01*
G01X2301Y7005D01*
G37*

%LPD*%
G36*
G01X2075Y6094D02*
G01X2009Y6590D01*
G01X1789Y6124D01*
G01X1877Y5929D01*
G01X2075Y6094D01*
G37*

%LPD*%
G36*
G01X9419Y4531D02*
G01X9419Y4781D01*
G01X9269Y4706D01*
G01X9269Y4606D01*
G01X9419Y4531D01*
G37*

%LPD*%
G36*
G01X9825Y4459D02*
G01X9575Y4459D01*
G01X9650Y4309D01*
G01X9750Y4309D01*
G01X9825Y4459D01*
G37*

%LPD*%
G36*
G01X9775Y5790D02*
G01X9675Y5790D01*
G01X9600Y5640D01*
G01X9850Y5640D01*
G01X9775Y5790D01*
G37*

%LPD*%
G36*
G01X11640Y7650D02*
G01X11490Y7725D01*
G01X11490Y7475D01*
G01X11640Y7550D01*
G01X11640Y7650D01*
G37*

%LPD*%
G36*
G01X10309Y7475D02*
G01X10309Y7725D01*
G01X10159Y7650D01*
G01X10159Y7550D01*
G01X10309Y7475D01*
G37*

%LPD*%
G36*
G01X9601Y3513D02*
G01X9404Y3667D01*
G01X9349Y3520D01*
G01X9428Y3458D01*
G01X9601Y3513D01*
G37*

%LPD*%
G36*
G01X10145Y3819D02*
G01X9995Y3894D01*
G01X9995Y3644D01*
G01X10145Y3719D01*
G01X10145Y3819D01*
G37*

%LPD*%
G36*
G01X9750Y4175D02*
G01X9650Y4175D01*
G01X9575Y4025D01*
G01X9825Y4025D01*
G01X9750Y4175D01*
G37*

%LPD*%
G36*
G01X12124Y7475D02*
G01X12124Y7725D01*
G01X11974Y7650D01*
G01X11974Y7550D01*
G01X12124Y7475D01*
G37*

%LPD*%
G36*
G01X12193Y7304D02*
G01X12124Y7545D01*
G01X12032Y7322D01*
G01X12063Y7212D01*
G01X12193Y7304D01*
G37*

%LPD*%
G36*
G01X3006Y3305D02*
G01X2806Y3305D01*
G01X2709Y3005D01*
G01X3103Y3005D01*
G01X3006Y3305D01*
G37*

%LPD*%
G36*
G01X3103Y2394D02*
G01X2709Y2394D01*
G01X2806Y2094D01*
G01X3006Y2094D01*
G01X3103Y2394D01*
G37*

%LPD*%
G36*
G01X1253Y3844D02*
G01X859Y3844D01*
G01X956Y3544D01*
G01X1156Y3544D01*
G01X1253Y3844D01*
G37*

%LPD*%
G36*
G01X1156Y4755D02*
G01X956Y4755D01*
G01X859Y4455D01*
G01X1253Y4455D01*
G01X1156Y4755D01*
G37*

%LPD*%
G36*
G01X3006Y1805D02*
G01X2806Y1805D01*
G01X2709Y1505D01*
G01X3103Y1505D01*
G01X3006Y1805D01*
G37*

%LPD*%
G36*
G01X3103Y894D02*
G01X2709Y894D01*
G01X2806Y594D01*
G01X3006Y594D01*
G01X3103Y894D01*
G37*

%LPD*%
G36*
G01X3103Y3844D02*
G01X2709Y3844D01*
G01X2806Y3544D01*
G01X3006Y3544D01*
G01X3103Y3844D01*
G37*

%LPD*%
G36*
G01X1156Y3355D02*
G01X956Y3355D01*
G01X859Y3055D01*
G01X1253Y3055D01*
G01X1156Y3355D01*
G37*

%LPD*%
G36*
G01X1253Y2444D02*
G01X859Y2444D01*
G01X956Y2144D01*
G01X1156Y2144D01*
G01X1253Y2444D01*
G37*

%LPD*%
G36*
G01X1156Y1805D02*
G01X956Y1805D01*
G01X859Y1505D01*
G01X1253Y1505D01*
G01X1156Y1805D01*
G37*

%LPD*%
G36*
G01X5607Y9513D02*
G01X5554Y9672D01*
G01X5377Y9495D01*
G01X5536Y9442D01*
G01X5607Y9513D01*
G37*

%LPD*%
G36*
G01X11355Y2915D02*
G01X11355Y3084D01*
G01X11205Y3050D01*
G01X11205Y2950D01*
G01X11355Y2915D01*
G37*

%LPD*%
G36*
G01X11355Y2659D02*
G01X11355Y2828D01*
G01X11205Y2793D01*
G01X11205Y2693D01*
G01X11355Y2659D01*
G37*

%LPD*%
G36*
G01X6250Y4636D02*
G01X5750Y4636D01*
G01X5900Y4336D01*
G01X6100Y4336D01*
G01X6250Y4636D01*
G37*

%LPD*%
G36*
G01X7122Y2196D02*
G01X6688Y2196D01*
G01X6805Y2155D01*
G01X7005Y2155D01*
G01X7122Y2196D01*
G37*

%LPD*%
G36*
G01X6100Y3363D02*
G01X5900Y3363D01*
G01X5783Y3063D01*
G01X6216Y3063D01*
G01X6100Y3363D01*
G37*

%LPD*%
G36*
G01X8655Y4706D02*
G01X8505Y4781D01*
G01X8505Y4531D01*
G01X8655Y4606D01*
G01X8655Y4706D01*
G37*

%LPD*%
G36*
G01X7894Y5296D02*
G01X7894Y5690D01*
G01X7594Y5593D01*
G01X7594Y5393D01*
G01X7894Y5296D01*
G37*

%LPD*%
G36*
G01X2409Y8675D02*
G01X2409Y8925D01*
G01X2259Y8850D01*
G01X2259Y8750D01*
G01X2409Y8675D01*
G37*

%LPD*%
G36*
G01X3590Y8494D02*
G01X3196Y8494D01*
G01X3293Y8194D01*
G01X3493Y8194D01*
G01X3590Y8494D01*
G37*

%LPD*%
G36*
G01X8209Y6472D02*
G01X8138Y6712D01*
G01X8015Y6600D01*
G01X8044Y6500D01*
G01X8209Y6472D01*
G37*

%LPD*%
G36*
G01X8790Y6650D02*
G01X8640Y6725D01*
G01X8640Y6475D01*
G01X8790Y6550D01*
G01X8790Y6650D01*
G37*

%LPD*%
G36*
G01X8172Y6975D02*
G01X8172Y7225D01*
G01X8022Y7150D01*
G01X8022Y7050D01*
G01X8172Y6975D01*
G37*

%LPD*%
G36*
G01X8172Y7475D02*
G01X8172Y7725D01*
G01X8022Y7650D01*
G01X8022Y7550D01*
G01X8172Y7475D01*
G37*

%LPD*%
G36*
G01X8790Y7650D02*
G01X8640Y7725D01*
G01X8640Y7475D01*
G01X8790Y7550D01*
G01X8790Y7650D01*
G37*

%LPD*%
G36*
G01X5259Y6975D02*
G01X5259Y7225D01*
G01X5109Y7150D01*
G01X5109Y7050D01*
G01X5259Y6975D01*
G37*

%LPD*%
G36*
G01X5259Y7475D02*
G01X5259Y7725D01*
G01X5109Y7650D01*
G01X5109Y7550D01*
G01X5259Y7475D01*
G37*
G54D23*
G01X6050Y900D03*
G54D24*
G01X7050Y900D03*
G01X8050Y900D03*
G01X9050Y900D03*
G54D25*
G01X5200Y9850D03*
G54D26*
G01X6200Y9850D03*
G01X7200Y9850D03*
G01X8200Y9850D03*
G01X9200Y9850D03*
G01X10200Y9850D03*
G54D14*
G01X5500Y8100D03*
G01X3000Y6400D03*
G01X1056Y1200D03*
G01X6000Y2630D03*
G01X12350Y7600D03*
G01X8406Y8100D03*
G01X8200Y5493D03*
G01X9700Y2430D03*
G01X5094Y2630D03*
G54D27*
G01X12836Y4417D02*
G01X13229Y4417D01*
G01X12836Y1582D02*
G01X13229Y1582D01*
G01X11470Y4417D02*
G01X11863Y4417D01*
G01X11470Y1582D02*
G01X11863Y1582D01*
M00*
M02*
